<mxfile host="app.diagrams.net" modified="2020-12-26T10:39:52.790Z" agent="5.0 (X11; Linux x86_64) AppleWebKit/537.36 (KHTML, like Gecko) Chrome/87.0.4280.88 Safari/537.36" etag="BqTC6pkctsluU6uM3e2N" version="14.1.1" type="github">
  <diagram id="4UhYT9hk-Zzi39r3fxAN" name="Page-1">
    <mxGraphModel dx="1137" dy="1841" grid="1" gridSize="10" guides="1" tooltips="1" connect="1" arrows="1" fold="1" page="1" pageScale="1" pageWidth="827" pageHeight="1169" math="0" shadow="0">
      <root>
        <mxCell id="0" />
        <mxCell id="1" parent="0" />
        <mxCell id="qUHYum_QUu2UJPCzKtRe-142" value="" style="edgeStyle=orthogonalEdgeStyle;rounded=0;sketch=0;orthogonalLoop=1;jettySize=auto;html=1;dashed=1;startArrow=classic;startFill=1;endArrow=classic;endFill=1;strokeColor=#006EAF;strokeWidth=2;" parent="1" source="qUHYum_QUu2UJPCzKtRe-144" target="qUHYum_QUu2UJPCzKtRe-90" edge="1">
          <mxGeometry relative="1" as="geometry">
            <mxPoint x="350" y="-180" as="sourcePoint" />
            <mxPoint x="380" y="-310" as="targetPoint" />
            <Array as="points" />
          </mxGeometry>
        </mxCell>
        <mxCell id="qUHYum_QUu2UJPCzKtRe-23" value="" style="endArrow=classic;html=1;dashed=1;strokeColor=#006EAF;strokeWidth=2;startArrow=classic;startFill=1;exitX=0;exitY=0.5;exitDx=0;exitDy=0;" parent="1" source="qUHYum_QUu2UJPCzKtRe-25" target="qUHYum_QUu2UJPCzKtRe-22" edge="1">
          <mxGeometry relative="1" as="geometry">
            <mxPoint x="400" y="392.13" as="sourcePoint" />
            <mxPoint x="370" y="389.13" as="targetPoint" />
          </mxGeometry>
        </mxCell>
        <mxCell id="qUHYum_QUu2UJPCzKtRe-24" value="" style="shape=message;html=1;outlineConnect=0;strokeColor=#FF0000;" parent="qUHYum_QUu2UJPCzKtRe-23" vertex="1">
          <mxGeometry width="20" height="14" relative="1" as="geometry">
            <mxPoint x="-10" y="-7" as="offset" />
          </mxGeometry>
        </mxCell>
        <mxCell id="qUHYum_QUu2UJPCzKtRe-31" value="" style="endArrow=classic;html=1;dashed=1;strokeColor=#006EAF;strokeWidth=2;startArrow=classic;startFill=1;entryX=1;entryY=0.5;entryDx=0;entryDy=0;" parent="1" source="qUHYum_QUu2UJPCzKtRe-30" target="qUHYum_QUu2UJPCzKtRe-26" edge="1">
          <mxGeometry relative="1" as="geometry">
            <mxPoint x="440" y="470" as="sourcePoint" />
            <mxPoint x="300" y="470" as="targetPoint" />
            <Array as="points" />
          </mxGeometry>
        </mxCell>
        <mxCell id="qUHYum_QUu2UJPCzKtRe-32" value="" style="shape=message;html=1;outlineConnect=0;strokeColor=#FF0000;" parent="qUHYum_QUu2UJPCzKtRe-31" vertex="1">
          <mxGeometry width="20" height="14" relative="1" as="geometry">
            <mxPoint x="-10.61" y="-7" as="offset" />
          </mxGeometry>
        </mxCell>
        <mxCell id="qUHYum_QUu2UJPCzKtRe-35" value="" style="endArrow=classic;html=1;dashed=1;strokeColor=#006EAF;strokeWidth=2;startArrow=classic;startFill=1;entryX=0.5;entryY=0;entryDx=0;entryDy=0;exitX=0.5;exitY=1;exitDx=0;exitDy=0;" parent="1" source="qUHYum_QUu2UJPCzKtRe-34" target="qUHYum_QUu2UJPCzKtRe-25" edge="1">
          <mxGeometry relative="1" as="geometry">
            <mxPoint x="360" y="300" as="sourcePoint" />
            <mxPoint x="600" y="470.0000000000001" as="targetPoint" />
            <Array as="points">
              <mxPoint x="275" y="250" />
              <mxPoint x="370" y="250" />
              <mxPoint x="428" y="250" />
            </Array>
          </mxGeometry>
        </mxCell>
        <mxCell id="qUHYum_QUu2UJPCzKtRe-36" value="" style="shape=message;html=1;outlineConnect=0;strokeColor=#FF0000;" parent="qUHYum_QUu2UJPCzKtRe-35" vertex="1">
          <mxGeometry width="20" height="14" relative="1" as="geometry">
            <mxPoint x="-10" y="-7" as="offset" />
          </mxGeometry>
        </mxCell>
        <mxCell id="qUHYum_QUu2UJPCzKtRe-37" value="" style="group" parent="1" vertex="1" connectable="0">
          <mxGeometry x="130" y="282.13" width="170" height="60" as="geometry" />
        </mxCell>
        <mxCell id="qUHYum_QUu2UJPCzKtRe-21" value="&lt;meta charset=&quot;utf-8&quot;&gt;&lt;b style=&quot;color: rgb(0, 0, 0); font-size: 12px; font-style: normal; letter-spacing: normal; text-align: center; text-indent: 0px; text-transform: none; word-spacing: 0px; font-family: helvetica; background-color: rgb(248, 249, 250);&quot;&gt;Servidor de registo e descoberta de serviços&lt;/b&gt;" style="rounded=0;whiteSpace=wrap;html=1;sketch=1;strokeColor=#006EAF;strokeWidth=2;" parent="qUHYum_QUu2UJPCzKtRe-37" vertex="1">
          <mxGeometry width="120" height="60" as="geometry" />
        </mxCell>
        <mxCell id="qUHYum_QUu2UJPCzKtRe-22" value="&lt;font style=&quot;font-size: 10px&quot;&gt;&lt;span style=&quot;font-family: &amp;#34;helvetica&amp;#34;&quot;&gt;Restful&lt;/span&gt;&lt;br style=&quot;font-family: &amp;#34;helvetica&amp;#34;&quot;&gt;&lt;span style=&quot;font-family: &amp;#34;helvetica&amp;#34;&quot;&gt;API&lt;/span&gt;&lt;/font&gt;" style="rounded=0;whiteSpace=wrap;html=1;sketch=1;strokeWidth=2;strokeColor=#3399FF;" parent="qUHYum_QUu2UJPCzKtRe-37" vertex="1">
          <mxGeometry x="120" width="50" height="60" as="geometry" />
        </mxCell>
        <mxCell id="qUHYum_QUu2UJPCzKtRe-38" value="" style="group" parent="1" vertex="1" connectable="0">
          <mxGeometry x="368.06" y="282.13" width="170" height="60" as="geometry" />
        </mxCell>
        <mxCell id="qUHYum_QUu2UJPCzKtRe-25" value="&lt;b style=&quot;color: rgb(0 , 0 , 0) ; font-size: 12px ; font-style: normal ; letter-spacing: normal ; text-align: center ; text-indent: 0px ; text-transform: none ; word-spacing: 0px ; font-family: &amp;#34;helvetica&amp;#34; ; background-color: rgb(248 , 249 , 250)&quot;&gt;Cliente de registo e descoberta de serviços&lt;/b&gt;" style="rounded=0;whiteSpace=wrap;html=1;sketch=1;strokeColor=#006EAF;strokeWidth=2;" parent="qUHYum_QUu2UJPCzKtRe-38" vertex="1">
          <mxGeometry width="120" height="60" as="geometry" />
        </mxCell>
        <mxCell id="qUHYum_QUu2UJPCzKtRe-26" value="&lt;font style=&quot;font-size: 10px&quot;&gt;&lt;span style=&quot;font-family: &amp;#34;helvetica&amp;#34;&quot;&gt;Restful&lt;/span&gt;&lt;br style=&quot;font-family: &amp;#34;helvetica&amp;#34;&quot;&gt;&lt;span style=&quot;font-family: &amp;#34;helvetica&amp;#34;&quot;&gt;API&lt;/span&gt;&lt;/font&gt;" style="rounded=0;whiteSpace=wrap;html=1;sketch=1;strokeWidth=2;strokeColor=#3399FF;" parent="qUHYum_QUu2UJPCzKtRe-38" vertex="1">
          <mxGeometry x="120" width="50" height="60" as="geometry" />
        </mxCell>
        <mxCell id="qUHYum_QUu2UJPCzKtRe-39" value="" style="group" parent="1" vertex="1" connectable="0">
          <mxGeometry x="130" y="160" width="170" height="60" as="geometry" />
        </mxCell>
        <mxCell id="qUHYum_QUu2UJPCzKtRe-33" value="&lt;b style=&quot;color: rgb(0 , 0 , 0) ; font-size: 12px ; font-style: normal ; letter-spacing: normal ; text-align: center ; text-indent: 0px ; text-transform: none ; word-spacing: 0px ; font-family: &amp;#34;helvetica&amp;#34; ; background-color: rgb(248 , 249 , 250)&quot;&gt;Monitorização de pedidos&lt;/b&gt;" style="rounded=0;whiteSpace=wrap;html=1;sketch=1;strokeColor=#006EAF;strokeWidth=2;" parent="qUHYum_QUu2UJPCzKtRe-39" vertex="1">
          <mxGeometry width="120" height="60" as="geometry" />
        </mxCell>
        <mxCell id="qUHYum_QUu2UJPCzKtRe-34" value="&lt;font style=&quot;font-size: 10px&quot;&gt;&lt;span style=&quot;font-family: &amp;#34;helvetica&amp;#34;&quot;&gt;Restful&lt;/span&gt;&lt;br style=&quot;font-family: &amp;#34;helvetica&amp;#34;&quot;&gt;&lt;span style=&quot;font-family: &amp;#34;helvetica&amp;#34;&quot;&gt;API&lt;/span&gt;&lt;/font&gt;" style="rounded=0;whiteSpace=wrap;html=1;sketch=1;strokeWidth=2;strokeColor=#3399FF;" parent="qUHYum_QUu2UJPCzKtRe-39" vertex="1">
          <mxGeometry x="120" width="50" height="60" as="geometry" />
        </mxCell>
        <mxCell id="qUHYum_QUu2UJPCzKtRe-40" value="" style="group" parent="1" vertex="1" connectable="0">
          <mxGeometry x="472.75" y="-36" width="170" height="60" as="geometry" />
        </mxCell>
        <mxCell id="qUHYum_QUu2UJPCzKtRe-41" value="&lt;b style=&quot;color: rgb(0 , 0 , 0) ; font-size: 12px ; font-style: normal ; letter-spacing: normal ; text-align: center ; text-indent: 0px ; text-transform: none ; word-spacing: 0px ; font-family: &amp;#34;helvetica&amp;#34; ; background-color: rgb(248 , 249 , 250)&quot;&gt;Gestor local&lt;/b&gt;" style="rounded=0;whiteSpace=wrap;html=1;sketch=1;strokeColor=#006EAF;strokeWidth=2;" parent="qUHYum_QUu2UJPCzKtRe-40" vertex="1">
          <mxGeometry width="120" height="60" as="geometry" />
        </mxCell>
        <mxCell id="qUHYum_QUu2UJPCzKtRe-42" value="&lt;font style=&quot;font-size: 10px&quot;&gt;&lt;span style=&quot;font-family: &amp;#34;helvetica&amp;#34;&quot;&gt;Restful&lt;/span&gt;&lt;br style=&quot;font-family: &amp;#34;helvetica&amp;#34;&quot;&gt;&lt;span style=&quot;font-family: &amp;#34;helvetica&amp;#34;&quot;&gt;API&lt;/span&gt;&lt;/font&gt;" style="rounded=0;whiteSpace=wrap;html=1;sketch=1;strokeWidth=2;strokeColor=#3399FF;" parent="qUHYum_QUu2UJPCzKtRe-40" vertex="1">
          <mxGeometry x="120" width="50" height="60" as="geometry" />
        </mxCell>
        <mxCell id="qUHYum_QUu2UJPCzKtRe-48" value="" style="group" parent="1" vertex="1" connectable="0">
          <mxGeometry x="130" y="60" width="170" height="60" as="geometry" />
        </mxCell>
        <mxCell id="qUHYum_QUu2UJPCzKtRe-49" value="&lt;b style=&quot;color: rgb(0 , 0 , 0) ; font-size: 12px ; font-style: normal ; letter-spacing: normal ; text-align: center ; text-indent: 0px ; text-transform: none ; word-spacing: 0px ; font-family: &amp;#34;helvetica&amp;#34; ; background-color: rgb(248 , 249 , 250)&quot;&gt;Cliente de balanceador de carga&lt;/b&gt;" style="rounded=0;whiteSpace=wrap;html=1;sketch=1;strokeColor=#006EAF;strokeWidth=2;" parent="qUHYum_QUu2UJPCzKtRe-48" vertex="1">
          <mxGeometry width="120" height="60" as="geometry" />
        </mxCell>
        <mxCell id="qUHYum_QUu2UJPCzKtRe-50" value="&lt;font style=&quot;font-size: 10px&quot;&gt;&lt;span style=&quot;font-family: &amp;#34;helvetica&amp;#34;&quot;&gt;Restful&lt;/span&gt;&lt;br style=&quot;font-family: &amp;#34;helvetica&amp;#34;&quot;&gt;&lt;span style=&quot;font-family: &amp;#34;helvetica&amp;#34;&quot;&gt;API&lt;/span&gt;&lt;/font&gt;" style="rounded=0;whiteSpace=wrap;html=1;sketch=1;strokeWidth=2;strokeColor=#3399FF;" parent="qUHYum_QUu2UJPCzKtRe-48" vertex="1">
          <mxGeometry x="120" width="50" height="60" as="geometry" />
        </mxCell>
        <mxCell id="qUHYum_QUu2UJPCzKtRe-63" value="" style="endArrow=classic;html=1;dashed=1;strokeColor=#006EAF;strokeWidth=2;exitX=0.5;exitY=1;exitDx=0;exitDy=0;endFill=1;entryX=0.46;entryY=0.098;entryDx=0;entryDy=0;entryPerimeter=0;startArrow=classic;startFill=1;" parent="1" source="qUHYum_QUu2UJPCzKtRe-65" target="qUHYum_QUu2UJPCzKtRe-66" edge="1">
          <mxGeometry relative="1" as="geometry">
            <mxPoint x="609.25" y="-10" as="sourcePoint" />
            <mxPoint x="509.25" y="140" as="targetPoint" />
          </mxGeometry>
        </mxCell>
        <mxCell id="qUHYum_QUu2UJPCzKtRe-69" value="" style="group" parent="1" vertex="1" connectable="0">
          <mxGeometry x="610" y="170" width="84" height="60" as="geometry" />
        </mxCell>
        <mxCell id="qUHYum_QUu2UJPCzKtRe-30" value="&lt;span style=&quot;font-size: 11px&quot;&gt;&lt;b&gt;&lt;font color=&quot;#007fff&quot;&gt;Micro-serviço&lt;/font&gt;&lt;/b&gt;&lt;/span&gt;" style="ellipse;whiteSpace=wrap;html=1;aspect=fixed;strokeWidth=2;strokeColor=#007FFF;" parent="qUHYum_QUu2UJPCzKtRe-69" vertex="1">
          <mxGeometry width="60" height="60" as="geometry" />
        </mxCell>
        <mxCell id="qUHYum_QUu2UJPCzKtRe-66" value="" style="shape=image;verticalLabelPosition=bottom;labelBackgroundColor=#ffffff;verticalAlign=top;aspect=fixed;imageAspect=0;image=data:image/png,iVBORw0KGgoAAAANSUhEUgAAASwAAABSCAYAAADuIulwAAAABHNCSVQICAgIfAhkiAAAHShJREFUeJztnXlYU1f6x997EwJEwq4ISAIUBEUWd1RUXFCrVnGpqPVndapjx7Yuta3tWJ9Oq7XbdERlrK1a0Wm1blVbR8WpChasC2oA0VpQNiFsgbAYAiS5vz9i4r03270hAWLP53nyPJx7zwbKl3Pe877vAUAgEAg7ASMXnLkQE+YGY9144G6u4fUaONWiBHFHBmczXo4U0mVtkNGR8RAIhH2jE6xXwmDfnrGwhE3jZRmQuvc+LLVk4Hg/+Mel6fABmzbJeZC+9jcYZ8l4CATC/uEAAPjyITFjBnzKtvGMQIj5vgBK6lrZrbTceRB/bx7sYzterA8EZkgAK26CdLZtEQiE/YMDAEwTQqKlHbwYzL5tjDfEWzreLJHlbREIhH2DAwBEekCgpR30djZvf0IgEAhrgHf1BBAIBIIpSLAQCITdgAQLgUDYDUiwEAiE3YAEC4FA2A1IsBAIhN2ABAuBQNgNSLAQCITdgAQLgUDYDUiwEAiE3YAEC4FA2A1IsBAIhN2ABAuBQNgNSLAQCITdgAQLgUDYDUiwEAiE3YAEC4FA2A1IsBAIhN2ABAuBQNgNSLAQCITdgAQLgUDYDdyungACgXi24HA4gSGhITMAAGQyWVV1VXUaQRAya/SNBMuGvBb/3PchPq5+AAAPy2sqAQCC/Xv21r4vrGqsyCxqvKYt5z+SnlKq1CWdP1NmDAzqtWbxMP+ZW9IKvqiRNZ+x1TiufMe4laP810ka26T7rz1aZqtxuBxctDwu6ONQH4GfuLjmwcGbks2d+fPnOfKiVr7x2jZtua6urv782fOHKyWSw7Yc18XFJW72vDlvenp6egAAFPxRUJhxMX1/c3NzpqV99g0PW7PklaXLwyP7h6sJQm/n1q5obb50/kJm6rf71re1tuVaOg4GALBtBKSvioSxlnSwPQ8yVv/G7nJTS66p78h4XcG7UyNObBHeZ33JrELgr8x83LP4n5lVR8/nlv3dFnOzhJ7uLlOr5iv+CwCgdnIluMl1NjMnyN8WtTs1lXMBAJbmB+3d/2uBTUSrZFWwLKCt1E1bLuMJG0TbH3baPZu7D+yr8Ojp6Ut/fvbE6VN7v9lt8eXGpsAwzP342VNSQ6KyYtFfpkmlUlZ/iESBomWfb/9yB8fBwYlpmxuZv139fMtnz1uy6uoSG1ZHbm+eGQjRVpyKzfAR8DwsaefUVM6dqBaHnBspeU/+tqh9cpTwE2vPzRL6ePD7ar/GFY2YLcfSihUAQIyfS4itxumpkvYwVbY1fD7f2dDzGS8mzuRwOCJbjDluwviPDIkVAMC8hQtWsenrr39bcfbLr7bvZiNWAABD40bEHv3viarevr5JbNoBWEGwVkXCWF8+8+vqnbkQY+lqDgBAJAD3EFdYYml7e8KpqZx7dmTFuydficrv6rk8i3DVbd3y0KldqYQXk+bZ5A/VrHlzZxp75+jEYyQ8GIa5f526RzJpxtQpht67CQTg7eGp+xjphPdV6jeH2IqWVWxYFYvgRHIepJ8shnRT9RIDIX5NZMe3cwXzYV9yHrzc0X7MkSEB8bVqyJDI4WRH+yKmvg94mBGdLhODWt4AWM4pgPI8vdczHO72P79ySMGkndmhHZ0H4ilKnKfmqtp1oqXGOERXzofMhCmT4n84eMiqfWIY5u4b4CfsaD8ff/FplpfPU1ssAACXy4UQUTCEBgaBA9dBr01pxSO4W3Af5IoW3TOVWo19lfrNoaQZc+4xtWtZzei+JtI6YsRmvE4aY83s87DtRDGs6UhfeNhYIELHGH4ZOkZjTJy+EUAuA+LiDsAubgdQNOqqTFSLQyZHCT9Jyy19ryPzQDzleg2UjvEgggHDAAgCrhAhxQDXGbd3cuBEje3nv8AW/ya9fHv5Yhjmbq3TNQCA6JiY18nl1haF3NHZic+mj7lJLx7sGxHen/zM28MTRgwaalCotAj9+oDQrw/cLfwDfn/wh+65Sq3GUg8eyFg4Zz4jE0q3XBJ3N36cBKsxgM4xxvLdAZu+EWDDDQD/SMqrE5OxtzplDn8Sxh1pGOyZqho3+JhyrWeqatykf1/va76VhrmDA7Y3v+Ym3jXZ41WrTEZFtICK0C0/2pVKmJgw8SOr9P2EeS/NX0Aun/v5zEU27XmOvKj5SxZR+hD69YExw0aaFCsy/UP6wpDIGGq/fGf3l/+y5AST9kiwGOLGgxjztayIVyDA4r0ATq66R05N5dyXR4fu6dR5PMMQADJZK6TfroVkWatpcwYZV75j3JGhkjesefjQqmhtTd299yD52aSpUyZYq38AgPAB/cK1X+M4Tvx49NiXbNq/u3HDAXKZ7+QM0f0iWM9D6NcHevf0oTxLTJpj1LZGBglWdyYgGojx1IObNUNcp3bRbBBP+PCF/ptt0e/Z02c2kcvhkf3DjdVliyhQtIx8Oiitqq1k057nyIuKGhxDOaEfEhXDeGVFZ2hUDHC5Ty1SKrUamz7zBbN/jJFgdXOw6BmUciRR1NtIVYSdo1KpSlofK3Q2q9a2NjxiQMRaa/SdOGfW/5HLp47/yMrfasFLCz8klzUngF4Wz8eB6wAivwDKs6SXFppdZSHB6u4ERAN4Pj3YsbUPFKJrOX/mbDq5nDhn9jxr9Dt6QnwsuUxfzZnjhdkzJ5PLgX06fNgIoYFBlLKzgO9tzv8MCZY94EX9NxwY1KtDJ5aI7svxI1S70rBRwwd1tE8PT4+pgGE8bbm+pk6iUqkYhyC5uLjEAQenOLka9a9iAd+ZD24CAeXZ8NhYk4cYSLAQiG5Ec3NzJuW0UKXieXl5dchuOSFh4iJyOTM945qxuoaYMu35leSym0AAfGdW3hBG8fbwppRfXJg011R9FPxsD7Q0UIrioupUNs17urtM9XNzDokL7z08xJ3rBwBwLLf2l7IaWWFpbZPVAm25HFwU0cdr5tyhouddOCqnX0se5565VbRX0dZucbCrMZwcOFGDA71e8OMTvf+QQUF+Wc1PSjUUW3scQwzw4viDWvO1F09pnd9cEpkZl6/HjR+r8zKet3DBqq92pFgcbD5jziyK4NFXceYYNHQIxdhOF5mO0MvLGx6UFunKgSFBgabqI8Hq7shlAI+ov+8EgFlnQle+Y9yxJZH74l2lwVxZGQ6gAIB63fvVYzWOt2onz0M7JKKMt4/lLLE0UwGGYe7rZw3bt1lYMBNX1GPacVZ7QDzEwKocr/GVM/fmrC2tlP5gSf9kFseF7N41on2JJt6wjvSGu03m2Eux5ib/uwOZhcuZ9nfylaj8aC/Mr6JZ3ThqZ55B+8n3S4fcGtmzPQgAQIC1Ono2iHXbIxfpfV7t+nB5E+HYaqjtq+fqd7F1LP3hu0NfkQVr/KTxsV/tSGHThQ6eIy+KL+ihC/AGFdHCNitD3/C+FGOTf2/rnfvQt4QqtdqkJqEtYTcHy/2JUs5xjpaYa/P90iG3ZItVv05Ui0M0YmUcXNGIrfbIi298M6BQ6C1gHYzK5eCimnfCKrb0uplo7EAgWnq5d3Fiw6FNc4ecZds/eRzJmyFNqQOKl5GDo8m4t1Y7pQ4oXla7PlzO5eBmg4e5OATOcLjbX9SY7z5CfU/I5XIDDdVZ4CgeKGrMdxc15rt7NhTqBSx7NhQ6a9/TP5Y4llZKJIc5GK7UljEux83RyTGKbT8AAHGjR1MyXfz848k01p3Q7FdcC10ZDGFoaxneL9yojRYJVjeH+C/V5Sc5u9Hk1uD8yiEFCxzFA+nPm5192q7i/Uq31Udm5DhHS5QOLmrye6emcu7DRQ6HmPyia+FycFHlW33vUX6JnVwBQkfreekDAGzwFk85v3JIAdP+6eP4yItdKC9CR2s+JOdaAI2AVL7V956578XFAQIpZReXQHodldr8atYUErVLo/la+uTcFFOCSmfNnv2uJf3Qg53Zbgc9PD307GfuAldDVS2GbsD39PTyMVIVbQm7M8SRdYBJn+7S1I4C4vsrD4weR787NeLERLWYko4lxzlaMvbrO/Ma5eWZAOWU+q/HP3cwObpuPt7ahAFoVltnVwz6JYFhkPX1VQN/82zI0YiVkytg874EInbx0wrSYs33kHda92iiWhzy+uSogylpuQuZjAEAULY6+A5ZFIn41wGb8IYmGuAJ2NUDQBxZp4u/9GwodL786oDLI/+d26E0LQSA7Pkrfp9O6ec1AgDggUxV8a++pUnc9mbdH/tt9ZEZxtp/cCD7fUvG3ZWy87OUb3fpttDjEsaPYhsMTQ925mC4ku120MfHhxKuxHcymBHHqgwbOXzElawsg++QYHVTsDObAdKpdov3C/xOKVX1Ru1Mm/tKZoLiafkCHlOYsNW4+KSkP1j40x3BqYcvCQ5pRWuCWhzC5eAic/asd6dGnIhpydEkn/OPBFi8F4gAWqoyr0DA/nYcsIvbgTj2tu5xcr9H83f9gr/HxGb2WpBsNHlbiy3eDUAWxScQsYsB/KMBtk7UiVas6q4wLrTX+5kF1R3yTE/LLX0vLbdUV37OfaDfao+8sQAAJYII2dpdt+M70r8hKiWSwziOH1Kr1RgAQO8+fkK2wdD0YGf6qo0Jfv7+weQy39n2gmUKtCXsbkiLAZITgDhNXUjlOEdLPj2TP8tYs8lRwk/INiSFi59y0s7soeaGK61tOryjMvAy+VlijP86c+0295VothpOrpqYR7pYkSDGrwIicrqujCsasS/mRu83NwYAAF2sCANipSMgGrB51B3P0Rdc1zMZhw1FFTWswlospaSw6IH2a0uCoenBzrtSdn7Gdg5RA6Mtsp2xwduTeuoYHBxsdEto14I1+zxs80iFceY+407Dh2XN0GC+xy6iLAewSzsAkhMANoYB/EHRDygRRMiGbr89wlQXK4e6U2J4vi7zymJymggAsPbw7Xi1o0CXC2pUiLfZ/6RaccTmfWlSrLTQhWSFsG4Uk7npCB1tWqyeQMQu1ti1nuAjL3YJ6+3GKMVyc3NzMZN6ckWrwnytjnP04OFj5DLbYGhysDMHw5W2zhVvLbx69jR6DGm3W0L+tzCwRQliJnXTKyA97AicvD8P0gNcwM18C+tD7Jqr/4tdlqPzsTKUOU7tKCB2VAZeZrLleONU0UdRSyN2AQB8eaP5bEr6bcY2IgCAPDy4Mho0W7xEoTqaUQCbp5CRiAAAgFcgEMMXAXbtOwDQGPmF3oIkpn5g2PhVBn9GRusW/Korp8wOXZ+wM9tsYK1SqSxmOESncCUr6723cHy9dlvIJhiaHuxc/KCo2AZT7HTscoU1+zxsYypWWlqUIF6cDsm2mpP5CTRoVk7kT4vhRZ/aUUBsq4/McEppCFp7mJl9pLS26XDQFzkeQV/keKSkP2AlVgAA6RXqP8zXooJN38iqPj3j6l/jw5YyaugpBIIWBG4Ket2x3AfBRqp2e8hZFdgEQ9ODnemrNXvFLgXrajXz3EVkxLWWtets2niuqsKqxvLufOUXAAARxVxEDNV/9blmIylYOzYOAFBsZty2JpzptrC7Qc+qwDQYmhzsjOM4cSUr65nIVGuXgtWitMw3RtbWdYKldhQQJYIIGf2jdOujptd1airn7ggvWVi7Plzu5sQZbag/a1PdxmP3Mw0dDcBnmYSV707xzzLkhGkIbATDbSeZAGq+xf8b5mcyRq27Qs+qwCQYmh7sTDbe2wOyujqpsXd2KVj2yLRLgs+0Wzbyh/dZMQffpcT6nXZffgGPKSS38WwodK5aLrjExpnTUs6Ji9LZ1CdCLbz4iCZyYX28Ta98nFwZGfXp4LQ2w/v0eI51J90AlUpVUl9Tp4tuYBIMPSNxJiU06cL5/xn1EzNHbW2t1XLKG6O9vZ1SLigoeGSsLhKsTqK6SVFl6v39R7V7EnZmhwYec55PPrHjtTdzzq4Y9Iut57d4mD+riztxb8s0lC50fAfcxUhVDRaIFQAA4UmdX0iPdutF7HYy9G2hufsDJ0yZNI5cZpv7iswdcV62pW2Z0tDE/AAfCVY3o7S26fDQnxzeJD+boBaHuPId46zRvyvfMS5a1HPVqH4BG7YmDby0NWngpax1o0re8C1hZE/SQfIy7whzBgsN3m2nhS48jKEJnQ/ITAtjNyb9wqVUcnn8pPGxRqrqBTuzzX1FR6FoaSaXG5osijSyGnbr1vAsc7uoOvkCPuS1CaQwm11JkdsX7stmncxN6C1IWh4ftmRRcHusqDHfHUAFT7M2PNlpPLbGrC2jB0dl+vJOKwmjsYBpe0CXI4uDOQM8DYZuVbTqpe2ZNGUyZfXFNhUynYcPH1Ju1mlXKo1VtRqXL2UY3VGgFVY35ZUj9ykxaIneNfrRxCYYGNRrTdE70fXFc1t+2OAtnqIRK+tB+FvmAM12K0m3Rf1ZoWdZMBYMPXna1ARymb46Y4uhC07ble2GqlpMbX0dpVxfV2c0kgAJVjeltLbpsMLFT/fnzKmpnMtkW8jl4KKid6Lrb06u22pUpJ5kOSDiXwdi6vsaFwAnlhH4bE8ItbBdMUmLLRvnGYOeZWFcwni9SAG9m50tyH1lCHKqGwDrbgvlLXK9Z0UPi4w6+drlMtmZC+6yNvbt3HmddzO1NRATARWxUKH7DzhrsHDJ/l8LjP4HfJruJZ/qLhA6GrARizU3T5MzHJCqEKc3aQKubQ1NgB6rOCbDXNTyBrDGrRsa8S81X7Gb0tzcnMnBcKWK0CS4MxQMPW7CeEqsoUW5rwzwqPRRBVkIZY2NHboxh0xDUxOlzHdyVpmqb5crrGlCYHWipSXG274E66d7slvk8uQQN5M2rIJ1kWJ6bipsxVGAtb9oQmisZA8CAMAKLpuvZAB1LdX+e/xm6Tm9SmxXe4agCWMV5tFsuKL9QM62YCgYeuKUSZRYw7SzaR3O8AoAkHHhIiXXi6zRemG51dJaSjk/J+++qfp2KVi7x8DLvnx2ouXMhZhL0+EDW83JFqTdq6H4z4zwbg8yVndubN/telvAtb+wCmnpLpQ4BDz1/bFwS4jVUVdThY8dao1UtRvo2RbowdC2CnbOvJx5ilyWVFsvWYWElvji/JlzF0zVt0vBAgCoWAQnXgmDfb35MNOdB2NNfRIDYav8L3C7q+fMlttF1ZTYR1GTccP5hhECiic3MfV9Vj5MWIFp30K9iy/KWIVyGh0nr7T2hMn65RbeX0Gb34XiljuWdaRP+WOsU9LL0KGnTiYHQ4eFh60lBztbkvvK1Lg4jut8A9uVSpBUm3QrZIS8RQ7ylhbKs4sXLprMiGqXNiwte8bCEgBY0sXTsClVXtHNPtIcnQ+RsQwH0dpkegCareD4N9gNRMpuYAh6qhp1WY5ltiXShRpVXtHNStVNPR8hidqlUQTgrqsvLWa9naXPj75a7QiVLdAlggWgEaIBg6IGAjwNhs6/k781ce4cSj7+/Xu/3WnNcXOzxWLtuAAA5VUS8O1lNG0VI+4WUuPt5Q3NleZ8xux2hfVn4VIFRsmBPq5f7wR6Hb3LIwKiWZ3iYTk/ma8EAHWuIbo/h1ihaYEzOg4pQ8UPheqbhupdeyQvIpctsZdhuT/rvlY7Cgj6atVeOX/mHMWQrg2GHjpymE5McBwnTJ20WQJ9O1pa8QhkHTgtlLfIobSCGoHzwd/fN5v+AwlWNyetsMGs4d1L4OxLf8YG4tIORvXO17j8ritISxgLnRa1mGIKgQPXy08aqnc8T0pxHFTfPmWomlGwqwcownid27+MVQcscOJxO3WXciUr6z3y9mzYqOGDOiPYuVIiOdz6WEFZZd/Mu22xT9bNO9Qte+tjhYyJyCLB6uacyZP8SC4bMrw/qGqgxnvVMT++xy5u18twaoz9N6spf93VVxhlOdYgLdYl7wMwverJvFu6mXxSiOWd1tzPyBD6TUNfX6/+H/OJsoO8Xe8sKKmTVSre7gN7KSYCW+W+WvfGGsqVZQ1NTZBzL591P9l5YqipozqLbtr4wYdM2iLB6ubUyJrPkIOhDRneG+WtmeQ6IC3RrDLMgJ3ZTLkcwhxpuaXvkZ1ZsbzTzFdZ/6HebUrPI0/nQlswJXMFcdRsmnlNvSPrAEg3DSnd+qj3/1pg01xY1orzZIqeIHE4FNG0Ve6rSonk8J1buZTDq9KKR3DhSoZBB1A68hY5/Hrjit5W8PbV7Ku/3/ud0ZYdCZYdUMYTUhxfDF14St/2EEff0qRgNgCW+7PeRRdt3B4mHfa0vJPtcJQyzoFlRscBAAC5TFOHtIpTOwqIt4/lvGxqnDmpeZRspNi178yKMHb1AGC0m4ZWZLulmmxkAfQV7bm/Df7e2mOY4trVq7uMvSOnorEF/9iwcRCoCMrRXkNTE5y7fBF+u3VDz7bVrmwHSU0VZOeJ4dzli3orK1ARLR9/uMnkfQVk7PqU8M/CyVI8Z7UH6PKyzBjQa2ZKOvWk8LUfC7benAxbdQ9aGgA+GQZE1AuACzXJ7NS1xYDl/AQELTXz1R7DSw/eacraHnSXcsuKIVLSHyz8x7DwRM/GJw6qLQ0AyQmaOwmHU7LyAnbtPxoPein14GfaJcFnpq4rA9CsGrfVD8zQXqcFAEAcWA5YXSkQ8a9TDxWkxRqBJhnaAQByvcZU7tt18RVz3xNbGuWtmQoXodKpuYILABD7+Lrw+6VDbr184NYscpZYLgcXcTkcN0Vbu4W+GYbR5sjy6OmpZ7vsaLAzE5Jmzul3+NTxe9pgbC2SmiqQ1LBzd6itrq5Z89baSwAAAYHCQF9fX90/LNeR53IlIzMr+Yt/xWufoRWWHUA3Qic810PPwUqT4YGaABBAs5oiTm/SCMfV/+jlkc9xjpaMSf5tjMLBlXGwU3BK0STKFrSlAYj9ywBWOmpu/klOAFjpqHlGE6ul+UF703JLGW1Z1h6+HZ/rNYbiQkCc3gTwlg/AlqGacbYMBdgYRjkVBNCcaA75NN1oGpaOQl9pLnAUD2xbjhc3vtmnteid6Pqid6Lr25bjxfuWjWZh6GOOMWHqSO4rpqhUqpIXX5jld/tq9tWO9uXt6yOMmxAfHzchPl70XHAgj+/srv3gHA43bvxYSgI1JFh2QNa9shSyQER5Yn6G6j3/9a2JV/F+jC3u2+ojMwZuvenHNnd8o7w103O3fAzZzUGH9oINGmpHATHvhu8OtvakmI8v+v6MD7+r9+JRrmacR/qLl0suYx70/OK+2e+roZXdRSZkUtIfLDT0B8JFXskTNea7a6MOYntIA431IZFU6FIBy+Vy/Z+lCQwJU+tjhYxN7itFi6KY0l7Rxvj6MoIgZB9/uGnEikV/mVb2sKSQa6PDUvKJKAASLJvxwc93389xjpaUCCJk2+ojMzriB0QQhCziOOev2jzwJ0txg0YjpUpdMnJnnmhpftBesnGcUsfBRX0Bjyl0P8AZTb6R58jFG3u08301rd6ojURLo7w10/vz3/mrfhcdMihcpPG0NwAdu1lmMlOmMWbuzIoYc9lvI321RecP9yG1g9M8107458UQJjckEwCyH1pjbpcIImQGRdEMCTuzQ1f9Ljpk7GcNACBTco3+bP655fMNHAxXcjBcuXH93xndhqNFpVKVpO7as7f1sULW+lghq6+pk9BP8Rj0UXwj69o1bftvdn61gk17AACpVHpm7WurQmdNmu6xZeNHGy+c+V+atLK6VDsvth9vD0/QfkCpbj6y/yAlHhIDANg2AtJXRYKFSbr/HHikwriuvMTCEoTegiQvgbNvb2foXdkCldKmFgnTewDZ4sp3jIvyd4ufM8h/IgDA8Vvlv5TWtxRYezwnnkPUkBDfGXMivSZqn2WVPM49fatoj7VtRWwQeguS+vl5xEzp5zUCACC3Vv1A/FCSl1dae6K7335kTyDBYog9ChYC8ayBtoQIBMJuwAEATpSglYM5mpVQ3NVzQCD+7OAAANeqwWBMF0LD9jzIUKqRYCEQXY0uA4czF2KG94LEWSL7ysppS/LqofhmLYhv18IzEemPQCAQCAQCgUAgEAgEAmGn/D+NAGdAfivZjgAAAABJRU5ErkJggg==;" parent="qUHYum_QUu2UJPCzKtRe-69" vertex="1">
          <mxGeometry x="34" width="50" height="13.67" as="geometry" />
        </mxCell>
        <mxCell id="qUHYum_QUu2UJPCzKtRe-72" style="edgeStyle=orthogonalEdgeStyle;rounded=0;sketch=0;orthogonalLoop=1;jettySize=auto;html=1;dashed=1;startArrow=classic;startFill=1;endArrow=classic;endFill=1;strokeColor=#006EAF;strokeWidth=2;" parent="1" source="qUHYum_QUu2UJPCzKtRe-70" target="qUHYum_QUu2UJPCzKtRe-46" edge="1">
          <mxGeometry relative="1" as="geometry">
            <mxPoint x="459.97" y="62.78999999999999" as="sourcePoint" />
            <mxPoint x="319.97" y="2.789999999999992" as="targetPoint" />
            <Array as="points">
              <mxPoint x="350" y="-6" />
              <mxPoint x="350" y="-6" />
            </Array>
          </mxGeometry>
        </mxCell>
        <mxCell id="qUHYum_QUu2UJPCzKtRe-70" value="kafka" style="shape=image;verticalLabelPosition=bottom;labelBackgroundColor=#ffffff;verticalAlign=top;aspect=fixed;imageAspect=0;image=data:image/png,iVBORw0KGgoAAAANSUhEUgAAAd8AAAIJCAYAAADkjzf3AAAACXBIWXMAAAsTAAALEwEAmpwYAACJrElEQVR4Xu19CaAlRXV2r/fNDALDDiI7iIgi4gLuaEyMMe4bMdFfjcYl+quJ0Wg0mrgk7muiRuPy4xKXuKEiKm6AgoKACAKybwPMAMPAwMy8d+/9v6+n61HTc9+8e9/t7qru/kqL++be7qpT36mqU+fUqVNhoCQExkYgjoOg39/G43cPgvAeQTDEZ4DPYNcoivdKk3S3tJfeO0mS3cMw2Gl2djbYuHFjwM80TYMYxfZ6vQC/b9y0adPNc5tmr8JvVw+Gg+tQxs3ItyKvGwbBJfi8Evlq5ME26ACdwbboHLvFelAICAEhUAUCYRWFqsx2ItALlkGoDZaFYXTUMBw+YnYwe9QwGByM1h6AfDdkyMcsxyHScDgM8JFlJv7bfLcthPg8n8vf4R+mnxqByu9uioLwt3EU/zoKogshis+ZCzb9Dg9k9Uv4trMPqlVCoC0ISPi2hZMVtiMJ092TOH5Sf9B/AgTuY1HVCgjIaJIqbYE67nujBDXLGQwGWwj0vDwK3XWQ+j8Mg/iEueHcD/HvGyWEx0VbzwkBIVAnAhK+daLdoLrSeNkx0F2ft2lu4x+DbGq2EbXZohBdSKgawVn8nASCxco2ZRWfQ500SVMYn5HEva8OBsMfDYZzF+KruUnq17NCQAgIASEgBGpBIAri3VHRabQa5wKssZ9RFA3RDgpi5l8j71sLiKpECAgBISAEhMA4CERBekAvnnk/BNZaCi2TmyyAuYBgZltyAXwnto8/Eyfpo6jJj4OLnhECQkAICAEhUDICSQqz7J+j0G8jz9lC1wiuNghfeFPPLyZyjZ7m57OxbX2chHDJXUrFCQEhIASEwGgEwnBmRRzPvBG/3kThmptn57VEI3ibbnq2NV+jAZtPCuRcG74qipKXQSPeUf1FCAgBISAEhEDpCIRBL0riZa9EwZkXMAURztZme7q2wG2T8DWau1lI5CboLdpLLHJB/GW4UfPolJIQEAJCQAgIgekRSJNlT0cpVxiha7RdI5z0mXlHUwhvQP4INOHdpkddJQgBISAEhEAnEQiDhMeETioK3dzs2lhP5jIWC6P2tXPNeBblr0X+v8gM2KEkBISAEBACQmAcBJJD8dSXke+kQDFORwUP4E4LXyPA7b1t43SWL07omMUjSg8eB3E9IwSEgBAQAh1GIA7S/Sl0jXY7aj+XgqfpDlVlaL9FHOw98Lx8nhGeRYDLN3S4S6npQkAICAEhsC0EZpKZZ+P31RKs83Gmp9LurXPC3A8+AXkv9UAhIASEgBAQAjkC4XL88Unk7LyuhG85wpdYUhvO8aQWfAPyU9XthIAQEAJCoPMIRAcCgvMoIGhqNrkss2yXyzELGfuTCxzkjyInne96AkAICAEh0EUEoiB5Btp9R9GhSppveZqvORtsByMB5vSI/gUy7y5WEgJCQAgIgY4gcBDayWvz5toQCrKh2jXN0AxYcv+O9Dk1UwgIASHQZQTCx6D164ohExsqwKZyiHLd5lwrvgN0vB95hy73SrVdCAgBIdBiBMK/RuNmzf6uOZcqM3M5ZuZJhbk5Q433qAVfgMwrGZWEgBAQAkKgRQjwrGkWk3mBGMWN1iInFXw+PG9bH8gb5GuQD2lRn1NThIAQEAKdRuBxaP3GwmQvYYtgIT4IYYsGasDnd7qnqvFCQAgIgZYgsDfascpErNI5Xu8EbnEBwKNI/w9ZR5FaMgDVDCEgBLqHwD5o8vXFu2m1x+uvAM63BGiC/nz3uqtaLASEgBBoPALho9GEG4ypuRDowTdzq+jJTeDGCQ6841lgRh1TEgJCQAgIgYYg8I+gc2BN5PMhI3Wu11+tFzzL+GTxiHvAPIakJASEgBAQAn4jEL6cWpMVU1ixmv1zrJpE06cJ+kTk3fzud6JOCAgBIdBZBMI/RtP75iiRHTaSWpVy8zDIeUkN+OfIM53t2mq4EBACQsBTBA4GXbcWTc32vyV8myd8TUAULqqQ5YTl6eATWUJACHQXgdPR9IEdRIPC1hwxkuBtnuAlz+xoZLkAflR3u7haLgSEABEIBYMvCITPwTx9PLTcaDgcBsxNSRAuY5HK5waDQVB8nv827TW/8d/me/MboJl/rkn4jADnLHxHAbx+LOD0kBAQAq1DIGpdixrYIFwLeAAE78chbDJ+jCvMfGmqTW/xb/571Hc27bZwNc8WBbL9vS/tnoIO3oL0gSne16tCQAg0HIHxVJaGN7IB5P8OWt3hhs6mar621oq2oBlDOhmxj/GTeQ3yauQN+HoDnt+Ex5bh38tgUI6h7y/H33si72gWISgjBDahrekWNeIG8HcUif0oDJ87GA6/1FD6RbYQEAJTICDhOwV4Jb36cZTzYhwryszNNMsyNcmsammpdCi6HPkMqPBnwXB+LvIl+Pc65LUFvNj3FrKtx/htF+R9IaSPwCcuKhjSGe0Y5L1RX9Zvm4SR3XZjDQCvb8L3bN91JfUlFSMEhIAQEAKLIRAGEff95o8V5cLIq+NEJqqWfaFDIYITBe4pMC6/jIJxsTaX8DvqyK5VPAl5DnRlgUhMUAv7bx/xJE12xDL8+4QSMFERQkAICAEhMCYCe+C5a32PVkVP66LgpdCjwIU1+Dh8ZiZiR2lnqMCvQ91nIPPGpwHpNWejfRW+pMuikVdEPt8RfqpWCAgBIdApBHjh+i1NiNVMGq1IW7SJfx/5aA+5tWcURG8HXVuck/ZVABNXSwBzH3wHDzEVSUJACAiBViHwLrSGx0wywWaiWfkqKEgjaKOD0Gt85wL2mnkL1LU+Y2poo0Uh53k/CcO/9x1b0ScEhIAQaDIC9O6lo00xAH/te73W5J/VbUzgxszM7/IAH2dHQfiYBoG+PbTgD4HeWdPGhT5dLXhsrHPaLgUtKxuEsUgVAkJACDQKgU+AWppvaxe2xTqLTkq2AMbfc9hPPXUmSZ6Fz16jEM6JBd04Px38rNCueXOvL9ox+ZAvci4ErXdrItaiWQgIASHgMQLhYSAOZ1vdC14jkAwttiDGd3ekcfKaNAp55KfxKQmiY9GIXyLP2g5ZRc3fFV8sS0MfC4Z/bTzgaoAQEAJCwDMEvmucrFxN9KPqLQjei5IwOiINEMuxZQmC7W1oEo9G2fftemGBsI5v3Q76eMZZSQgIASEgBEpAgCEF5yd+F8LXPjLE+o3Z1TK/fhcCavsS2uptEWjfE0HcbcW2myNVLvhieJFr4tySUOhJb3uQCBMCQqBpCJxQFH51T/RGwzVHXIy2le05htGHY0RhbhqoS6SXoTxvLB71crUHbFsechruAH08B64kBISAEBACS0cgPBTvMhqTc3OnEbyWk89sHERvXHrbGvvmfqD8qhHavxMzdIGOPrzLtffb2K4lwoWAEPAFgU8as2Z+ZtbJBF/UfAHOxUkYP9gXkBzQQQGcnQl2GWnMtkBYzlc8jjbjABNVKQSEgBBoDQJrbUer/FiJEwFsmVYR2CHyMVJVrUyHnf3ZDEuJSp0GOzF9wvZ8hrP5M2sFQ5UJASEgBNqDQPQItCVztHKdt4jRHIQfbA/GU7fk67b2a1sIXPEsd776/NQtUwFCQAgIgS4igNt+jnc1gRfrtUyrX4HGl3aRHwu0mVHHyKfshqlC3GUni6bcQoF7j3XsSP1UCAgBITApAowMdadPwRxAz3kQvIqiNIKTwOW9xf1XVwsno4knUfzqSTudnhcCQkAIdBoB7Nk9n/uJvghfMGMdjhPR81ppNAI8anWmawcsCnzLR+A8MUsICAEhIAQmQ+Akl85VZhI3E/lMEr98MvI7+fT+tFa4OvNra9o5DfQXeGAnOaFGCwEhIASWgMA98c4m10dYrPO8P0Kg5mQJ7ejcK1B/X+OSbxTAxlqSOcmF0Ts7xwQ1WAgIASGwRAR+6sMEnmtPG6MwOHCJ7ejia3RGO8vldkEhIMtlXWSC2iwEhIAQmBSBPfECPVXtvTtnXrPQ5L48aQP0fPBXwMDZEbFixCvQonCT6pRCQAgIgW0iEEVPcyV4zaRtBWsYJFHIs8ZKkyHA40fX2nGX67ZkWPvOA1wx9fTJyNfTQkAI+IxA666N8wHscBg8BhN1MBwOcVVBfXcVmDoxaWcwsH6k784Nhqf4gEvDaNgAzv0zMWUeDBgEq95k1Ukq/rTe2lWbEBACQqB5CFxajJhEWVh1tvcJzX4l6HhQ8+DziuJL7MhgDveBrwEq8JlTEgJCQAgIgVEIcL93joK27vOilsDN6k7jhJfHK02HwHHkpx17uepF1ALlz0H7Vazn6Xipt4WAEGgrAmEcP8M+JlKnpmTvTwLfc9uKsYN2XWprvy6Eb96PLnLQdlUpBIRABQhoz7dkUOMwfHi+15rtuZq/S65m0eJ6cfJfiz6kB8ZF4F/BR3o+O+Nn7jtwCEjYf1yi9ZwQEAJCoEsI/MqFZsQ6rZCEPOa0skugV9xWxug+t04rRrEPzXuxB+GzK26rihcCQqAGBKT5lg/yfcovcvwS6ekML90f4o2147+lJxdBYBN+Pxba7x11eq/bNNHzOfO8DkKFmlR3FQItQEDCt1wm7o7iZsotcvzSjJk7TZOfj/+WnhwTgVvw3E9cbSMYGgfBgKZnjdsxmabHhICvCGgQl8uZe6G4+g72jqAdwmHY7/d/UW6zVBoRAGN/5ErzpUUjF/wHgJT6Dx2rCwgBIVAqAhK+JcIJk+B9MDk7E755kI31/cHwzBKbpaJyBHBQ+wQublwAYgVs4YUdzvqYi7arTiHQRgQkfMvl6r7lFjdZablc+Ane2jjZm3p6TAQuxXPrxny21MdM9DIUyksf9i61cBUmBIRA7QhI+JYIOQ4WHeZIMTKtGKZhpFCSJfJ0RFEXVFv86NJNv4IQZpQr7vsqCQEh0GAEJHzLZZ7ra/tCTNJnldsklVZAwNn1fiZmN2zOdxdXhIAQaDYCEr7l8m9/h1u+dMgZzAXDc8ptkkqzEQB/17hCxFy0EIXRPVzRoHqFgBAoBwEJ33JwZCm8gm47x2ZnBte4ubwmqaQiAhC+t7pEhdpvFIba83XJBNUtBEpAQMK3BBDzInbA59Cl5ov6byqvOSppAQRmXSBjFnU4RhYMhsOdXNCgOoWAECgPgaS8ojpf0o4Uvo5RkPCtmAE4aOTkjK11zhfCd7Ci4maqeCEgBCpGQMK3PIB3RVGuLQnXltcclbQAAk6Er31ZB+iS8FX3FAINR8C1sGg4fFuQv4IBNlyanXtJemObAPWxLa40X4NF3r/u5iM2okkICIHxEZDwHR+rxZ5k8ANnV86xbkzMG+COw3OgStUh4ETzLfQtOvcpCQEh0GAEJHzLY142ITr2dp6DCHYmHMqD0uuSsnt9XaTsVqPN0Uud0eCi3apTCLQRAQnf0ri62eTs0uyMpswNgr5rp6/SEPW0IKdxlfOzvlpgedo5RJYQGBcBCd9xkVr8OVcx923KlsVhLJ4uzqtpnnDmpGhdrqAF1jQc1LtCwAMEnE0kHrS9ZBKGs27uu7mrGZict+sP+9KKSuZsoTine+r5BQubqm2iShcCQqBqBKQllYfwnSjKqUaCAAwrYhi+y2uSStoKgc0XGzhLuU/B7c4IUMVCQAiUgoCEbykwZoXwqjm3wnc42BE3K5XXIpW0tewNAifWIuNLwM/YcYhLdQshIASmR0DCd3oMTQm38A/HDlcHweYsnpbH061KQlxlJ5qvHWQjjuOsrykJASHQXAQ0UZfHOwa4cG3y3Rc0OBEO5cHoeUlh0HNFIRd2DDMJn3pdnuGKCapXCJSEgIRvSUCimNuQ4XTl1OyLqTnYq7wmqaQiAthX394VKhS+PGqE2M43eLDQcwWD6hUCrUBAwrdcNl7t0uyMuqMkju9ZbpNU2pYIDHd2hQgFby6A/wAanK7yXGGgeoVAWxCQ8C2Xkxe5FL5sCup/ZLlNUmkFBPZ3iQgE8LA/HF7lkgbVLQSEwPQISPhOj6FdwsWOzc7Bxrm5h5TbJJVWQOBQF4hY0dN4jvtqFzSoTiEgBMpDQMK3PCypdl5TZnFLLOu+eE98XSJ4i7y2O37nvc21J2NyRsWrke+onQBVKASEQKkIaJIuEU64Ol/nWvNFc3ZB3qfEZqmoHIEojI5ydWdkHtmKlFwihggBIdB8BCR8S+QhBO95KM7pjTOYpOMkip5cYrNU1GYEGDrsKa4XV4hgxj6mJASEQMMRkPAtl4EXoTjnXqhzg8ETy22WSgMCu/aHg2e5RIKCP0nic1zS0MC6efaeZ9953zbPaPPqz+XIK5BnuKhqYJtEcgsQcBIqrwW4LdSEWfxwIfJ9HLeRHs97Il/vmI42Vf9VWBV2YoNcar/9/uCUNoE6fVt4j2e0ZxxF+yD62D3BnEMHg/5OWCjxPPYeyLvlmcKWgpcC1wSi4UKZGfdgBxy7G5AZJpYBc25lTqJ4Dfh+3TAIb4Cn20XYe78kGPZXTU+3ShACQqBUBLAv+BEUSNPzEIM2G9zmMx/oZsCX/sl6EAEpq6+XJG8qtWFdLiwMn4rmD4hrXbxcoK9cYQmOLnJktzBKnx7Hvbeg8V9A5kKXQjMbb9ZnxqdR/Cp+b//bHq8Wn+ldbsrm38wU0L9B/mIcpX8Pmo7B3xTqsiR2sVeqzX4gkCS953ISQPzdTLhSGFYtdE35RvDmddIxR5aNcrrFGWYR5Ur4kqdpHP99Oc1pTCkxhNuj4jD511zYUcj2PVgEzY/pvD9Qc6ZA/hYCgL4In/SKVxICQqBeBML9zArcxSRh6swFMLUDpWkQCKNjbX7WtZAaUQ8vU6Ane8tTtGcS9Z6PrdiPo6HcNumbRaWtpda5qN0Wz0dozsaETf+PD8HCTa1YSQgIgZoQWG8037o1JTMp5fXOJnF0WE1tbms1X0qSpNbtgwUm+5PxfasvzYDQ/Qe0kWeYZ22Ba//tcPEztgWLY58052ORZuoTkXX8r60zhNrlFQI/G7WXVPXEUdQM+O/ly5a93ytkmkUMHXZuW2AvcOzJuAy+zyTJO7Ch2ELhG26Xxr2/BUbn2ZYi479gC7Li72XgOm0Zo7TxIp15/7kVodc/FsfJ/dq+iGrWEBe1rUIgiuLXm5WvS/NYNujD4LYojuj5rDQhAnCeg9kwc7apPdvbB5sd6OJjJyTf68ejINkvCuJ3g8hb6rYOueCnVSc14R/jfNNLpQ173UVFXCMRCDNTb+Yd61L4csBTc+il6acbiaNDojE5HozqefSkdsHLOo2pNa+fVwhu5xCOUqoOgzhJ45lj4JT0MRS4kX3ThV+EK56aeq05YRO++zwytWElISAESkLghwXnp9oncWOyQ3vmsPf7wJLa1ZVifuBy4WSbM+Mw/ChAb6zJOQySKI16jLp2Pvsi28Z9dGMd6pjmO78gtxbndNL6DvL9uzK41E4hUCUC3C+8vaDB1CqAzeDOhciZoEfnEMfgeBzFz0LAhvnjYi40JUv4Dnpx/NAxyPbwkSRMohkKlJ8iZ17LtsAtHI2rdWy44Kmp04zLEfvFPLP8beTDPWSmSBICjULgCy5X9azbmPb4mSbpOxuFngNiYW5mRKRrXZtDrfobeHdviDCOEc66htwzp0DpjGAtqa08z/wZ5CMcDAFVKQSaj0AaJ09wOYkbwUsNIz/6NAuaHtx8ZCttwTftRUtJk+mShA/5tiztvbXS1lZQOJypnoFir3HZ913ybdq6LXM0nbNOlSZcQSdVka1HgGbeS6cdjNO8b0fays3PVyIYriLwjOh6iOP7Ctss6tpqARI3wfx9j6aMkiTsPQW0/g55YBZ8LvfNpxk3Lt+1t4vyPkjHrLcjO7lLuin9T3QKgS0QgKb5YdeTuB14g7TMpD16myptiQAXJOuK+3GuJuG8z3CfvhEJATLoUDVXXLy47PuueDdtvWa8FrzBaYr+FjJvZ1ISAkJgMQSSOHkUnpm/aKHOyagYlo+TQj6wN8Cp6OjFaO/K77AE8GjYdaMcYaadSMd9v7hA2ny2N3mz7zzA8aGoF/deYBYubK/tSFRnfx8Xa9+fs831BdM955H/Qd7V934h+oSALwj80vbsdDUhFcL0rU7i+FBfAHJIB68J/IO1L76k/dlpJnQzwdp79CjvVjh/eT3JQvDugDO7/8nFZYH22jGcBv8mvGsWhvk20mWgWceSHE4aqrohCGAv8c9B6pw52+hqsNuORHm84lUIwPH4hsBYBZn0bD4bgje7Ns7VosjWbswCCWd731VFg8sqMw7ifVHWL4qLSlcYuhpTddVrxq51dPFO1P0fyB24bKOsXqtyuorAr10HFTCTfOF85RwE8PvTJIai1alEwXu6ERauz2MXPKzviEJfA/GHYRIkRwK7K4vmZZfWg7qEoKt67P5h9VUe47ocWRasTk1dauxECGCP9dHUfl1O8ka7sydNi54vIZYxLwTvQtqbGq+Nh0vN19RtPNPjIHwfvvNuMRQH0Q4z8cw/g7ZbRu1RuxJMXai3uNCxF43kB/IjuzBw1UYhsFQETjR7N75MGMYUng/mk3EpRMuPIYUHAvvLCo4sTvcoSYu5thC03Yrs3V5vFGSXc5xme+D6hKEv46kuOozwtXhAMzTPVysJASEwAoH98N0GX/bF7NWzMYmDvmugpT+kjdyLo4THYW4xAqSuiXKxeuywi8vSmX/yEHvuK55htN2i1rtY+/R7+RG+7EW89TdjRD/fw/4jkoSAFwh8xZfJiIM2TdPs+JEdjAP08UJz3urTmpREyZ+gMfOOVb4Ff8jpYXCKvTwE/fPoK/PH5dh/fcPPlzFVNx02H3LrCft4q8auh+NBJDURAWzkHQW6vYh3W3Q2sh2yQOPVcRQ9pYkY2zTHYbJfL07eh7atsx3NLE3fqcnZmqw39pL0Sb7hjX3eFxQd9Wxzsy9WnLqFnuv6Ru0BG6cs0EZ/BnlB+zaYRI8XCLzbmIoasG92ATyhn+MFamMTEeP6vXAFBO+r8MptvgkIm/dmQYBIaP8Oc79XTlbY530mF4q2mdm10FH9i5uw8/7+S2DFm9WUhIAQsBDg3azfslevvk4q+cRLk+NpuBP44U3gYhr3ng06LzDmdN/2eMnrwqLr8jCMvHKyQtQv8vpO3xYuvo4T13QtwKd1oOuxTRizolEI1IkAL134MgWD2W91PYBH1W+0tJxGCuHv4O8H1AnUtutKEtwzjxztnMTpi/DsubZgM97cPgnggnl/thenj/MHz4ySQ5DXal93cS3TlzFbtKBZwpgC+N6e9S+RIwTcIgAbI0MbXumzdjFqbwk006vyZMStZuQuZ2eD4yjdoZcu+0uYR/8bdNw46uypwdYn4csJ2zpf/Sm3vXDL2tEnGef6cg/3xH3Zm/eaDtPf7X4Pfl6NzKNiSkJACBgEoLIdib+z40cFj+MmDHJqwhuQvwqtk8d4cIl6pQnm+ujgOE7/hnUi3wHcnIaGpCBdLBcnREvwwtycLcD8SGFIDVx7vGPwdDGeu/69sKXFxfKvkZf50dFEBRHwysGjqyzpRdFLNw0G/4kBw5TBMBhQpvibDJ3D4TDg3/gkwbx39JSZNPlVGMUX9IfDS/v9wTWD4WAdHliPPF6jwihFsI+94G29L2zzh/X7c4fODfoMjvEg5D1RX5LXOQ8Q/+0rZkWsSDTw2ohGPnJ2MPiVJ1zmGXRO0LthcdCIPugJbt6SgcU8+5nhJQXwF5H/j7cEd4wwCV9/GH4uJr0jmiB4s1Vbvkgwf1Pw2d/l3w9zgWiOVq3B94xFy+v7NoVRtAmfs5ghon6/vzO+3wf57nlm35zvn2YiYXn8G89nnKOg4ARjJhl/2HkXJfZCwfr7c3ji+R7R+3nQQke1xAjfpvRFjzD0hhTTzwoLKQrghyJzkaXkGAEJX8cMMNXDnvogiJOfYbAs93nSs7U4Qzu/M4PdFjSjNChLU54X1ua7ojZrs8Yu3/xtC3yfNV/TDuKRL0ZuAmRHY81wqSfdjxaF04BhWsTZLHI8oVNkjIkA+chFKvsbx5cZi+AnjyA9Annz6lVJCAgB+Oxujs06x/0an89WFvcw7f2lhX5Du7K9UfOs/fdC35l3zOdCDlW+e+UWeLkJV0w+AavezbZd94lHnLJY16PwLfLAp3+bvratfmV+y4UNtz0odBjB7Sbk1chrOeby7/ujyrT7tOmrPo9Pq83z480aY2z/v7nvdqJAmq9nfQAC+HWDMPx3kBXimMy8edV306pnMHpFjrEM8BNXBb5+bq7/PqxEfNA8eN78UxAkzydgTepjxgJjb3XkVgUKWC5sbsLkdio84c/E5sXv+sPBRfjuemTeAGQSn6OTIIUvLU67RUF4KPK9wZ/9BsHgYHzSKpBFiwJO8/Olvc3h85aHPRAsqxX7HrVfasFKQkAIGAQwI77HHPWgB7Tvmh3nbeWFMbD491/AyRuPU1w08UTQ02+Sl73pZ8Zj3NLYb4Ik/RTyU/FM2cdqDkK59LD/PvJGU6fltd6I/m/fSIV2XIW8UrOuEBACWyPAs6vzx2hsc5gEXeOE/cY0Sd6CCXx7jzr6CtByhVnkNU2QYDxwbNCR7yRoqtyu2Q65DlP+CoQBfT406m+gvrXI2TZRU8akFdSH2u/HkFOP+qRIEQJ+IAAbFyM23WrvqXKQ23ukTRn0XaKzwK9Z7PE+A7ys+gz0hJ02eh8Xd8U9el/4ZOgq7q3m36+CdejdkLQ8HlWHwB2JLSqeSYLoxfiRJu1sv7g4Nn0SzDZ9Oa40t799wo6jx4VANxDApH00WrremLr4yWsAfZkkRcfWWrjt3JLE8Qt966lRGB9Ojc3n7QyjkVsmXmq6pyD/kW94cgGAccpLKC6kEDa0M7SpT8K3OFZz2oirzv562KlEkgcIYIXNy+1vtSckCT1/Tc/GhJvG8cs96D6jSPiBz4KXfdve08W/z4Nwe5SnWNpk9ZIgfgW+uNm0wWecrUUiHdFotlcSAkLARgATD28PeCkGMs1EcsBqgIMXeOZVzGbTn0AXI4XN5heve2tBoXUn18x+Bno9M9lve36CAGZ87Bs4Vn3HOV/Ec155iWZdISAEFkbgs6P2laQFe6cF/xw88fIyczgKvbchfWgjFgr/Ahx3aOKEANqXYT/4jaCdsc+9XOQU+sHFoFNHT5vY2URzbQh8zD7qYMxaPl9L6OvksxS67Amr6MCSa2rf8lVgwPHrKNCW3dHr0mnPdvKyfRny77Mbs5CPrG1EVVhRHGQhYy+0vcrZ7+y9YFf7wqzXXLkJmuj9/LcVQqGihUArEPhnDhazL6azwPVqFvbeu409jrx8CHzZ0dMethvousW14DWCxxb+/DtfPK6G6vXHnuK3ZLLQL3is6+vFhYYroWsWnWbhbvozvl+FTFqVhIAQ2AYCz8Fv65Ezr1WfHTvMYG/LpxEWluA9Mw6jh0JwOLvbeIyR8l48M7DP87qe/Ava9/mgj/vRrU1plLwTbc7O7vuQix7lnEuQ39RaBqhhQqBEBOih+D/Is64nUh8mkzposE3+nEjjIPwUzpyuLJGnVRTF4B7rRph4nQgB2+ycLxppZt6jiob7VmYaxs9HlFEvAnOYxY9ZkOW8oKe2PJ996ziix08EcBTptaBso9HEzCRbhzBqex1FLdc6ArOhF0YvSoPQZ20367C4G/kf8ME9PSfCdlS9lrXm212b7NMgejravMXZfR94YwXeeL2fM52oEgIeIgDt68Eg6zp7H9iHAd10GmytwBK856RhdBQm0ez6xwakq3yyjOQLGppfv4nsU8jN2liJ8bobtilOcen4Nmps5nvvPCbFSzeUhIAQGAcBaMD0rNwkz+fyNDzbipALsN8D48YcfwnDhB7O2V6vLwuhHEcGdvDeajDOuFvqMxiv++Bdxqf2hjf53EGaHr/Udum98RBwFhd1PPL01CQIQJX4LZ5/CC7MzmLNTvKunh2NAITW/A+4Ou478Fx9LL5Y1xS8emnyDEyooU/X3oEWTu7PRd7YFByroBPj9Wr0rr+z+1gV9YxbJungtYxYHCWg6ynjvqfnhIAQ2BKB9+Cfm4y50Q7X58NxE59W+8VzpwV84AEafhHxkO/d0A52pe3h7AL3Ap40N7+goVhWQjac9nhEzenZa1O/1Vdux3c7V9JgFSoEOoDASuwrvQXtnHfuKO5hupiMfanTFgojPIFpOTivF8WPRlQob+7gnaTPxnFyLJ53HpLU3CMLWq5DPnKSNnTkWe6v/tTugy7GSCGeNvvN33UEfzVTCFSGAI9xHI88H5jDJwccFxONrWmY/dAcE2pm16Vx8jI4VTVS6JpehLPHH7e1elc45/gyzOIjK+vhzS+YQVBWuXbAKghgbmMpCQEhMC0C0ILpEf0DakOuB7krQVCs17pcnE4vN6VR9OYkjNrigbvGhy2G7FhREDLOsdI2EMA+6+Ncjku7r+QLJlp/eF+xkhAQAiUhQCH8XeTs7Kc94It/F4VV0zTmoml5xARD55/v9uLkmRC6K0vC13kx2KN+KPlrB1Koc8FT0KB+iroVtH+8XsHbsDLvZxd79cXxAjroXOjlJSHjwamnhICHCMRhcEQShW8DaWdzouZgN/tzJmBHIfqNN0cixhEk9jEh0y4ruMMdkAafxZ7u/ZIwbN2Zxl7a+7dxMKriGTtsIcq/E/lgD7u/ryTxGNsqc1zQhQAu9AkuTuUg52tvEV3NRyCOwkfA6/KraMkGM3mavVB7T7RJmq+9cMhX9NzPvRg3ubwWeljbPTnPq0KwjlOmrW3L3Dz53BCH4QvsaHWuxpx1Npw3dSkJASFQJQLYd6KWco7RhDnZ+uC0M86kX3wmp5umdZrONiRx/EYcZUyqxM+jsjMvZxfZEha3on5fb3nyiFVbkZLimxvJO0+CozTmXLvPTBVtQmAcBEJoLH8Csyw9pG9B5kSeTeauVuETChFquMyroc1/BCbYZ0GT6IwQQOD++3HxNCFmpQlqy9zP86sK5DPOiCs8g7uX/90IX1cCmHzMzd/sS62+cWoJLNIrQqAWBA6CIOZVY5dQCI9wyiht4h5XYNg08ELwfFHABcJVmO3fk0TRI/DZyYm/lyT/4DLEaF43td62m/arHHw7ofCrbb+FccdGmc8Zr2eM/5dX2ViVLQSEwOII3AuPMHDHJS4neMsr+zbQ8rM0jt+WJNEDFie/E098yZW2NK+tBeE7OoF0hY2EwKO2yUVM7Ytb1mmsXPk4/1qFTVXRQkAITIAAgwL0XQlgs58Lj+23T0BzVx69zPH2AD2cd+8K2FW2E+bnD7saY/MLqc2XcnD7SalEBDpplisRvy4XtSlfkTvDAAImirA7rbQFAjyqsp9jTD6N+ukwpDQlAnOD/kdxUQqFn7PEyxaQ7oZ8gDMiWlixZq4WMrWmJtEJI8wHZk1V3lUNb+lhDiV9t8AepkpeAFFbQAssgHgLznxG3ZypP1h7h2hvhRejaafyxqECzpW3mPVlYwyfSJQV96+80g5VIOHbIWaX3FQevneehoNhtixX2oxAmqT3xWRZm/C1caeAwP/+Bd/9QfwoDwEEgfm0JQTLK3iMksxVlOAtZcVhY7yiR8ZEQMJ3TKD02FYIUOg5vyfWp3tqfegjMMTvVycmRijwE+bR9YNg8F4fcGgTDXPD4Y+BL1OtzbJ5m1u49qmVgJZXJuHbcgZX2DxqvvXOBiMa45yACgFeStEQgLzBqtbESRpOQbR1/wQVcztCqVwErkJx15Zb5PilZRaNTPGVE934qC3+pITv4hjpiW0g4MjCmVHksm5fO8Vcf25vs1dXJ43UjOCZ++M66+xSXXEUfafuPm+Pr1zrPgg0tC4Ouqt+JOHrCvl21Ota8TTnH9uBZjmtuLurSRqeuWeibu3Bl8PHLUsJoxP5RZ2mZ9vsnAvi/atoWlfLlPDtKufLabcTxx6LdLhjujd9lwNlaaU4MTtjouZ5mAvRCi8c8UpD05OC+v25XxBjF+RYAp/HjVa4oKGNdUr4tpGr9bWJ4Rydpey4EXQBZwT4WfHKOjVfyzTJvrDaT0haQRUjXV1T91YLtxO432sJ4O1agaYHjZDw9YAJDSbBmfA1Zx6BnYTvXR2Imkmvzj1fa1JWUI1qBzItCqfXea7eCHpzpj5vHmNOK5WAgIRvCSB2uAhnwpeY17n/1RAeZzc3OcLljoZg1Fgy4yD6XZ2ar+lHVn+ivOACT6kEBLpyt2kJUKmIEQjgCKJzxdM5AR71jGWgpfaz13kf0F5vxR0BWyyZWd/xmGP4UqUSEJDmWwKIHS7CqebbYdwXajr343gbTW3QWHU5cQaqraEeVAThm5n26+TviGYv9wCKVpAg4dsKNjprhISvM+i3rhgi14lJMBcG0nwr7gsw8VwFrdf1US5ZS0vis4RvSUB2tBjnE259Op7/HAYWhCODpC7tyDKBaiFWfRdZUydvRzUHnUtBNkris4RvSUB2tBiZGj1iPDSjjQ7JkfCtHvzbua3geM9XwrckPkv4lgRkR4vhnb5Ok6sbfJw2euHKNzicnF2bQz1lSalkcbHres52XX+pgLosTEC6RL/5dTs3Oxsza/OhnL4F0HxdWiJ607dAJYyBgLz7xwCpCY9I+DaBS37SyL1FZxOBZXrTtu9d/YNRkLL9XgemSQpf8aLaseoDvi4XeNWiW3PpEr41A96i6ih4fdjn82FC8oWtN5EQExC/DqIsQa8jKNUDvn31VWy7Bgz69a5paEv9Er5t4aSbdniwCpbstVhPh6taeWJp2DI7Vz8Gd66+ikVrcOnUtyhxTXpAwrdJ3PKP1lonev+a7yVFt9d1zMi0Pq8vldm58v6wMy45cD1nS/iWxGbXjCypGSrGEQLycHUE/DaqzfZ960qWoGeAD5khqgV+/zovVmBTjKzP+cytJsXwLonHEr4lAdnRYtzv+Wq6L3a9Wm8Xsm68ofDVfFLtRHBotcVvWbq5StDa16fw1bWRJTFBg6UkILtYDOSezM7+Mb7WydHSfGl21l2v1faHo6yrNKutCaWbhRXrtKzdN1decUcqkPDtCKMraqYHmq9UX5u3SZzcVPcxo1wgkBH3kOm5opG2udgH8T9189eqk/u9d1bawg4VLuHbIWaX3dQwCAd1O/cU2jCU6N0SkTiOr6/TJ8cIAvaDJIoOpmwou5+pvAyBfZFrP2pkTM55n7oBNEhmlNQhBWRJQHaymDDouxS+ucalyd7qfLh27jIX53xZZxRG9+7kOKih0WEYH4v+HtU93ozpOXf0WlVDUztThYRvZ1hdQUMx39btfVlohdMoWxUgOnWR4Mc1dZolbc0Xgv8gaUZTs3BkAZC6DzFaaF38ZT1JktgR066ppnXdLFV3M3aT7+W0OgxmYXp2sgdlGqCLFbZkZb/f57VzfUyctdw+YxyAuAjDubMHoG4dPytndG1RSn8w97C6tV7WZxbXNDtHQbhqbtB37+dRAb4uipTm6wL19tTJSd5Ja6yJSJO9bXYeDi+qmyGWmftwmCIypyClUhHYC6Xd2+BcpxA2wjc3P19caqs6XpiEb8c7wJTNn6tzIijSannZTtmMVr2+Fq3JYjzXlUwfgHaUYCn2KdRbi9ZdV/tc1wMP9r80mFIY1rXgLfoO9IeDP7jGok31S/i2iZs1t4XnfF0J33wlPhxiMlLaCoHfuMAk7wv3Qd2Pd1F/W+uc688910Xb7NuxMN5o4rrABR1trVPCt62craFdcAJxFmQjj74zlOjdmtFxGP26rkXRFg5Xm7cgOKe8rIbu14kqoii+H46PHeGisZkH+12hpOlLcK0LOlSnEBACdyEwgxn2j6D5noNJnjNu7RmTwpB1I6+No/Dby3rpP83MpEdEsfPA8877CZzgHgUi6BhTOV/IB4sXGU9QLxdltYZCdA56RQTEUXI88a2Dl8U68vGV8Re/fauiJqpYISAEtoEAQgfGD8dZwzfjmdOQGemG+71OJoVtTESc9C9Lk/RdM72ZLjv+8AgWA+A74Q/7BRZn/6kRNR0CODd9FARf37XwJT+TMHrddK3R20JACIyFQBTED0jC+C14+CTktUbY2pqOq0lhIaGSTfq5JkZ6ka/txfH7l88se3KSpDuM1fD2PPR1V8I37xcMQ8ioTEpLQiDcHa+tgcnZWBNqX0iZ8ZQvsu+3pGboJSEgBMZGgBd2n4A8sIUrDttng99ou8VPVxN9sV5jArWE8CyeoUa8HgL41WOj0PAH07T3Jpc8Yf/AdgAXb0pLQAD8I3bOBG+hblpR5MG+BD7qFSGwKAJxlDJAwn8hrzOCi59cedsCzayGzeD0yfRs71GZNpB+Lhysvcjz0jh5RRhFtcfJXZQJJT6ANr/IlfC1Fj6XggbddDQ5X5fhlcvtPuyCl9bY5laTkhAQAmUhEIbJvmky87co75fIc7aQtYWrEWrm014V+yZ8F9IWCpo6NeHbsaf28bTXO7wsPH0qB7z8hosJu9hvEBWJfgJKEyAAD+c32/3V5RjLxnwQvmoC8vWoEBACCyEALfcQ/PYxZDpObaHdupqwHdZLs/RXl830npEkMS+Eb3zCUaP3up6wzUIOYN6GvE/jQa2pAbg59wjwboPD8VDcW+ZpvrvX1HxVIwTaikDM+1Y/ibzJTI7GocPWaj0a+JU6mZg2EwO0mZPMTb0kfQO+X97EHhCFySNB96mueTli3/0HTcTTAc1c/P3K5cLJHvs5HVykKwkBIbA0BKId4jChA87tZs/W9qI0g9037+U6FgG2h7S1n70qTZJXwdw2szS8630rjlNGlfoZcnYsJXN22rygcJJtn4G8T9Hz/JX1otK02iIYXpIP2D4Vrvhn1bsafzdyIdo07oveFiKQxL3noFmrFtq3tZ2UPBjstQoLM9GN2l/LhcbFcRz9ua/dAnv2O+AK+w+Bvk22tuvDImpEf6P5+TBfsXRNV5r0jrNM9bWOg6K2a3iXRvEHXeOi+oVAoxCAxpakUfpiEH0lJ2YfBnWDBTvN0d9J0+Qp2I/zJRxrL4myY1M3WZ7FzibsxXhr0cjA/Ps3ajDVQGwcxrRccHEyf7JgMUyr+t3SvPuI1HKvGpqvKoRAexCA8P13tKZvmx5dHtavaqKouVw6p30M0pfHQFwmLgBORt7KO71mPCYS9lZfpCmzawFPttVfeKc6L8LItgpc7/daFpTLXXZy1S0EGoUAolItw2r1Q8XzgcYM6Xpg+ywcFqLNWA3ySWkAfL+ICyV4v2rdaQba7gtQ6VkUvPZ2gWsHq8X4au+r589+s27wfKwP19MncPB7K/HhWXS7ry2GaVW/z+/XB8H7fcRMNAkB7xCIg8zp5rziHm5BeEykrVQ1wJtUrnFeKgiQ65MoejLawRjKNaSItwTxRhle4WgulBh1oYGX/LUDteQaMM9Zf7w+/Gpg0YRVcAsDgvclxUWUyy0iaxG3Cc3Zf8Im6XEh0D0EkqjHaEbOAuk3SZhOS6s1Qc3B/vthlFeZGToM4seg/HMpdKel27f3cyvMR0EXza6dSlGQMG7zl10K2lH9waLnK51iiBorBCZHIMLeWciQkAOZlOs7VmM0OeKOTDMwz0+XmCI6unyPQtd3k/JShLrl1EP82H97JYLndVFRkLKvnG8fx/Jl7OZ0cKFHK5qSEBACIxBYDq3oFfj+zhH7aV6aHpcySfv4jn08ydIUrsORpOdN31Oje6IMXsU3ZwS8b9pRWTy5SwCHnOx5V2zLz5PiWo942ZFo5zXFADdlYTptObnw5aJPSQgIgREIMPDDu81A40D2wUty2oHflPftPTpbewH9FCKM5LSEwBzhEXiPQTKoCc5ru23lrb1gtIJw0OP3gDaOeJzFxkm1mePQtnX2Ysrev/ek/7MPP7CNPFCbhMC0COyIArgfk03QngzYTtNhBEnuSMRITr9G3ns8RseMmftFZL5HwdtJLDMhFIRs/1rkp42HXTOegmPV3aIw/pBtyfCFz2bxaG1t/G8zUBWVQqB2BEJqvJlJUsLXL0FlBZLgRQ0/XaxrIA4zb1NiYIXsvK4vE7ILOmyP8nwhwgVmZY5si/GmnN9jeMKH9Ib/QvEokQuMR9Vp+l3+yaAaf1xO21WKEGgRAtAMnonmbPTQVCXBkcdRthyxYJnItga2OoqEs53bpXHKi9Ln42z7Mhm7osMWvpbTzxmgh3vgjUtRiGCR6cz9Qfg3i45VPi20SEuv18uOrIHWC5DjxoEtgoVAtQiEz0f5s2YPUJqvP1qvbXY2+3n5ZEYN+LPI5ihNhMstGPLzWsNHH4IquBK4dr02biYSVi6Eed70g8jbVTu+yis9TmaORGk/Rs5OINht881z3bKeca9XWm953UAltQEBaLw8wztrm5llcvZL+BZ5UxCq34E68T7w8E7kLY4O+TYZuxTERY3QOo5ErWw1TAivx6e3YSnjuHcg6PsMchZ9jFjawtf+zhXOdn+zHQdBz9faMFeqDUKgLAR4t+cnKHjbetzE1SRUdb321kDOu0wLkrCdatFE7Ww1Qnv+Ez4fVNYgm7acJF0GWsLjUc5Gn0zKo/q47T3PvxnSEs+tQnYRLnVa6Bv/fk3h8RqPU90N4JnHE5AfhQk7M1viMxgM6BCq5DsC5NVwOMx4Zv9N/vHfTPxdaXwEICzmMQN29A6/AhHG/h8Q/RLQvDQXNuMXOMWTELhHg5rHbZrdyOsmjwJPs71Sw1tfx6nBkJ+kETheBbKPRr5+Cjj06hIRkPBdInAVv/ZllP8MDGYs9DdP4PlgqbhaFV8WAkbo2pOyFlBLR9ceB/aiJhfE58ZRfMJgMDx5GAzoqMX99hITjgvFycOHg/6fDYf9p6LgvYzANQspCjTDc1+Fr1kc5HQOgN3jQP+PSgRKRU2AgITvBGDV9Og7Uc/rMZgjDuLCir8mEqarxgxyMzEVS7N/N88UNcJR/26Ktmhru0UMpPkuvW8VBXCxJPQPmobopHUZ8jm9OP0dJOL5g2Fw0Vx/7kb4QN0SBFE+5+HbLRLWuVG8cxLF+8RReDjUwj02zW665yAYPBSPHYbMhXB2n7PphzafjaVjoT6/9FaX9+YWlphh8DHovi8vr3SVNCkCEr6TIlbh8wgZ+dfDoP8JeHzG/T63uJqZ7AWDaQEnJ/O9bZK1W1hcbNi/SWtsZl9wTLUJXGLmOf77dmReQkLTNQVwirw98lYe1RS2TVnwjYOztXj5PZ5/GDIWI0quEJDwdYX81vUyqMB1yDvBESKYm+Pc0I40ygRrC2XzN9YcmVZhm+3M/lQ7kFArXCBgm1tN3+J37Ftc5BY16jYJ3BF4D7BBfRyW9oxmJScSFx0yr7Nz13k5xHrBqmOawsLgnf3hYCczIfhI57g02ftflpClKh9iYuN+HI/d3Iq8EZk32tBhpYeJcOf8b3oG81kKY1rgM6Hc8klxXHj13JgIFPaGs7fsLQ/jAGcWh6afjRLWY1bp9WP5QvYXErx+sEmarwd86MXJMzf15/6HZi4zETRc0FC4np9Gya/QogsgNq+e6/evyL0r1xYgp/ClYKYA5kqcJsC9oig8FIdz7j0YDg6HbZBX7DHTOqA+60GfbQIJxmqy0B78KH8KW2CzjQ0fh0U20bLGyFvY/1ZyjYAmMsccSILwwLlgeDbI8DKAAE3BthnYdhiyFgoUmpfC3/NbCJ/447mg/xP8e0OJ0NLRhfk+6LB/BmH8FPz9AM6NoGGLYx5mP1ma8uToj3IgapnwmRyUhr9hWY1oZXoEMi/+UBICQgAI/Nznw/kmXjGtwHaoPNBNgXtqHMavj8LIRdCDvSCIXwsazs9p6ZO+Ao2djjvNxcmkmXy286Tv6/nJMa8Ss3xuoQPJCzXbCgEhkCOAs4mvNVFnqhyA05RthK5FJ49yfC4OwqM8YuS+uSC+GjTNX0Q/Tbu7+C55bS+2+O8u4tCGNpsFFMcDMo8vysrp0YQlUhwiABPtU1D9BmuQeDnRWWHo6Cj1OeR7OIRtsap5bOSvkSmEuY/sJaa+0mUWWqBvYxJF38Tn6b7SKrrG6tvmco/sfLKSEBACQUgzbXZZgjXheSEobJos2n6K0Xu/pjAOS/wdsZf+z6D3NtuEakzStgm9S5O4bcWwzfPGXA8sroHQfWcSxgcZXqdR9Ab8nd05bG7TMhqxKaNLGPraVnvc5qbmOzFmybuG34vclFlHdDYFgW/kQc29E75mgs0/+zCNv60poBbphCcW49ZuJNa2wC1cW+fFoqeuSd203fgZWKblC0HDylG8hkD+eNFCY96TaXosDbTWPsb+Hofh28FLHSVt6uQluitB4GCUyn3TrTSJuibgbdVjabsX4NwTo+A0OmH1z6MVvKRilpOS7ZTVNcFR1HznNaQo4gJrpOAl8xFucUd8nGxry75vl/gwluqkoWBF433CvBVNSQgIAQuBE41ji69mZ9D6hW1Nxg3lJrXgq4qm0zonSNd1mYVHLnS5J/4V5APG4meYBUP5PnJ2X61Mzn5pvNai+STwiGfllYSAEJhHYLMmmR2J4UTsg/Zg74OCpk1wBGtzsPVd0UYe7cru1zU8sD9dC8hp6h9lGi62M+97Z0Gb5YUBE6U4jtKZtPcavLTa7jf2vnrXrAnT8Gvad0dsn3xDgneiLq2HO4TAaT5pDAXBuxaOSo/pAC8iHJP6ONo5f8F9AYda9+emnYDN+7aQHeVkxvYinwvT+8um5XEaxfuhjAuLDmw+n1cvC2dfyrGd3nLcPynBO23P1vttReDxmWYJrdcX7cAyVV2N4NL3bCvwo9oFZ6zMi9eca/WJL0ud4G1zsLW3TaF7Fv7N6EalpTjMTJsMzp95Qpu6jSPhUtug98YzZ1tjtw/nqjcDNx6zUxICQmAEAqfazj4+TDL5IuAc0EJNpnMJAvgVRniQH03X3Az91tGh68IoehHaVlmABRxL+juUn51Xbzp+PozJcWnITc5r8fyzkXWOt3Ozlxo8LgLc680cVVxrvVuYJIPwP8ZtQFufgwD+B7QtC8gxah9z3MnQ1XO2udnsAYKWTXEUfRif9FKuPMVhRI/yLMynJfi98GlwxZdp6y1uI7A8a+7gtYDvx3c6SlR571YFTUfgW7anqSsBbHtXQxX6UtNBLYt+TGQfJH+y85FxPC80fNbkjKZJeg3NFH7IJyPzBqhaE/rTcuylf8osMk1/txYEjdxLn1aILuV9e5wSRzvkJ8q7Ff2V2q6SEBACiyBA7SPTes3q1ZXwtVbPt+FvnQO8i3G8Gem0Il98Fr7kpR08BP9eD/r/Ap9OTZConF7UN7XBiW0pgrOsd0zfM4I330ufA75/pBlXCAiBMRDAjT8v4IC0HXpcCd95bSmMnjcG6V17ZDs0+Me2hcJn4WuZdxk4/3twmDsUW7tOBa/pMFjJHIa/f4n+lpmhyxJIXSmnuHefzxe8g/cJXRuUaq8QmAYBeprOe4O69KrNzFlB+JFpGtPyd++O9l1vTH2uFknjCJmctsvg6fp0X4Su1Tfo4LUCdzv/X3yuG6c9euYuL2fbeS0XxPQq9/lCk5ZPC2peAxEI6Ygyb3Kue4Kxnavyus/G5/IGAlknyY9GZfOXXtTNM1Ofve9nH4fKJ+M74VD1Vki4JjjccEHD4A/9Yn/0zfvfFa9Zb9HZj3ghnw0eP7XOzq+6hEArEAiD6HjXHs6WeZL7vJ06y7vUToQJ7wOuj86wfvsShLwfcUI+OQoDxgdvVALNfwKCf2cLGu0Lb9Z2i5YxfHc+9g8ehc8mLK4a1Q9FbDcQ2A3NvNP1npcRvohK9OpuwF5KK+mMdrVLT11bS6SzTRJGJ+J2oSNLaZ27QgBp9AS05dtoXxZm1eU2jEtN167bWuhxX5emegXMcNdHVXMLEPiR65W9pXX/CnjSo1dpfASwlxrQmcmJw5AtfGeS5Ovjk92MJxEh6xj4H/D2ncwc7QpnT+q9FZruG0HLymZwT1QKAX8RoHl3fo/L1QDPJ7U+pO4D/IXKa8oy7+ctzkfXKChMvb0k4U01rUzYuz4mieJvmvFim2CNRljE3/VWzmLjedSxQmMBK+x734QtjjdJ6Laya6tRLhAIw/g1rrVea4Kg1qu0BAQwMf4VhYIrXlpC5oolkN+oV6D5PRYE31w86mU8z4v734sJQB9+L5rUjeMcaKNF5cvIeyHLItWonipifUfgaxz8rvezONjTOH6J72B5TB/P/q4hL20trI6JvVDfJiwESEurEwTw9tCC/x7hKrllc4fBwAhgwwf7sw5eTFqHrd0ax7lc870Zmv4HwMvx7lBuNbfVOCFQDQLr6p6sF5ggztDKejoGY6J8g20KnXQiXurz9gTO+tMkombYmcRwlbi04bg0Sb+HRWR2G5jRfl06wi3GT9tEni/A+1EYnogFBaOPregMA9VQIeAAAV7dlgXqr3uFXthPWo36d3LQ/rZVyavz1plQjotNvmX9bvYNjeBf1kv/rW3ATtCe7eI4eVov7X0Ogvd6e0/V4G2fKhjXgWvU3qzNv1G/F8u2/21tE1wCDZ60/g3K46kHJSEgBKpGIIkTOlA48d40Ji7Wn8bJ26pua4fK/6hZSI07sVfQB37TIbwXa+qOCNt6LATcm2HGpTPa2qJ1ouisZf5t+FgMalF83n5uW8/mQn8V6PhGEsevAF0I86kkBBZHoLJ7PhevurVPnIiW/amL1mECCZiHw+EA/zkEK4DLXNDRwjqPQpvOALZZ0APg66KJdNIhHee5qLwBde4PAXg/hLS8L4bAPXCP8X6D4eDA/mDA/dWUPMvHxnxTzHfbapv1Dm+MuhEm5ItgQv49CrtiEAwum+v3f4Wl9tX4jb8rCYGxEZDwHRuqsR+8CU/uPPbTJT6IVXhW2mAwOBUfNH8rlYMAgf0GzIhP6ve5o1B/Im/B1++hZgXXnxz+HaIg3D0Mo70w4a3E69x73Q7yGDeODelt3EPmDRB34nMj8h3IjAh32zAYrkHmFo4E7OS46w0hUBsCjGM7v9+Lv2s1P5s9J3g4v7y2Fnenol3QVF7bVytPTR/KzZvUrkiHkhAQAg1HwIsryBqOoU0+g2s4xZSmtLlB/xctwtSXptCiwdjETpJl6r6vEwJUqRAQAqUi4FRQlNoSDwqDVnQP7hE5TrdD/l7gmIZWVo/9vlMd7fdm+8wwe4dxEB7RSnDVKCHQMQQkfEtkOATv/iUWt9SiuN+7aakv672FEYD8Oxm/OvG24qKO+83wpDtSPBICQqD5CEj4lshDOMQcVGJxExcF7WiYRgkDayhVgAAcb05zJXzZHDpdQfJL+FbAWxUpBOpGQMK3XMT3c2WWNM3AAuD0cpuk0iwEbsXfl5kjXRSGdW0zsB7wlqTwHKnueVW3FAINR0DCt1wG7lbXZLwQ2TBMnltuk1SajQD2fX9jzn5yoeVgsbUM9NxDXBECQqDZCEj4lsu/nRxMxnYL6JHLM4lKFSGQJOmF4wRnqKL6fGHHPWcF5q8CYJUpBGpEQMK3XLB3caz5XoLm6Iqycnm6RWkw/V5k87gufhstG/WRvzxPriQEhECDEZDwLY95MyiKkXKcJcRzvg6VM0KPUkUI9Af9VRUVvc1itxD4QbCrCxpUpxAQAuUhIOFbHpbUSJwe8sUEvba85qikUQhAA70B2m+/7v3e3Nkq22MGn52EL1WPEAJCoDwE5DVZHpbOzb0SvuUxcxsl0eMZflebL7EwQrHqmq1LM1jvckjhqqtU+UJACFSIgDTf8sCl8OVR2/JKnLSkMAsGr1QtAhS+TphMQZ9pvrhovtomqnQhIASqRkCab3kIp5yUi9eWlVf8OCWF2u8dB6bpnpnHuO6Flrm1Cn1su+maoLeFgBBwjYA03/I4QCzDuidkm3ynG87l4eh7SfN3Ctbl6WwAuWufOdS49b2XiD4hsAgCGsTldRGGH3It/5zvO5cHp7cl0aM9W2TRDFyXALaOGqHOYM5bdESYEBACYyEgs/NYMI31kJtb1rckbYexKNVD0yBAky/3fCF3w9oiXNkOV6ibl70rCQEh0GAEpPmWxzxqvtmer8O00mHdXak6E76Gz3Xy24qsJeHbld6mdrYWAWm+JbPW5Z5vfzDYreTmqLitEaB1IVth1Rlm0vSrzPwchreLMUJACDQbAQnfcvjHyTgzO9dpiiySjvteFXyhHH4uXEoY7gGpW7vFyNawIYBvrLqZKl8ICIFqEah9Eqm2Oc5K5x4gz9g6Of9pWj0YDg7AKsBpiEtnHKip4jiO97JNznVaOkxd4LMuz6iJ36pGCFSFgIRvucjeVudkXCQdQmFvSH+dAS2Xp1uUFkfR/vYXde75st7My3oYMIa3khAQAg1GQMK3XOatrXsyLpAfJVF0r3KbpNJsBObm5u5rjv3UHd85p4OOfZeJK0JACDQbAQnfcvnn1BxIYYCgw/cvt0kqzUYAZ3td48s+5rSfqUcIASEwPQISvtNjaJdwRbnFTVYate4ojo+Z7C09PQECd8OzB07wfKmP5laVc1Goxm2pyKowIVA/AhrEJWKOydGpOZCa74ZNmx5dYpNUlIUA+Ptgl4IP9Q/TKP4taKDpWUkICIEGIyDhWybzwvAKE/y+zGLHLYt10+kKH860s3FpbeJzSRz/aRbWyl1i9We5q141CwEhUBYCEr5lIYlyhsPBlXXd7zqK7DzWcNhL0keV2CwVlSMwOzd3jEtvdvB32B/0fy2GCAEh0HwEJHzL5OEw+AMmZ2cmQaN1R1F8bJnNUlkZAjzCdV+Xlg3Uv7o/HF4pfggBIdB8BBThqlweXoLiNiCvKLfY8UozWhn2fZ+MN3i/8Ox4b+qpMRD4OEy+K11qvjNp+t6Ns7O60WgMZhUeWY5/74q8FzKiwIUzyMvBz52wiZAiNI4JjrMJ/F2Lf94CO9Z6PMswnquQb0XWXdmT4643toGAy/2rtjLmFAzqh5u4v/Zn1Q02oS2pnUXh8Clz/eG3qq6zC+UDz3vC5Huh2e91JIDXR2GwJwJsKK7zyE4X7RjHyYPjMLw3wpDsPTs3uy8e45n3A5DppW7mum3OeWZLP+exsWJxEXst8iVpnFwYBuH54MPlsEJcNBzOXdWFMaA2CgHvEYjC+B30SgWhvPlmiIk7++S/q86sx9SFen+A+mTZKKHH9GZ67yEfDU+r5uMC5X+/hKa0qYh74MTVC9CgzyL/HpkCkvHVmSsbc/YYy+tinO1vJ3H6FtDzCI25NnUxtaVRCOCk7WNBME2D84LXTNx1TNpG4CMG8TCOwqc0Cjw/iaXJ8qYqJ/Rx+sWKmd4/+QlPLVRxEbknxtYr8Hki8s1G0BphOOpzHFwnfcYspu0FthlzOU0wWQdfjcP4dRDGD8Pf8quppYuoEiEQBJysby8O0kkH+VKetzXtXODz3te9xZSlI5D2eq+0eVmXFaPI/+W9tIvBU6jdvhZY/CJf0M6RF0V+jOJPVXwqjutRtOTf0WTNRTjM1eFH0I4HLL0X6k0hIATGRYB7rZnpq2CmqtT0XDRz59rvJ8YlWs8VEQiptVxa1HKWsjCa9J1Cv7k9DjuxhcD92MOwp/r3+PwhhZeNw0LjadQzk+I97vML0bMtDTzvPzSHn41M7X0njTUhIAQqQADmsVcb4UsBOO7Arug57oVp73cJfI6S+M+MAKiINwv2jYLwPXMJ5DfplTgn9t+Id91Y11Ef54HcGsX2rQF/KYThda0kBIRAmQjQyzIzkdWp+RYnkfn93yh8eZmN61BZ367KfLnYhG9bMbDf+9UWY749fPNfivadbdpcp4/EYnwo43djKrc/83IvjcJsH3vHFvNXTRMCtSNwguWI4UT7tQQ/b8HZrXYEGlxhEiePAfm0GjjjnVm8LZ+Z+VqDoVyI9OWwEHE/dxXamXkoG+HkCvOq6jXWL3txYZmpuTd8Heztf4dP3cXdwo6uJtWPAIXdbXUeNVpI8+VAT+Lov+qHoJk1YiLsgfKLXGm95CMnbFv7jaPoFyt6veNwsULTz+bvGIcJ93TX2Jah4t9VCUIX5dp85N9GGG9pGQu5ALkWzH0ZPtn/lISAEJgCgf82k6iLQV+c0DCBHztFWzrzapqm7/JNC8tNsdSSzu2lCc+TNiyF9Lr/LPJGl4saF+NwsTpthz48SyH8W3xHy4vZC28Yr0WuEHCMAPZzjnCp+XLQF/bRGBd4T8eweF19HEYPBYGzrrcMihO2WcTlEzWddj4Pa0YTeDkTh+kbQO+t9jGhxQRSl343wrfgI8Itj/OR/8LrASPihICnCPCoyi9drfS3MFvmZkzQ811PsfKBLGpnV7t2lBsleEiT8Zi1tPLbYM1g8A0nscQXYdgM9nSPxTPnGdrt/tgl4TpOW23HzIJjFjXh7yHv58MAEQ1CoDEIJFH87HEGXxXPmP2lojBJk+RtjQGwJkJxE/IyVHWSrfG6WjSN6gujnHVyUzQ1pIvjJH5STVAtWk0cRLvAg/mDeDA7p2sLE5fe/1WMsbLKtBywtghjalnO1mE/+EWLgq8HhIAQmEeAk3p/xDEDZ1600KD6SRgeKB7NI0ALBaMoOeFJSfVyP/g7yD5ENPu+OS7UtmNDJfFq4n6WO2mRxy/UuBUCQmB8BP6n6PHoYhDbWkiSJqfgBpgdxm9CO5/ERRg9BMV/P/nRZEGRa+k0UV6G/HQX3EqjmeNQ75WgZWCbml309bbVaXlJb0LbeERLSQgIgcUQiMLwcDyTRe5xbXazNXCYn78HByPec9rJFAZxlCbpPxnTXtOFr2UmZ1/7ETL7XQ0p4tEYhjHNHNWSJKk9tGrbhG2xPWbhnGvAXGTx7DdiXysJASGwGAIn+HB8xXjNWp9rIIB5rKFzKUnSN/q6x7tUYTLvFR2ENFFSS/oAbrLFBfLVpChIDkLJ5xjBS7qL+9NLbYveu2sbZMQ5aApg7ve/uRrOqlQh0BIE4CzB68W2CBRf9+QyyqmDgxqayhwuan8m6Gl6AIexews03ncXPUx9crBaSt+wJ2irbdSCV+M3hhgtNcZ3FMRPRZm3Is/foWtj6trKsxQMfX7HHr8F/n4RdCs61tijXw92EYEtvGldD3QzgHONfAABzL2klt8/mplIsz34pgvbxfqPzd9cS7odn+9GnjqWMI4R0WM+cyRcjA79Xr4jn8E9N0NzgfVT5N27OKmqzUJgUQTg4HRkPgl6MWEVncAyIRyGn4D6u/2ijWnkAxH3yE718RxvFQLK3su2FhrUUq9HfgnyEiwdMb2p6VU9K8FbvlAdtx8Uz31zIYT8W+R9Gjk0RbQQqAGB/xl3gFX9nG3GKjgdnZNE0cE1YFFbFVGUPgWV3WhPWlXj67p827nOXnDQISqfrHm/LCN6jZnit1LoIm9xftd1O7tYf5G31nngi4GHNOAxe7Qe6xYCjFRzJycMH0yfo/YJcwF1x0zae2UaxqXuE9bNagjdP0edvwHW8/uS1kTlhQWiKuFR3CO0+1yuCdMpiyZLLgj33wZv6LD1TQpso0EX/QeqaoPKHa1dj+Kt1a8vAW53r3usqT4h0AQEvmQmFR88oEdNcNSO8v2k87AJ3LDQdhEWDFEShclzKVxyTa/VgnYpQsr29Mb7dJw6bIHB8y187+x6xaW0ravv5EKZC6ofIDPAj5IQEAIWAvelUPAl6lVxojKragqtzd7Q8XUwQz8PG4SNcMbC+d09cW3dR9CuTcXr27o6KS/UbuJjzuXmAvjT+Lxf3ldp9TiefdXElRZ+7vZ5t4W9rQlbZ4G5aNpFM68QEAJbInAs/rneNxMoB3HxLllLQ/pNGkd/7C0jw2hnRKviuce1ZmFj2mOEsITHXcKj6HBn8ZkmejpVMVpWZmqW8PVT6Jr+bI/bAh9PxzM+Xrzh7TQiwjqAQBLHr+Sk5pNgGCV4zWC27iY+C4E5/gos8uHSbyjl6UMhdD8Aem4zGoAtLLQ/ufC+4SiP6OJ3Nv+1ePFTCI/y3cC91MaxjrciKQkBIVBA4IcLHJ73co+ycL7watihP5PGyXPQplrjREdx73CcNX0P6l2FPPBpASMB5aeA6iJfcgc5WjI+qJnXLwSWcM7Prwa0gJp90YbfYpDMBz4YDil3/UygMyOMn4bO/HM9hOH34zg6ea4/xzuDryqxBax0+yBMjkEgkMcPBnNPw7/3wUIgI8XUMxjQeVdJCAgBM04NEhijFMB/i8wY3EoeICDh654JIUTIEyE2/hfCJDvWQ2HmqwC2BzX/psDjpy2U+0hoxk3Iv0zjFPuG4YWD4fDK/mDwB2whrsH36yzY2WZjHluOZ3cLw3gPCNl7DweDQwbBgM4/RyLvhYw4JXfVZerOJHBOi3t2igIh4B4Bszi2xyvmlA2g7CHI57inUBRI+HrSB5Iwelc/GL6OQpcanc9anBGApNUe5ObfRUgtDZmqKfschS2D/nMyoPDl3vEW54lR7lae1WYiKdZDrHzHzJNuJjI6hAC2YraYRzBuOP4uzxezDDWq5BABCV+H4BeqnsG/V0GI7GS+N5qdLeT8IVeUCAG3CFC4GCtRcRukqPkVLUkFjTBbvI0qq2i+NS1uwiK5yJ0cE1ql/g1ZtyG57b7NOLfpGKO6qt+IldArIXCzjUtb87UnlrqIUT1CwGcEjLA0NOb7//PbH/y+uEXCYYVM4YNdkOEc8p25KRY7IoN+rhnOOw6MKtPUZ7Y5zDM+Y1XAKMa/X4HcsMA5TUB4Mhql+U6GV+VPgyH/CpvsmzCoQ3slzop93QeuHBRVIARGIGALPrP1kI8ZbmvchONwZ0JInjsMg4vw+x/w23X4/mbkO3JBnK1zObSQaXmi1WkPvHNIOAzgCDncCz9yj/QByD2OSUOGbY1qyrgkXmYhDzx+jLb8kTqWOwQkfN1hv62av4CB8hx7L1Par5+MElVuELAd/Ki1goozIFpOHATDn+Fv3u7DcJllJQapOBJOCE+CMH4S/j7M1rybInzNHJL7RzAE5auR/6MskFSOEGgDAjQNncwVuX14nv82OT+/5+VZYJvOLv5N3pjM9hteFT+7iM24bV4EPwpb5lOQ/wZ5j5oH/SFJnLwyDmOGb9xk87UYsc63cVrog3C6Ch9RM3aqTgh4jwCO3QQf5SRjIkvZE9K4k5ieqz/gQ0H4UsPI4njzexOkRHzZNl9GRdkCZjQR/xwaKM+rHuTDCMbBt93jIHoraLm+uOhqQEhO4rkR+XAfsBQNQsA3BJ5vJm9N2PUL0qVgblkrBhAUX8feDr1LebRjIAE8Hg8NTvlihUKCsaa5/+rr5R7L4yB+Hei7uRhXfCl9qI53cmxpQfilb5Oe6BECviDwQhAy65sJq44Jool15MKXkxqjCZnzyxQaL0dmkJHsbmHlhTHIhS+F7k+QH4ic+jIYF6FjZ2jCH8MzmTna5zFraea8LvIFDcFXZAqB2hE4zgjgUftKPg/yNgsZM8Eac/K81guv9QV6CC+m/zDynG2m7JI5uthXbRys367BauVZtY+yciqkz8ausHi8nQstw1vfxmhhK4Se4FsEuikHCpUiBFqAAAbz++xJmn/b99W2Wcj53Laiww1o5S0yi01k9Jod2Aspc3+yb5N0VdiPciZEf6a2ez2yF3u6U04baRyEbzX4ka8+XQBS0MyJ+zOmbK9eFwKtReBuaNnXzWra1rq6pDlVJQyWUq6ZUHOBmR15Qd59zB74UDx3FvnZJS246Jhk7YNviMLoH4AHNce2pBhHoBhNKts24gJrKf2sindsa03+92ltAV3tEAJVIMCz2e/jYDaaknHwqGKAqszFvXItp6ATgBeDNUya/hovUNvLNKOuaL4FIcyYww+aFLiGPM+7wB4PWtf6xFvbYpNr5Fw8kk4lISAEtoHAq/HbncjZnpJP5qwuCex8Arsabf6LKXvrDDQkCuHfIZuoS95oSWXydISZnmfaadVpc6LD3b2R2Ve84KttObOsD79oMxPUNiFQFgKcsD5tBLDRgIsOWb4M9ibSUcTUYGtpCqeiXWXGyaUQ5jnWNfaRlaJTUpO2GUY5pVmOaZ9FW3mrVVfSbmjo+fYCxBdtOKeD59If1hVmqJ1CYFoEeIRlg+292KTJ2WehbAtA+2/QPItIvzy/W9URmF3hrMPQf9mRFds5qWmLK1vQkNemPUkQMohMF0PcMoY0Fx3ZPrAvY9XqVydNOyHpfSHQJQR46fzvjQnalwHts2AdhzZb8FnnIq/Eu3UEpUco/OAo1EWzbHY22PDXF21pXAy3WkAEwX92aXAu0FaereUZW6/M0HlfO0T8EQJCYHwEZqBGUJvIzpD6MqibTIdtds6doWjmn79zeXzWTPUktWvuKf+GNDRtf98+0kInQfTRL0+FRrtefpVPYzVftHOh96F2wazWCIF6EPhgcUVtmy0L5/skpAsXVtjme0vQDcIofAdwXYo3c2lcT6Lo/dRMDA8zYeb5QqvQ33jb0A6lAdL8grjffaqxqrjkpW2dAE3XNB9atUAIuEGA+8DXUgjbTkJF81+TtdIqaB+BD7SA8Gv4/pGoz4vzpyCC5srVRYesKvAoq8xco7oI5d3DzXDwutaDQR0XJc4XUuRTfhaZ2i+3spSEgBBYIgLPwXsMHZcdSbK1urIm1jaVU8Dnd1EYPmaJuFf9GsNUfol8daktjcP7XPCux7P3qhqUBpf/VNCe3X41DqZVPGN71OcWH25hKQkBITAFAtvh3bchr2+StlTFBLNYmbkguxKRll6MZxcLETkFS0p79U/N4mqxtrn6PVvQBOFLS2txOwtiII4PuAyyMuK0xI2Aesd2wq1WCYF6EdgT1X0WOTNFm8m4eIa0TXvCpp3mc9SxF0tzXBVH0auBy7J62TJ1bStRwv8izwfncKkNjzjD+qOpW9iNAniH9wXFo2R18rJQF8/88oYmJSEgBEpC4ACUQ6/dTbY3rxG69h6xK22pjHrtlby9l2tNbhRWm+IwPD6Koyc0UOgWuwNjRZ/DxVWdE3aRV3afwm80N+9fUr/tQjH3t/nn8kx33ocYRW+fLgCvNgqBOhHYE6auV6FCBlTv2x6X5jxpGULQVRlF5ylbwwdNa7Gf+16Ylw+sE/Aa6uIWw8ku9w63WPQEwZtqaHPbqvio6bscO654mQtfar+vaRvAao8Q8AmB+yOgw8dB0Dqz7+Rq0JclrI2wtYJjZLcO4cjQC/HZNNPyuH2FMYS5T+cseIMlOOjopz3DcTl313Mr8efqwmKxdkcsy3qibYPJeag3hMDECHCy/CYyBVUWVampOZ882AYKojVhFP0VPimc2p5WoIHUWJzwbt7iEATvaTvQVbUviuJPWItGZ3zM+xBNz0pCQAjUhMBhqOcfkXkx/Jp8Mp8P7mAH7XAxyRedxApHhMzC4YooCt8Z99I/CaJw+5pw86Ea7v06Fb75wu2+PoDRUBp4xjY7Huhq/96yYLAv8UYmJSEgBBwg8ADU+QbkU5A3IQ8wOJmdrcpZtzGRk5Zc4JyNfew3I1x/ZyeLJI7e4IovXIjl2xXfwd9dvDShzKH5f1yePCgscF9bZsNUlhAQAktDgJGeHoH8Gw8m+dW4/ecrCLv4GjhQMVKQF1GolgZrOW9B4n3HJV+4MEN+XDmt6XwpvGHI+QIXNJzQeU4IACHgCwIQese7muRNvdjAfSuEjTSsLTvFza74kguKS7UIKmeUIjjJ4106Plpmb249KZWIQBecT0qES0XZCAyCYW845KK8/sR6IWCQA9q93RBRf7PHqXFfPFSbh/FmHmzOmKgDbANwJfQZ0MB9d6UpERgGwxMHg8HlxNbGecpix3qd9aHurF4k3uS191gv6qGxEJDwHQsmPTQKAUg85yZeeIVK67WYg0n6aEyWTLV2Wi6GmPv9/gD94ou1Vt7yyhB17bNmscmmUiDWldiP8gU2F7hH1FVvF+qR8O0Cl6tro3Phi4lBWq/F3zRJ7kvJW+cETRZQM8sTL3u4rLou172S+4PB8Wj1fFe3sK4FjFzjxio3vGctFXakEgnfjjC6omb6IHzrVfEqArKMYmn0heJ5sK0llVHuYmUY7Qj1bsSz8opdDLDJf78c2J5vrBmu1puwbdChUakkBCR8SwKyo8U47z9QeyV88843gNF3rj+3jzEB19EnC4L+QtR5Ux31dq2OOE54xC9LdQlf048s0zPvYm7CTV+N6B7OJ89GoCQiF0Sg7r3FIiF1TUQN6gJZEPy6TJO2U04cRmejai2GKugsWGSeYfp6XWPO1MMtjLw/0Zmvvg3nCnD0qUgJX5+40TxafFgFa7K/q9+sxJ97W5pKrT0KAuJUTc7VQD7oz/0IwndQ55YC66L3Oj9zHwIu7JxvNVWDcP2lSvjWj3mbavRB+LYJz+naEoYMK1nrmDbOVtkEPRxQ89URo+m4uNDb1+KH6/ljndaegra9s/hbHnNrHajlka2SPEFAq2BPGEEy4ih+MLTebEzXaZrM9wbpbPV7ygaPIGkbKWebs751Ncxo2rkQZt/apa66216PhG/bOVxt+6I6V+HVNqX5pcPd6khXmhHqvRKZAlipIgSwuDqLRdd9jKwwxiV8S+KvhG9JQHa0mLSj7fa12Q8yhDlYFF0srbfabgHLPjGuzaoxojX0r9it2lZ2p3QJ3+7wuoqWyuxcBapLL3P3Oh1yjCDI6tys+crkvHTeLfrmYNi/1IOgMtstSqgeGAsBCd+xYNJDCyAg4etP1+BYzvjhQOul8NX53ur7Ah2uXB/1mam+md2oQcK3G3yuqpVOj/nU5VRUFXgll8tJMZuY6zrja+jP+BAGt5fcHhW3NQLE2OmYQ/0SviX1TAnfkoDsaDGpSwGYa3g62rK58y2n3HV1xhd1r+/oGKiz2bfVWdmouiD5V7imoS31S/i2hZMO2mGOtTio2q7StSbguPnz1VP4ZnuudZudswXYMFjrCxAtpoMLTaf9HR1MMqOkDiYgSwKyo8U483a2NG7Xe2Besb5uhyvTeEzK4kP1PcE5xk4lf/X41lqDhG+tcLeusrRuLWt+sr/rJkF52G4GZYvgGnXxZT74vgLu1zG4Kftc93dt85TEaQnfkoDsYjGYBRRe0h/GM8DFvGLiYC+eZm+lahFwfswHY3622iZ2p3QJ3+7wuvyWDodOHa7Kb1CjS7xzhFWgvgaFAeP+KlWLwE4eaL7OTd/VQlxf6RK+9WHdxpqcn/PVHtR8t9qAv2qfGI13dRiEu7axg3vWJt6n63rOVgjRkjqFa0aW1AwV4wgBZ3u+jtrrc7U0B2axtus2OW8+5xtSK1OqEIEwiPbFGe6w7nPchSbpPHdJPJbwLQnIjhbjvP9A45Lye1fnu6FuwWscu/qDAbUypQoRoHWB4SXrvFhhRHMkfEvisfPJs6R2qBg3CDg7ajTfXMxIbpruZa2/qpsqS9gfVHfdXasPWN8XbXbZ3+lpvaZruFfVXgnfqpDtRrnOHa6k+d7V0eIwya6cq+uYkakrF8D749/yeK5u3Ef94dxD6rZsjGjO2uqa2K2SJXy7xe+yW+tyFZ61xZMoW2XjuqTyhsHwbLw4qHtPMBf2cL4L77MkwvXSOAgwpvK9xnmwzGeMsLeEvszOJQEs4VsSkB0shoI3rFPLGomxzM7zsODKuZO5J1g3Tzgxx3EcpnFyNHy+3G9FtHIwRtR6kzp5O+/JDv7m9d4CaOdaCa+DRkn4OgC9JVU6P2a0GUc5XFn96Q78fVWd/cu+yAGuQA+n5l1n/V2pC4ubx9UpeG1cLQ/6iyR8y+txEr7lYdm1krLoVh7sQXUN98Xae5kLvnCCnhv0HwXZ21uMQP0+OQL9/uyT6h5rRthb2xiXgHLX4S0nB8/TNyR8PWVMA8hyvt/bAIxqJzGJ01WstC4tqVDPnphQjqm90e2vcA808VAjfOva0zf1mfjdoOG69kNdXwslfOvDum01ZXt7dU3y2wBPiwALnDhJMrNzXVqSXQ+FAmzO/9i2ju66PdhRfxhZyvO9HG/9fn13G9gCHwNNwrfEziDhWyKYHSuKwte54MPk4JwGn/iOCfosex+2atrMfqAV+OGxqPOwquvtUvkQt89z0d75G6swxMDfPuzN57ugo611Svi2lbPVt4t7e0PXsg/hfqpvaYNqmJ3bdDomykFdfDGCHg5BxgqCAIjhCxsEme+k7gkCH++CSPKW2VpY8SibUkkISPiWBGQHi6HDlVPniyzUnmMavOP7cEjT4M11bgeYCZqfmel5OPwrH6wi3vFmCQQlce/FwNWZExv7Ub7HfCHIX7uEJugVISAESkCgF4fxY3tx/FGUdQ0mBQpfZzmvn1fpndWLk/f20pRHXZSC4PuYMJ3xBQyYw17AcWLE1AjwsorrXY4z9qO8L31AC6qp+akChMAkCIS7xknvWWEYfRFv3YpMk2Y2IPnpamIwdRfoYACAG5Ik+WSSpE/E38smaWlbnkWwize74gsXY/lkfWZb8HTTjpB99+fEEiZ9JwspawHHcfVkNzioViHQGQTCJIrig5Io+Rc0+Xe5sM0ELjMnAvNpBJ8L7dfQM+oznzToEsrFwud6ae8F8ALetyssjKMIkaaySEQuJ23W/2ddwbzsdsZR7yX2AtMVL3PBz7uiV5TdRpUnBITAZgTCKIhoVqZ5qQ8BxhjBQ2iR2QRuBK7RbIxmZX53MTkUhb+tIZA+izbedYscfhCfXQj+vx3ayUvPnQjfXq9n6v2qBteSETjXjDtXVgyr3uzCDiUhIARKRgCDbCcEZ/g7FHuxPWGbwWdrl2ZCMELY1QRvm7yLdBpzWfGZ/LkrodXTLLtXyTD6VhxDAc5vDdQ5gZttCdTP/fj9fAPGd3pwrpeWi9niuHMx1vIFLX08lISAECgLgShKnomyvo+83pownWhLdU0s1h7aJtT5Jfz7ofhs3VlhTJr/Ye+H1+mAZZx0coH/5bL6azfKyc6t/5pCr4Bj7eMy5x/P8j2mG9irlUKgWgTiKEyejyoutjVEy6ux9kFel+C1HcUskzX3hn8YhyEDGaysFvr6Sofp989t4etC883rpOfz4+prebNrSuPeq+2FkgeLYpq/eZ2hkhAQAktFAOasZ+HdS4qewkbw1qkd1SVwi/XYGkWh3RTCt0BQvAWfuywVY4/e4znsW1047RQd80DHlS3BtFL24pT0AahgLfusq4VTYbzQV0LRyirlugpvNQJxlDwIDTyt6BlsBpoPe0t1CeMF9oHnj0zlC5DVURC+CjQ12sMTC4nP29p+3RhbWHNh84VWD7LpG8dwrT+z+2fdpwlGzAPckspuL1MSAkJgAgRgXr4nHv8ccnbspAua7bQCxmhtuaMJj1oxtF8jzW7LejNPc71vaPU79sGXT9B9O/VoHKfvtQXvtP14Ke+bhVre97FdENJSpiQEhMC4COC40G54lsc8+mZASfCOf+zGFljAjw4nX8FEdMS4+PvyXBRGPFa1zvV+vlX/egngrXsHTho83QcHK7NQyvfqr8e/OxmkxpfxKzoahgAcNl4Aklcbk5Uvg3opK3EX7/BscNExy1q4fBc07dOkLoFoV59wLXztwCxcEMK5nPvqSkAgiWaOwsdtxgvfpfZr+wcgUMvbQVfrTgGo0wmB0hFIEB8jjWdehILno1FReLlwuHEhNMuqc5RDlvEUzj/pPLRr6QysqEB4Pf+ZD1YPswDITZrcAz68oiY3plg4QPLChPNM33WxP2+PG3uPHlL3kY0BUoQKAZcIzKTLXon677AFblkCSeUUTNZhcAEwocbSBGeUlaAzMz37wsd8EXM66Nne5ZhxXXcvmXmvb3zJeXOpa2xUvxBoAAIRbz75RvH4kC8TbdvosLSDO6Ed0CPae9NcFAYf83CS5176z5G5OOhUSqNljDM+79lsLCuejBU6xr20UwxRY4XApAhEQRah6nJjKjWD1+W+kScTSKVaXsGD+DNo846T8q7O5+Mkvg/q45nNSnGZpPzc/EwBfCpyY8z40/ItjZfx3Ow1xrfAfE6CXcXP3oDyGRtcSQgIgREI0Fx3AvJc8TB+l87sVjwJjRRUtve4cSQCHWcjMwSfz1rwN13gNarOgh8CBTAvat+/7SM9TZf/Edq4xoxZH46BFfjTh4f869vOB7VPCCwVAZqseP6UTiveaDJdpiU3G5Ifn0ReuVTGVvleGEUP4WKNfLIXbB7xbTVoae0VhL102auwWONtYd6MWdsLPe/Dq8CDu1XZD1W2EGgkAvCOpIfo9XVHvvFogvZm4jKYFI904fsfIe/sYwdD/Oq38dyyb8LXWBO4oITp4H34bI0ZGltD7Atfdu3JvNAYtvoCtN4sqpuSEBACNgJRED8M/76Fq1XL3OmdMOqaoLbN0Nai6NfAgYFOfEw/9c3cWQgEQzM096c/iLzSRwDHpSmJUl4ocVVxq8KXMVLYorocdDUyktu4/NBzQmApCOyAl9aYy+Kl+fplbqfTjJlQTbAE/PubS2F01e+kSfJMH4UvMTQm2fyTJvLfIPOSC5/30rdi2ebzu9FHKNzSNM36hk/mZruvksZsQR9FvM9bSQgIAQsBCt6TCoEe5i8C8GUV3VU6DF/syTXXKPqILvUm33oybotlyMkrfRMGRUdBKyrXFXACeo5vOC5ETy9Z9mj8dpZpj7FS+egIaZ2KuDlf5DQFZtEpBKpFAMt9rvp/IE3XL013sYWGbWZM4vgN1faSyUqPgihOk/gv8VYWCW2xtrj63VgQ8kUCndnOj8OIgf6jyVpc/dNxkIa93jIGXfmm7QNA7HzHGDTSwvCS6lFSDUKgIQhgj5f7RXf46qjhalJuQr2FgCd9mPT+FnR7Ew0LjjUx6DnDd8Fg+r51jp2C4qKZtPeeXto72oeh3EuXc5xmlqnC3vW8V7mvfTZf2HwK9DXKrO8D30VDSxGAhyTv311vm6x8MxP6OqH4QFfR1EgtE/m/McN548ULGnlL0wYf8BpFg9mLHOXQlu+xUxs+Owmj18VRvD/kB5yFEMur4hSGSQqB+2RYED6Cqq4g7fYeumXKnY+r7ivGoOuLyFyIKQkBIQAE7oV8c3EV7fEAHtt0aWta9h62WVjYE1eT22u3rdAm3orEPVcvErTHtxeDtPiC+ygfh1H7pvlzFMRn9pLevyTxDIOdlHnUKwrC5KAkmflrlPt15NttOorC1sbPt/5coIdnenf3oiN2lIjKV4odxXWpzaZmdCbyfkstwMf3MOiD4ZAyGvoJ/i4m/mae4SfzYEBlsT0J2lrQ7/fR1OHH0SpegkGB4TSFQbR8GAx+BQF8H8Mf8+mUsCVUbvoV2kKc2XluRD4LV2yeD4eti9DDrhgMh1fit1uHwXATjBF3sjvi//BMDhO8twP+swtM8ofgt/3x3F6zgzmGguRe7i74PdtrbnK/NBiBx7zn+yn4/M4SoNYrQqB1CPB6sTMsL8+xNUq85/WzozQF+ztb+2qjc1nBLNlPouTV4JkXe8CQKA8ALRvb0O/sNtiY2/0rX/RQOHPxwz1kfmb/HtVPzbttwMeyPH20dbNnAxvknedgAzEsi+SPYXBwr3ekdlhWJXWWY7RYu01UIIraL7UtqoR10lZnXXn7TJXR3GDu3UDhoXXSsFBdAP28NAozj+w2aHWmr42ysOT9McJ+N/4MoeSG8IWL+Jn9O1duM6gsLdEHNpVCQ94+np1+bSkFqpCpEJDZeSr4ynkZhtYHQfzQ+3SeHy2RRdQoKFRvQ74MjbsY+Qr8zQhGc/jhdvx7OzR7V/y9A8yCNLvfE/kgZLMwbHwf5aRHwYZJnybRIP83L2M4BhkmUOeJTjd/QD7AOSVTEGBwNos+s+gx3xuharY5TFX2WLOF7kJbJFOQ6PpVjkde7vBT14SofrmY+9IHTgEhD/eFGJsOMwEVJzR7IuPkxgkMAuY67Jv9CDtpZ/YHg4vxFSd07r0Zr1ojjBdrKk2ydJrZC2XdC6rJgTiRuhd2TGkZyC6xp6ZiT542ffy7oG0uVl+tv+f08QaZvxkMB5+utfIFKgOYTwZz/hc/UxvM8COdTdaGfcDVFQ32uM0XFzQufQX0HOeKJtUrBLxCoBen77b2Yrzcu7XjSRf2L6nBXpxG8Udw3INanBGIVR1fSFEHI349Fmbb9+PzOmTeFJPdFmP27HzfN7b2D9eC/oN96JD0PIqD8B2gZaDY4X77UIBHi84TZixYvDwd763woa+JBiHgHAEEXn8EiMju5B1nQLl4ZoGzxuugHn0Yu2Y0D7syC1M7TsMofhwcmD7ERQAFMScd351jzMSYL7p4mTyd7ZwnrJwS5BeBkPW+Y+hiLDStTkvwXgXa93DewUSAEPABAWhue4OOLMauz5qvEWY5jWuTKH4L6N7JBwwtGiiIVwDTJ+PzFxTCPi9oiKU1MQ4Sj2JAQ/gugwbMMI59+8KIpgke0Tsf2vIm7B8wdoCSEBACQODuyNcVNCAvtF/bdDu/MAjDTUkSfyiJw3s0gXtQxR8POs+2tbcRUad8WvTcAXp5ptSbFAfRP5hFjMHR5wVN14VtcdzmvKK/hRdhOL3p2CKk8wiciMEyf67Qp0nNPtcIGu/AxQDHJ2ly3wZyDBpc9DLQvYYTs21h8G3Rk1sVfgo6vTr6h4sMaOXI+im1YJ8tNBK+d/Eov3r0B8BkxwaOW5EsBKpBAB6uz7Q1Ct8mtHltMQxOxwlI7uk2OsEUvVcSxu8AzjdxgjaC18PJmsEevonsRfANw/QI2EnzXdzByXV/Kvg6nAR6VjZ64Ip4IVABAr/JV6bZvp/rQVusP6fpIny/XQVtd1VkD1rw/VB5duTJLHh8WfhYCwIKYJrMfUunmMndt/4qerZaGNwCTHgiQEkICAGDQBwlPI6TmfHMpOGDACiYYU/Dv/dqI9cQzOTP0K7VRbOza2FcEGzfBo1eab9waN8fNF0yCicf+m8XBbDZqir05XXA4mFtHLtqkxCYFoEzfDpDabxurbO7n4FnpBfHXqYFeqH3IYAROD+4yDbTGQuEq71321mGizNkRiHyLdE7n5d+zNnYSfi6MUkb3C1fhmvAmyN96zSiRwg4RwABmbLjGz4dLbInfThW/bNzkOojYBdUNX+JBXFI0zRzynKlRdmObqCBEc+qClSyVJR5nntH3GP7NnyuNws3V3h1vV6zYMyF8HnAo1U3oS21k+o9ITAKgQt82zczwgafr+kgy1aizT+xI2O52oM3NLD+nCdzkHS8l9bHhEAc2QUg1/jWn7skkPN+wrjgdK6SV7OPI0U0uUcAUZgYT3W2uNdY92Rh79nlf18EM+x93CPkjAJOWqf7YDq19/DyfvFjZ6iMVzH9An4yok9tYT3wAdu6x1kZ9dlWmAX2d3+Pep49Hqv0lBDoLgK8wcYLJysr8AT3iGSqCoLtgcOFlsexM9NzYdKexVGvYz0fMiuSIHoPaJwP62kHMylDCHWxDHs7yPLHyLz0c+vM16Xtej4yRJ4PCER0npkPqOFyMjGDGgP4DgRQ8CqikmNOcRFyscs932K/yEzRQchbaHxPvKH5iSBylczQ5TlfmUWMLXyBMb2ZX4HsVTAW3zuo6OsoAmnS+297UndthmOkopm0R21FaUsEluGfq10ujuy6836yEd81xPs85O1MFA6+WA4aTYe9kMm1XV7HyaNynh1D0zQiBDxEIAwiTpzzMZw5MbkUvnndF0NT8e1iBC+4B3Xieb4Ij9xK0YcX+p97Ac54RDCQyTeQs+NIvmDZNDrsmOSgndd2Xo38uPFYoKeEgBAI4jh9GiciV4Pf9uQ1mhSOijQxTnOdven/FUx9ToSItQd9Yp2NL6muB6OcM+29S/tokgTzltYB+9x04cgZLR/vRb5bSXxRMUKgGwjgbO/3XDrymAmPZivmJIre0A3kp2rlSrx9peuLBKzz4Fy87T5Vi+p/mXuSKRZ6L8HnGiNcTH+U8N1a+NoYAbP1yP+E3KYQr/X3QtXYTQTgLEMNc5NLJ56C5ynvuXV18X2jOgFAegIIHrjkna014r7fVzYKQItYbHHslgTxf+IreG9vDmLiElfW71u2Fug0Mf8XciOu7mxqnxTd7UaAe71/sIImOBvwuQmVguSIdkNeauu4SPmaSyFhtMOchtNBj28RryYBPMJi9ACA+iW8pP3grRcA5karwycBVc8KASGwNQJ/YlbXLs3ORsvopenHxaSJEWAs4zvsfXPLFFz3YoqergdM3AL/XqA5eqc4CBlR7QYzNuxP9tkmm6XtthSjp9n7uXkbKXS/hnykf6wSRUKggQjEcfKftsnX1WSS17suDAPGMlaaEAFoam8rBjlwxUvs179qQvJ9fjyLE42z5i/H56UG06IQNgvYpn0Whax9ZhdtocD9AwB4Jz511t7nXiraGonAlWbCcG26TOP4XY1E0A+iuWi5tei160gYfA/1tjK4AoQwTwVkF124WtyUxdPiYq3gOHcShC7P6s740b1FhRBoFwK7cnXryyoedNyzXfDW3prjyUt6P3OCdriY4iXpTd73HYdxz8VDt4VR6Ox4XhlC2Cwg8j5DTfdG5Cch0xeklQuocZirZ4RAxQiET3BlRtuq3iD4TMWN7ULxx6KRmTBwdetRLhCwoIuaFHBjqX1jNxxRem4cRF9AAbcbYVj0nbD7+qhntuVrUdSu7WcX+m1UeaPey9/nHj2PC30X+TnIOjK01N6g94TAuAikSfrvZayel1IGBz41s1xIXI4yFIpuXMZt+7kziK1L7/Vc4/5tOc1pRCncF2ZwiafiuNKn8XmdWYQUg8fY5upRTlyTfMc6ioK2WF+xPLxD7XYt8onw6ubePENtKgmBbSKgc5/ld5Bfoshjyi928RIxKWQPYbLAFDL8x/5goP3exWEb5wmaDL9FfJkHAyo29SbWOxwOOcnT65nhBruUaKol6AcBhkfzGszBcHgo/n1/5N2QuSUAiMLMpGvGAfCaCKNtvYeyDNPXoNALMNKuRWVX4MuLUcsZ+O4yVo3MO3aVhMCiCEj4LgrRRA9Q07wNmUH6a09m8sgFxN1BwKraiWhvhT8Dro9k8yad1MuAJBe+AZyTntUfDr5aRpktKWMl2nEg8kEQfXtgQtsVwpnf7QQBvTM+V+TjkXMdxyX3zSlINyBTUM5GYbgBC9Y78Pd68PYW5LXDYMhLIvDv7LKNa5FvRr4hf4/vm+NmLYFRzRACjUYgPBqTpD0waz0PajkD8SJ2LazK7UvUsG6yJt1aeWv2IpMw/lC5zepUaRwT1I6Z2+681inGNrGx8rwrkWtxFPNWF6dCjyZnnAnlPbCT2dxKxKGlRa3B3uP/GOtC3W009c4N++xjSktDgGOCi2NmmvCVhIAzBCR8S4QeUtf5oXmaROcGg5NKbJaKmkcgPMGFyZnVs95cAOtWKvVIIdACBCR8y2NiODfo7+tqcjYTNOrnnjODfCiViwA8bga/zrWmckses7S8b/EuZu5jKgkBIdBgBCR8y2MeFN/hPVyZJdmMvG56WytVgwD3fOmIU3synta58GfcaSUhIAQajICEb3nMI5ZOo0lRM4JDzs/yCbq8lqkkG4ELXcBhLCrY06ej0L1c0KA6hYAQKA8BCd9ysKST1XLkHVxrvjheQdOoUnUIODXpUwjjuJHue62OvypZCNSCgIRvOTDTi5JB+J16OmNi5r7kBeU0SaWMQiCKEsZYdpKM9osF3l5OCFClQkAIlIaAhG9pUOKAv0u1F+3A5Mz9SAZxV6oIAbCY8YZrT3YAFfzNACpKQkAINBgBxf4tjXnhziYKUWlFTl7QVXhFC6rJcRv/jdDN+VCGtDShLRF9ac/xCdaTQkAI+IiAJurSuBLu7PKYEZuBIB/cj6w/8HBpGDagoKEb4WsjA+HLCweUhIAQaDACEr7lMW+5c+EbRgy4L+FbHk9HleQsMpIVaEPCt1oeq3QhUDkCEr7lQcyLst2mMMQdoqHCSlbIBYDrw+KGnvVKQkAINBgB7fmWxzwfsJwtrzkqaSQCm6/1qz0VfPl4Ow8967XQqp0TqlAIlIOANN9ycGQprp2dSQOvSVOqEAFIOyfCl02ytjV8WOhViLKKFgLtR0DCtzQeD/uOTxphcs40IfG0NJ6O1n2rLX7bpecCmAsAp2fKXWKguoVAGxDQRF0aF4d38jiIy4TZmOZImSKrZYITrdMKsMHWaXuhWh6rdCFQOQISvuVBvJF36TpNYbASsteZWdRp22uqPAxCJ0y2rSphmAlftyu9mvBWNUKgrQg4mUhaCuZ610eNYIjcoaXY+tQsJ5rvlgCEd/oEiGgRAkJgcgQkfCfHbKE3VpdX1NJKmuv391nam3prfASGzsdMFIW82lBJCAiBBiPgfCJpMHZF0m/hxQYu24NrFXTPa8UMgNnZqeab3WoUxbdW3EwVLwSEQMUISPiWBzC1kaFjj2fddlMePxcqKa2+itE1sG9lfgXD4DZXNKheISAEykFAwrccHFnKGmRcp+tU+d0ONOxcXpNUUhEBnOZa6QIV+9IOWDhucEGD6hQCQqA8BCR8y8OS3qc3OdZ8efjzqPKapJKKCAwG/Z1coGLiOvMTK7zLXNCgOoWAECgPAQnf8rBkSReVW9zkpcVhdMzkb+mN8REYHjj+s+U+aRZ2/cHg8nJLVmlCQAjUjYCEb3mIU/O9uLzillhSFD5yiW/qtfEQOGi8xyp96pJKS1fhQkAIVI6AhG+JEIdh5Fz4Qit6GJq0fYnNUlHzCIRH4M8VLgAxe74wOzPAxioXNKhOISAEykNAwrc8LBn4/vwSi5u4qHyCXoF93z+a+GW9sCgCcRj/KR5yElOZe725Mx/7mMJLLsotPSAE/EZAwrdU/gx/6/KsL4+hMPfS5MGlNkuFZQj0h3OPdhVC1HLk+4PYIQSEQPMRkPAtl4fXQ/g6u9av398c1rk/CB5dbrNUGhDYHfmhLo+SxXGMK6vC34sbQkAINB8BCd9yeTiH4s5jkfMBEfK/y61m4dIoHOb6c8eAsYfUVWdH6jkBWu8OLoUvF1cwPv+uI3irmUKg1QhI+JbM3jTp/cpyjsmEcF3J1JWZnnu9F9dVb/vriZ6GNj7QLKpctDcX+gzhcrqL+lWnEBACQsBrBOI4fQaEH8NcDc0nhGL276oz62NmfcjXo74dvQarOcSdQUwNtlXzcVT5eV/6eXMgE6VCQAgIgXoR2BXVzWF/LpusjQCuY8I29Vn1noZ6e/U2v221RfQcp3exU+GL+vvY731E29BVe4SAEBACZSLw21z7zLTQOgQv67DrNPUmcfI3ZTasg2VlWm+SJPP41sHPEby8qoPYq8lCoLUIaM+3AtbiyrfvcI+u7mMp5iyodSYUns/916OJMxU0swNF3rXXazzJ62409/GZkyj+FuqO665f9QkBISAEGoNAGMWPodnZaKN1aEoL1UETNJyv3tAY8PwhlFcHXmI0UNuyUAc/7f17/p1G8RP8gUaUCAEhIAT8RGAlyJqt0+Q8SiAYwYHJ+2o/YfKXqjCM/8IWuHXu3Zt6Cw5eu/iLligTAkJACPiBAJycwg/ZWlMd2lKxDk7e3KvMNKckfZYf0DSBinA5qDzXFr5mIVXXgqrgM8CQkjI5N6HriEYhIAScI8AJfG1dk/Uo4W4dO6IQvi6Jon2co9IAAtJ05l/r9lQv8s8+2oT93rc2ADaRKASEgBDwA4EojD9Vt7nSnsSN8DWeuvB8/koSRlwUKC2AQBKnR2O/vu/yTK/RuPO+g2NO4b3EMCEgBISAEBgTgTCIj3U5iRvtic5fzPx3L0n+akzyO/cYfIp3AUZXuQ6oQeFbOKutBVPneqMaLASEwDQIMLZkNpkXzYp1/NtyuMoEby6A18dhdN9pGtXGd6Mg5j79Sbap3rXVItuzD+OXAm/t97ax06lNQkAIVIdAHCX/YiZ0+/hIHcK3WIflAHYpftu7ulY3q+Q4TA8ExRe7WiSN6gs5Lbfit5XNQlPUCgEhIAT8QGBPkLFpVPSpugWwMadyDxh1/xR5Oz8gckcFtgZ2Q+28I7fWUKCL8Z68SuP4w+6QUc1CQAgIgeYj8BOjVZngG4tNvlX+bkzQURy9vfnQLr0FMDWHcZx8waV5eRt8HkD4Hrv01ulNISAEhEDHEUC4yRcbhyejfVYpXBcq23YkIj1pms5CAL8Fz3duTzEMooRxrw1fzHloF3xZoE7eStV5y0THpw41XwgIgSkRYGzlNYXACU6csIrm1VzrY9zgDnnURr00Tl5ha7wuA6LYATwMHfBKfyO89eq7DHrKDq7XhYAQEAJeIhBF8T9Ty8r3W50JXlvL4kRv0XMqftvZS/BKJSpM0jh9h9F4fdB0bYtEviBYE4XB7qU2W4UJASEgBDqKwE7Ufl1HTioKG3PvcL4X/XvcGXtoW/mDc7zbI/DJ5+wtAB+EL2kwvgDsHzNJ8qa28kDtEgJCQAjUjgBMnf/ocs+3KGgMLfbZVuwD34lwhs/DJnC7riEME4bWzO7m9eXGKcOPwnbEDfieCzUlISAEhIAQKAkB7qteU9zjc6V92eda7bPI/H4mST+Jy573AG0N33eMdk3SmffA7H8bcbaxd4X7qHrNQqiXpK8pqa+pGCEgBISAEDAIxGH412bvd/7ID0yNvggCo4XlNF6DaFh/D9p4VrmBKQuleb2Jbe1TEI0iv/O93u9hrdMui0MDe41IFgJCoL0I/Mo2+fp0ztTQZfaCs3+H4bWg8cVgRyOOJEVh7zDQ+gPbxO8TxgsstM4JgzBtb5dXy4SAEBACjhGAMHsqJ2DjfOWTYDA0GW2RdJqLGfD3D5GXOYZvG9VHaRSmD8EDG0h3MaqYDwFOFrJw9NLe8/3FVZQJASEgBNqBQIJmfNfeZ11oUq77+2IgDjsedW4mPx8BKo4DXWyDL6kXRsl+cZR+DIuGgS10XcfTHpN/l4SRrnr0pTOJDiEgBNqPwM9cBncYUzBssR9tCedLcWkE94MPcsQm+INFu8fxzBtB0xkUuktpj6t3LL4P4jh9jCMMVa0QEAJCoJMIHIBWr/PZEagonIzQsI8n4buLYEpnmMrDcy5CMFaRoh607p2TKP1LlH4C6t1oTPY+me4XE+hGG8/OGwfR56pASmUKASHgNwINP0biN7jjUAcp9QJE9/90v98f53Hnz0DgZTSYz8FgEECYZN8Nh0N+vwa7rb+KwugsfHXVYDi8YTAc3BQEg9X49xrk9blw4ksbF2gQPH6jnaBZQ7OND0SVB6Hsu2+a3Xg0ajkadSSsn/Wxbn6a7BygMQgw2IHmy4Hkg9Am4KMkBIRAlxCQ8PWD298GGU/0g5TFqaDwsASILXi3+NsIyFwwG/M1zcN35IJ3U/5JQYzL7IMV+SeduvB6ljLBysS/KWzNQsX8ZoQwFwINSnNxED66HwwZ1lNJCAgBISAEHCDAO2VX+ej9DLq8OYPcVFrMtoLtzIZoZ//moJ+pSiEgBISAECgg8ED8+07fYj83VeD5RLfZJzdnp0HbKcg+eYtrMAoBIVAzAhU5xtTcinZUxz1SOd+0g5dbtMI2l8M03ofx/OV4YK6FTVWThIAQEAKNRICxlFc1yfvZJw3TV1qMuXmzd3P4sUb2TBEtBISAEGg5Ag9A+zba538ljJu372wHULGOQf0cvKVjmZIQEAIdR0BmZ/86AM3Pz4YHb3b2iN695iiPf6SKolEIQMOd98y+6/fwuzA3Pw3/poe3khAQAkJACHiKwP/lRG0Hs8C/5XncAAy2up6xN/NeXGmoha6nA01kCQEhIASKCDwCX1wns3OzFh12FLAkir8QR5E8mzW2hYAQEALNQiA8BPRmTlj2eVFpwX4IZMMTO8ylOVKEKF9fhYOVBG+zBpyoFQJCQAgYBMKDqQFn3rK8XzeK5gWxhLBbIVx0rDL8gcb7dYSPk+DVIBYCQmAkAgov2ZiOET4O253fA7kRHXoYStGEXWxME1pKKB3i7DCY4A1jWPPSjNtb2mQ1SwgIASHQHQTg9/wuOWC51XSLloYR2wGrYWrmcbG4Oz1TLRUCQkAItBsBHjx6NZo4K3OzH0K4sA2AW4qCe7a7C6p1QkAICIFuIsCtAt6AdIftVduk+2ybvHAwwtbE4M7/PYC2+2W06x7d7JJqtRAQAkKgOwjcH039nR26sMlCrSm0mwWPZW6+KYxiLoZ0jrc7Y08tFQJCQAgEL6IWLM23HjN04WjRRcD+UPVBISAEhIAQ6CYCR6DZlzVFe2wynZbG+1W0Y8dudje1WggIASEgBAwCu+CP/4VwGNh3Atve0YqUtbh2XDQrm4AZ1l2867Dp/gJ1OyEgBISAEBACNgLH4R+32F64dnCOJmudddBuO7HZgjg3658GGuTNrPEmBISAEBACIxG4H76dTZIki4RF4ctch/Bqeh32uV0rktgstN1Po20z6m9CQAgIASEgBLaFwJH48UTk7G5g2xTddAFZJf3z4SGxcMm1XTpVPVZdTQgIASEgBITAJAgcjod/AqHSL17MYO8B2xpflcLNddnFiFSj/p0L3TtwdvftoHfFJGDrWSEgBISAEBACNgLPxD+uRu7bASLsveEuOWQVg2VwUZDvjc9B6H4O/1bADI0fISAEhIAQKAWBu6GUVyLfaDS++evvOnZTUmHRMeCiBPn72NtlXGYlISAEhIAQEAKlI7ADhMw/otRbKHSMM1YXAnWM8GC+JgyivwMOe5aOsgoUAkJACAgBITACgR2CIHxCHETH47dNFMS2cMK/Mw/pUd+Z33z6HLWHbe9zG203p/lsfL4QuaeeIQSEgBAQAkLAFQK7xWFEB6MbKYStYzbzntIF4eXd0aVRZ3SNWT0XwnfikvvPYsHxaLQxdQW06hUCQkAICAEhUESgh6vhP4ov56ghFoWwT5pukRZjPi/EXzaLhJ/h+b2l6arDCwEhIASEgM8I7I9rev4VBNI8ewcy7xAe+OwRnWu+dJ7iwoFm9B/Dc/kl+LwXMq9iVBICQkAICAEh0BgEaKJ9EgTZZ/FJszQFMb2Ds/1gfnqSV0Fr/ySk7F+CnpXIuuavMV1MhAqBbiEgbaBb/C6jtewz90Z+GPIDkXml3iHIuyPzNwpiu19FENBZvfwcDvnzeAnPUos1iS9SmPKT31+L8n6D4s7E1xfg3+dgPXDFeCXrKSEgBISAWwQkfN3i34baKRDZj2YgXfeFdN0Pf++LveIDsAe7Bz53W75ixV743CtNkt0hUNONGzcGzHNzcwGeyYTy8uXL+fcmpFvx/Zq5TZuuRVk3QNTeAAF7S384uBUS9/eo6Tp8fzHqoGlZSQgIASHQSAT+P1FLmQ7U+v4vAAAAAElFTkSuQmCC;" parent="1" vertex="1">
          <mxGeometry x="370.89" y="-27.210000000000008" width="39" height="42.42" as="geometry" />
        </mxCell>
        <mxCell id="qUHYum_QUu2UJPCzKtRe-71" style="edgeStyle=orthogonalEdgeStyle;rounded=0;sketch=0;orthogonalLoop=1;jettySize=auto;html=1;dashed=1;startArrow=classic;startFill=1;endArrow=classic;endFill=1;strokeColor=#006EAF;strokeWidth=2;" parent="1" source="qUHYum_QUu2UJPCzKtRe-41" target="qUHYum_QUu2UJPCzKtRe-70" edge="1">
          <mxGeometry relative="1" as="geometry">
            <mxPoint x="420" y="-177.20999999999998" as="targetPoint" />
            <Array as="points">
              <mxPoint x="440" y="-6" />
              <mxPoint x="440" y="-6" />
            </Array>
          </mxGeometry>
        </mxCell>
        <mxCell id="qUHYum_QUu2UJPCzKtRe-80" value="" style="group" parent="1" vertex="1" connectable="0">
          <mxGeometry x="612" y="310" width="82" height="60" as="geometry" />
        </mxCell>
        <mxCell id="qUHYum_QUu2UJPCzKtRe-81" value="&lt;span style=&quot;font-size: 11px&quot;&gt;&lt;b&gt;&lt;font color=&quot;#007fff&quot;&gt;Micro-serviço&lt;/font&gt;&lt;/b&gt;&lt;/span&gt;" style="ellipse;whiteSpace=wrap;html=1;aspect=fixed;strokeWidth=2;strokeColor=#007FFF;" parent="qUHYum_QUu2UJPCzKtRe-80" vertex="1">
          <mxGeometry width="60" height="60" as="geometry" />
        </mxCell>
        <mxCell id="qUHYum_QUu2UJPCzKtRe-83" value="" style="endArrow=classic;html=1;dashed=1;strokeColor=#006EAF;strokeWidth=2;startArrow=classic;startFill=1;" parent="1" source="qUHYum_QUu2UJPCzKtRe-81" target="qUHYum_QUu2UJPCzKtRe-30" edge="1">
          <mxGeometry relative="1" as="geometry">
            <mxPoint x="720.25" y="120" as="sourcePoint" />
            <mxPoint x="599" y="130.0000000000001" as="targetPoint" />
            <Array as="points" />
          </mxGeometry>
        </mxCell>
        <mxCell id="qUHYum_QUu2UJPCzKtRe-85" value="" style="shape=image;verticalLabelPosition=bottom;labelBackgroundColor=#ffffff;verticalAlign=top;aspect=fixed;imageAspect=0;image=data:image/png,iVBORw0KGgoAAAANSUhEUgAABdwAAAKBCAYAAABNgmnDAAAABHNCSVQICAgIfAhkiAAAIABJREFUeJzs3Xl4W/WZL/D3aN+sxbKtOF7kBeMkTmKThCUhKQazBxrT0kI3kul9ZuuWQKGlnWlDC2Tm9s4dMve2987z3JnGUErD0hKmLYG0FAFTSjvD4MSJQ4A4VhJw5E22LFmytnP/0PnJRzo/K3JiW16+n+eZgcg/O8eUKOF7vud9iQAAAAAAAAAAAAAAAAAAAAAAAAAAAAAAAAAAAAAAAAAAAAAAAAAAAAAAAAAAAAAAAAAAAAAAAAAAAAAAAAAAAAAAAAAAAAAAAAAAAAAAAAAAAAAAAAAAAAAAAAAAAAAAAAAAAAAAAAAAAAAAAAAAAAAAAAAAAAAAAAAAAAAAAAAAAAAAAAAAAAAAAAAAAAAAAAAAAAAAAAAAAAAAAAAAAAAAAAAAAAAAAAAAAAAAAAAAAAAAAAAAAAAAAAAAAAAAAAAAAAAAAAAAAAAAAAAAAAAAAAAAAAAAAAAAAAAAAAAAAAAAAAAAAAAAAAAAAAAAAAAAAAAAAAAAAAAAAAAAAAAAAAAAAAAAAAAAAAAAAAAAAAAAAAAAAAAAAAAAAAAAAAAAAGD61CbTpkJfAwAAAAAAAAAAAADAgubaemvHmn/9l3OlW7d2FPpaAAAAAAAAAAAAACBFXegLgOmpvOcLv6z58l9/evzDj4ZKt227JjEeXh3q7n620NcFAAAAAAAAAAAAsNQhcF9AXFu3dtR8+a8+TUQ0MTg8pi0tsVkvX78qOjhQG37/gwOFvj4AAAAAAAAAAACApQyB+wLh2rq1o/7++7azH0d8/SO6sjJ7fGws7Gi9ZkN0cBChOwAAAAAAAAAAAEABIXBfAJZ/8hP763ft/Jz8tUQ8IaqLiozhD97/SFtWardv2tgSj8Zaxo8efbpQ1wkAAAAAAAAAAACwlCFwn+fKt27tKLvh+s26sjJ7pK/PrymyGImIBEuRkYgoNuIPaZ1Oq0hEpnXrVsSH0HQHAAAAAAAAAAAAKAQE7vNY+datHY3337edjEa9Sq/Xhk97+3VlZXaRiJIkEBHRxLk+v66szE5ElCQi68aNLXFR3BA+cuRnBbx0AAAAAAAAAAAAgCVHVegLAL7quz/9XKM0s11TlGqzk0o95f9e4z29Pvb3xdu332a99ZaO2b5GAAAAAAAAAAAAAJiEwH0eWr51a0fJ5s0biIhE2etiMpHMfs3c1OQmIkqMhyJEqZY7EVHZffdtt9629Yk5uFwAAAAAAAAAAAAAIATu807N5z7z/MoHvr5d4LTZ1SazgYgocLTbq/hEtfK87a5P31aEpjsAAAAAAAAAAADAnEDgPo+47/rUs/V//uftRERJTpvdVFvjmupzxUTqfHxsLMxe05Qvc5Tct2u7GU13AAAAAAAAAAAAgFmHwH2eqNy6tePSv/7rO9mP9cXFViKi0WPHFG12QavVEBGJsjheU+y0EhFFvKf7s88bb7nlOuMtaLoDAAAAAAAAAAAAzCYE7vNA5cdvf2LVA1/fHg9MttMN5eUOIiJVOlyfJMZicSKiaF+fn72mK1/mICIiThgvxmJx2327ths/dedzs/htAAAAAAAAAAAAACxpCNwLrPK2rR21n7n7NiKi4GllOz0phety+urqMiKi2PBwIJ/z6uqqMiIi3aarN+jQdAcAAAAAAAAAAACYFQjcC6jytq0dTQ98fbuRtdl1yjY7E5G12TVFRUYiIpIWq/LOT/T2+tjfq6TzolqlMt67a7v27ruen7FvAgAAAAAAAAAAAACICIF7wVR//PYnmh74+nb5a4mosp1uaWpyExHFhocCRFmjZZJxxWJVvXQ+GQpFiIiSso8lE8kkEZHui19sF265uePivwsAAAAAAAAAAAAAYBC4F0D1bVs7Km69pXWqjwd7enyKF6U2e8ZLJrOBiCh4lLNYVa1SnnemFrHGuo95Vfft2o7QHQAAAAAAAAAAAGDmIHCfY3V33fXs2gce2J5MJJLZH7OtTrXT4+PjEaLsNntC0WY31ta45J/Pa7PHxyYXsQrLpMWqEvW9O7erb9v65AV+KwAAAAAAAAAAAAAgg8B9DtV/7nPPr/rSX99JRKQ1mwxERP4uTjud02bXFqfa6YGj3crz2tTsdzmNdD7mPdNPlBnUJ7W69Hn1V778OfXNaLoDAAAAAAAAAAAAXCwE7nOk6vatHSv+8s/b2Y/NtbUZ7fSMQFxqs8dk7XSDtFh18vzkZyRjqdnvkb5zk4tVy1NtdlHLWcQai6ZmxZ/z+YmI1Lu+tl396U9jkSoAAAAAAAAAAADARUDgPgfq7r77ubUPPLB9pOuoop2u0inb6XqpnR46fbo/+2O8NruuurqMiCg+lFqsKsfCeDmxaZWbiIhk59Vf3NGu+fa3OkkQSs77DQEAAAAAAAAAAACAAgL3Wea+bWvHyi/91Sflr2W006OpQDzc15dup7M2u4rTThelAD0qO68pKjISEZE6NYpGzOyzExHRxKne8y5iVX1sS7PqgftfJkGw5/ntAQAAAAAAAAAAAIAEgfssct+2teOyBx7Yzn6s0ukU7XSL1E6fGBrOq51ubkotVo0Np85njKLhLGLVsjZ7KLWINeMA57xwbes61bce9KDpDgAAAAAAAAAAADA9CNxnia2hYedlDzywPSMQj6Zmp4fk7XQra6erpHa60vipU+dtpxMRqcxmAxFR+JhyEWuS8/UFU2pxa7L7eMZ5YcvmZtV9u15E0x0AAAAAAAAAAAAgfwjcZ4G5omLH2l07781+3bF6tZuIKMJps4uJpKJtbpHa7InxUIQoa7RMMp7Mfk1bU5OxiFX+BdnXT8oWsQo17ikXt6qWLy9TfeubHhKE0uzrAgAAAAAAAAAAAAAlBO4zzFxRseOG/T/bx3482qtspwtS21xObU61zUeOKher8trs2mKnlYgoeFTZZuctVlU5U4tY42eUi1iJs7iVqqvKVFs2N6u+8uUDaLoDAAAAAAAAAAAAnB8C9xnkWNH4dRa2O6U2ezyYaqfL8WatW2prp2ybi8nU+Zisna4rX+bI+Jryv5dmv8flbfZlqfOiNjVHXhBlP4O0uJV8vvSoG7JYjEREYl1dFT2Ime4AAAAAAAAAAAAA54PAfYZYKip2rPna176a/bqoVrbT9VLb3N+VXztdW5w6P+49o2in887rqqvKiIhi0vmM8D4WVSxiVUnnxcEhxagbSiaTtGVzs/DII2+i6Q4AAAAAAAAAAAAwNQTuM8De0LDzRtkYGZK3x6U2ezQQSLfNjeXlGe30jMWqUjs9LFusapDOq6RwXZR9Bjsf6TuXPq8qSi1iFXMsYhVO9U6OupHa7MQZdSNKi1WFYrtV9eA3PQjdAQAAAAAAAAAAAPgQuF8kS0XFjut+/K97iYhUOp2ybV7ilNrpytnpKs7sdHN1dRkR0cSwcrEqC9flTNJi1fiQsp2e5CxiFZtWuYmIxPFxxagb3uJWckuLVcfHI8KWzc3qh3b/gQShWHEOAAAAAAAAAAAAYIlD4H4RLBUVO26SNdsT0dS4lnFZO93E2ulSGJ/RTo8q2+waqZ3OFqXy2ulheTudUbPzk5+hkhaxTvDOq5RtdmJt9u7uKRe3CpevX6F+8IHfoekOAAAAAAAAAAAAkAmB+wWy1dV9SR62ExEVud1lRERhaRZ6xqiYqHJ2un11qp0+MaRss1NSuVjVLLXZk+OpRawZX5+ziFVdU5Nqp4dSbfaMA6zNHgymR91QjXvKxa0Cu55gMKzasrlZ/eADWKQKAAAAAAAAAAAAIIPA/QJYKit2XHb/179BRBSStdN1VquRiEjFWZTKjJ46xWmnK2etq6W2+dixo4q2uchpp6vMZgMRUfiYchFrMj37XXZeWtyaPK1cxEqcUTdUlVqsSmdS51VbNjcLjzyERaoAAAAAAAAAAAAAEgTu02SprNhxy/79+5xr1riJiMKDg5zZ6fEkUWbA7Vi9OjVrPZTf7HRjbe2UbXPWfo+NjaXb6VrWZmdH5J8rzX5Pys6Ty5Va3KpThvEkjboRfb70zYT0YlV5eN/S0iA8eD+a7gAAAAAAAAAAAACEwH1aHA0NO2/Zvz9jjIxKrZy1rpXa5sNHle10QS0o/pnrpbb5CO+8Vtk21xanFrFGpEWs4nnOq6pT7fT4GeXiVhauZ5DO05BfOeomljUaZ/PmZmHPw2+h6Q4AAAAAAAAAAABLHQL3PFkqK3asu+/ee7Nf581Ot2a10zPPp9rsscBk29wgLVZlMmazS+30iHx0Tfmy1CJWzqgYdj7ady59XpAWsSal0TWCqFzFKsoXq0ptdja6RpCdE6RRN2Kv7PzaNfVS0710qu8bAAAAAAAAAAAAYLFD4J4HR0PDztv2799HnDa7saTESkQ01NWlbKfrdIq2OWuzB73KtjmvnW6sri4jIprgtM0TMWU7XSe10xPSItaMaJ0zuka1aqWbiIjGlaNuKKk8T25psWr2+c2bm+lLf30ATXcAAAAAAAAAAABYqhC4n4e9ru7LN+378V4iIlFqs0cDgXQ73ZTVTidZezwZTY1fGZe1043SeRVndjprp4dl5zVSO11QsbBf2U4fl7XTVdJ5kbOIlcypdrogb7MzauUiVlFqswvHuzmLWzmLYde1rKRvYqY7AAAAAAAAAAAALE0I3HOwVFbuuOmJJ37IfmyQ2uxjvb2KdrqK02Y3uVPt9OjgkHKxKmd2upm12YeHFefFpHJ0jampyU1ElAyFIkRZ4b3UZpe/JkqLVUVOmz29uDUYnFysytrsEkH+1dj1yM+7XA7avLmZdn71RTTdAQAAAAAAAAAAYKlB4D4FW13dl7bu378vJGubm9PtdGW4nuC02XVWq5GIaHIUjbKdPnbqVLptztrspFKOrlFLbfMwp50uqlnbfPIzVFKbPXpU2U4nzugakkbdCKfzG3UjVkmLVc+cUS5iXb68jL4x2XRXaXWtF/J/glrdovjaAAAAAAAAAAAAAPOUMngFKqqs3HHdD3/4D0REkcGBgEVaUsqwcF3OuWaNm4goPDgUMC1b5sicna5sp9tXp9rpidC4op1OnDa7QVrEmhxXttnFRCJJL79BQvcHpJZesxG5iF4jC5GbfvsfREQk22haQfRW9k/Bvkc3/e6d7I9V0Mt/yn7NmD7/6pHsj7mJyE23fmYg+wPT4fX88s9iobHOi/kaAHBBDESk3OsAAAAAAAAAAAA5oeGepaiycsftT+/fx9rpAmdRKjPac0rRNleplbPNNWazgYho9JTyPG92Omuzjx07ymmnaxQ3SbQf9JVT9wecK1y4pLC9o9DXAbDUaEymjdc/9+y5hs997vlCXwsAAAAAAAAAwEKDwF3GVlf3pduf3r9P/prIaaezNnssFFQ0QJOJuGJ2epHUTo+Hpp6dHg+MpWehG6Xz6TPyv5cWq8bGUuejL71Bqp4zuvN9bwsJwnaAwlDr9S3rvvfQPmNZmW3VX/x5+6UI3QEAAAAAAAAApgWBu6SosnLHVd968EGizIBbK7XTB7u6FG1zFaf9bnQ6rUREw0eV7XRBp2yn66XZ6cHT3rxmp+ulxaoR7+n+6EtvUALNdgCYARqTaeO1P/2JRys9YUNEtOov/rzdffvtHQW8LAAAAAAAAACABQWBOxHZamr+8van9+9Lctrstro6F+9ziIjY+WggkG6nm6TFqtzzUamdLmuzG9giVilcl4f3SanNHpEtYmWLVcVubwnCdgCYCRqTadNVe/c+Zygrs2V/7LJvPLC9ZtvHnyjEdQEAAAAAAAAALDRLPnB3NDTs3PrTJ/+ZiMhYUmIlIho4omyzC1qdIhBn58e8nHa6Tqdop5uldnrQe1pxPiGF63JG6fzEkD8gfz380hsknPGZc35jCwzCdoDCUOn1La1P/fSQ7dKG5URExNlDUXXTTR+rQdMdAAAAAAAAAOC8lnTgXlRZueP6//VPf8d+bMnVTo9F40REIVnbnLXZVSxcFyfj+GQ0dX5cdl5rLZIWsaqmXMQ6JlusytrsgoqNrhEp/NIbFDuGZjsAXDyNybhxy5OPe3R2++QNPOnJneGjxzJuPK77xgPbV//VXx0iQbDP8WUCAAAAAAAAACwYSzZwL7700l3bnt6/b5TTTldxZqcXud2p2ekDA4HsjyWkcF3Ovma1m4goOjgUIMpafCotSpWzNTW5iYgS45zFqslUAIawHQBmikqvb1n70O59vDEyGUQx/f5XumH9qiu/95BHEISSOblIAAAAAAAAAIAFZkkG7tbKyh237vvxY0T8cJ2Nd5G32XVWq9ROV45bYAKydnpa+vxk5K4xp5YSjvHOq5SLWNUmk2H8pdcpeuz9XN/WgnOuuvhMbDz4q0JfB8BSozaZNm3+yeMebVGRKZ/z7P0vGY3GK6+9tnnTf//71xG6AwAAAAAAAAAoLbnA3VpZueOOZ57ex37Mm51esmaNm4goMqhss/MWqzql87FgKEKUNSpGOi9/zVJb6yIiSoTGleelNnt8bHKxavLEGddiC9v7WzdQ8ObrqujenS9jRAXA3FGbTJs2PfXkIUNZmY09bSO/uZgPrcVi2vh3e14jQXDOzlUCAAAAAAAAACxMSypwL25o+Nodzzy9jzc7fbSnR9E2Z212+Xmt2WIgIhrsUi5WVUmz2eU0ZrOBSDkPmYhI0Cnb9ZriYisRUfh0atTN2ME3Fl2zvb91AwUurUn94Jot6+j++zyEtizArFPp9S2bnnryUMbMdiKaGE6NviKRSF/itObztcqvvnrVxx77xz+g6Q4AAAAAAAAAMGnJBO7WysodV97/9fuyXy+V2unRkLKdLnLa7Na6VDudh7XfJwKBdDu9qDbH+WiqXR8PTLbZDdIiVkGr1YwdfIMiizFsT0Qybz5s3tRMX/3yi2i6A8wetcl09ZU/edyjzQrbs7Fl0JRjfBZTtmFDw5bH/vFN/NoFAAAAAAAAAEhZEoG7tbJyxyeeeXqfVmqb9x85wmmnK8MlY0mJlWiKNrtOpyHKDOiNzlQzNHj6tGIRq6DTKNrs5urqstR55eLWic4TtkUZtjfWEHHm5tPy8jK6/14PCULp3F8ZwOKm0utbmnZ/918NZWU2+Q2+XNgNx6Guo4r3PznXhg0NV3//e1ikCgAAAAAAAABASyBwd65Y8fVPSDPbHXV1522nR2XtdDNrekrk4XoyGo0TEY3LZh+zZigL4zO+vtRmD8vOa6xFRqLJxa3s6wcOvk6J0wOW/L7DhaG/9fJU2E5ExJmbT5UVZXT1pmb6y784QGp1zZxeHMAipjaZNl3xxOMetbSsOSTdEBRpcoFzPkQiKnK7y4iU73FV117bvOH++19A0x0AAAAAAAAAlrpFHbhbKyt3XHnvrq9mvy5kBdxEk2320V5l21zQKgN0FjyFBwcVi1UTUhgvx9rskcFh5XlZAB04+DqFF12zXRa2y/l8k4saLRYjERHV1lTRP/+ok4zGTXN0eQCLltpk2rT+pz85ZCgrtfE+zhY4C5z9Ezw6q9VINHnDUX6D0lZXW7Hp+99H0x0AAAAAAAAAlrRFG7gXNzTs/MQzz+zjfSwpBdxBWdvcIrXT1ZxxJ8lYKlwKyc6z4Ck9ikZUrmIN9pxKL2LVSm12FmzJT2tMqZZp/3MvhRdb2O5bVT2kCNtXrnATEdGwX3HzgZLJJJWU2Oj//ugQ6XQtc3CJAIuSSq9vWf/Tnxw638x2IqJkIpkkynxiJx9jvb3ptrzWbDag6Q4AAAAAAAAAS92iDNxNpaWf/Pjjj+8l4gfothzt9Dhn3IlTWqwaGRhQttM5i1Xta1a7iYji3EWsScV5c22ta/jg6xTr/dCY49tacPqvvYLGSmxBIiLyen2KA7xWrcmYGnHR1zdIP/pfHoTuANOnNhk3rn+iwxP3+4PT+bzI0FD6PU5fktpJkS+bNLLL3tBQtRlNdwAAAAAAAABYohZd4K7R61vaOzoeZz9OcNrsinY6R6DnpCIgFjjntWaLgYgocOoUJ1Bm5ycjdzYzeeTosfQiwuGDr9P4Imu29197RWqMDGuzj49HFIc4Nx+ounpyzn5JiQ2hO8D0qPT6lkt3f3efvqzUlhifvOnHxlrlK72TIs9xM0wykUhWX3dt8+aHH34FoTsAAAAAAAAALDWLKnDXmkwb79y/32NwONIjFMqkdnqIN2ud004vkc7HOO30JOe8tS41AzkWVJ4n6fxEYCw955jNTGYGD7626MJ2XxNnjAwvtCu2pxq0x9/1Kj6mkZ5MQOgOkDe1ybTpsic60gtS5TRF0lgrXerXVlz2vpQLe98L9HBuKuZgKHHarv7+93+L0B0AAAAAAAAAlpJFE7hr9PqW6x55ZJ/Z5bIN9/Qo2+kqtWJ2us5sNhARjfLO52izD3Z1KQJitU45ukbvTI1kCJ4+rVzEqtNqgkffo9DRxRW2jzXW0FiJXTnGgrXZg8HJkM/lckz5heKy0T4I3QHOS202bV7z5E8O6aZYkMoko9JTP5z3pVxioWD6KRW2NFqlUy6Ulqu+7trmtsceexOhOwAAAAAAAAAsFYsicNfo9S13Pv20p/KqqxqJJtvpcmJS2U5nM4ej3FnrqfPRQCAdELM2e/qM7O8T0dRi1QnZ+fRIBk4YH/GeMwwdfD2fb2/BGGusId+1VxBpNcoQrtiRarOfPqsM+TTKfz5UWZE5/gKhO8CUVHp9S+13vvMvGrvdLBKR2mRWNNxzsa9uSo1+ynN8DBvLxd735O+T2VyXb2hoe+yxN7FIFQAAAAAAAACWggUfuGtNpo13Pv20x+JypVudgkoZGplKSqxERP1Hjijb6ZzFqkbpfMDrVQTEvFZnkTQfmdcaZaEUM3b0PRrvfM851fe0EKXDdiKiWDz1/fp86bn56TY75591us3u6588b7EoF8gidAdQUBmNG1c9vs+jkY2RMdXWpG4OqqbeU8EVTz2JMi7beZEP+fuk1qwM+5ddvqHhmoexSBUAAAAAAAAAFr8FHbhr9PqWtkcf3ScP24mIksmkop1ukdrmTEY7XVqsKj9vZu10bSpcz5jlLgXo45xFrGKORaxjPad8Y0ffo4HF2Gy/7srJF6oqU+30oWHF3HyKxeKK11Y0ptq1w37l+WwI3QHSVHp9S83u7+6bcoyM9GTPGG+pcw4RaeeFSERGaTRWvtiTQ9lLqWuuu675ygfufwFNdwAAAAAAAABYzBZs4K41mTZ96umnPQa73ZL9MdZmH/H2KmencxrWNmke8Wivss2eiEUVATGbXxzmLGIlzmJVNq5h/IMzmsUWtgeWO4O+667MbLOzdnqu8RRerzIA5DyZwIXQHYBUBsPlK3/65BsqzoLUbInx8fSYLbP0NE6+2Ggs3l6LXNiy1aDsxqSjvr4CTXcAAAAAAAAAWMwWZOCuNZk2fWr//oMWl8vG2uljslCHtdl5o2KS0vkgp52eK1AaPTm5WJWdTzc4xcn+u8aSGqcQ7MlslI4dfY+Ci3CMTP+261M3PHhtdrYoVW7lilSbfTysmLNPSc75qSB0hyVMZTRuvLTjx79RFzss5qbUDT3ezUQejbUo9X4n7ZaIBcamnL8uxwL00Z7pteXDsra8qaTEiqY7AAAAAAAAACxmCy5w1+j1LZ997rlD5tJSKxGRXWqbhwYGFIFvgjO+xJajnZ7ktNOda9a4iYjioaAiIE5wzltqU4tV47JFrGNH36P+FxdXs32ssYb622RjZHhtdpPUvD1+XDE3n3veIS1WffeE8jwPQndYglR6fUvV7u/s05ZmjpFJSk/jRPKcv56MSjcfvam9E2Lu42kx2Xshe9onX+xmaHHDpVWtqaZ76XQ+HwAAAAAAAABgvsurETlfaE2mjZ9+6qmD0UgkqiMyExHpWdtcGkfCC42Ge3p8DmmusKKdLv/60rK/QM9JH5tDzPDa71qzxUBENNR11OuUxsakSedHj55YdGF7YLkzONB2ZeYoH16b3V3tUryWfT4YDJPZnBpB4ypzTHl+Kix0//LXWika7Zz25wMsICqjceMl+/7lYLy/f2SqMxND/oCxvNwhEpG2uHha89cd0vsYbzE0T/rpIGnXRTQQCLPXchGTiWTNddc1TwQCB976H//wcVEUh6ZznQAAAAAAALB0CYJQI2i0NTP19ZKxqGemvhYA0QIK3KVm+28MDof5XFeXN3sJapIzjqRMaqfHZG1zhtdOZyE77zxrv0cDgbBWCpSsdbUZgXJG2J9IJEePvkfnXnwt/29yARhrrKGBSoefiDID92KpnX78XW96bAzDG3VRbE+dP3O2P700ldHkNxojDaE7LAEqk2lT5T/+z2e1paW2XIG7nEEK3kk1zfnrssXQ5qz3Wu55qV0/5u3td65Z6863LZ+a6f7wK6995zvXi6I4OJ1rBAAAAAAAgIVPUKtbBJXaLqjVdp3Z2kJEpDVZanRF9hp2xl7beM1cXlPEP+CNjAz3EhElopGRiH+wk4goHhnvTUQnesVkYkRMJJA/wZQWROCu0etb7n7maY/B4TATEQmc5Zo6qZ0+3NPjs2e30zlhEzs/0NXlLZWCeUatVbY7DdIi1oDX2+/MPq/jBMQTifK+Vzzn/+YWkPQYmePHZe10aUGqyzV1KMdG+/h8fiqTzrHzvHA9rhwFdF4I3WERE/T6luonHj+ksdvNRCL/JlYuSWmBaU+Pz5L1/phLZGg4YC4vd5Aopp/oyRd7X+U9TSRXc911zQaL5c2X7713E0J3AAAAAACAxYW10bVGS4tKq7UbHCUtap3BbimvatEYTLbzf4W5Z3CUug2OUnn2t22qsyOnTrxGRBTynfUkY7GRWDjYKcZjvaIo9s72dcL8Ne8Dd63JtPGunz110OJy2dhuUl6b3ZHVTpcTk5PtdE1RamFg9siYjPa71NaMBgJhjdRmZy1PNmoh47zUBg319fn1y8sdo13vke+VP+ou7Duen4Iraqn/uitSP5DGVIinz/TTypVZbXaN8t+pqsrUnOcjxlasAAAgAElEQVQhfyAduDO8cD278Z4vhO6wCAlG48bKH/+/g2q7zcxeE6WbWKGjR72W1avzbpTHx8fTT++Yq6unNX+dPdFzvgA9G3uaKNjX5y+aoi2//IorGm5+7LE3D9577xUkinm19wEAAAAAAGD+ENTqFpVWV6MzW1sMjpIWvdVRYymvbi70dc021r7ntfBHTp14LTo20hsbD/ZOBPweBPFLx7wO3DV6fctNP/jvT1hcrow7XiapbX6uq8vrymqbqzjNT3Z+pLe3v0TRZleet0qLAANeb39x1nk2akGuSAquIkNDgcjQmOPci548v8OFIbiilgZW1/iJKLOdzmvZxuKyNrs0k90iteB5i1IZ72kfVeeY+Z4vhO6wmKjVNWX3P/CUzvO2TSCBiIhiRKQ+e84dfvk/SCByh17+EzvtHnnpT0RE7oGX3sr+Su7QwbeIiNxjB9MfY7PW3cMH/0BERLbVl1L51tacl8TGawV6Tvmyx2rlMj4wEGCBO3tPllt+xRUNbQ8/7PkdxssAAAAAAADMayqtrlVrtLRoTOYaY3FZy1yPfFkopH8u7J/NbiKieGR8NNh3pjPkO+uJhgKdyYlIJ0L4xWfeBu5ao/Hyu/f/7Ddj0qziSCAQ1hel2uZTtSSJiBJS8zO1vC/VZmfz3lkYL3LOB/v6/KZlqXPppX9Sk5PXHg30nPIVSWETOx/xDReNvP3uBX/P81GooTox1Halmrq7A+kAnYlx2ulsfvvQsPI8b7Eqa7OPhxVPJlwwhO6wGAhCif3bDx5IljnVYomLhEO/JyIi5S+imTN69D0iIjJUl5z3bCwUTLfli6SblPli78nZ475q29qaN42NvfD7H/xgK5ruAAAAAAAAhScIQo3GZGnVFdlbEK5fPI3BZLPXNl4j/+cYj4yPjnrf90T8g50TAb8HS1wXvnkZuGtNpk13/+ypFy0ul42Nj/H3evuX5dFOt0vBz4i3t78s63yCExDbpPPhgcEAC9wZkbNY1ZlexBrMCIj9R9+jkbffLc73e1wIgivqaKjtCjURkZhr6WKv10furHY6r81uMqVmQB9/10srs8bGcObyXxSE7rCQCUKJ/e/2vGlYv64hdqzbK66+hGJ+f0D7H92KZvhMk0J3N62ZHKF1PuymI9t/EQ0Ewnp24zIHNu7L19XlZe/vxfX1FWi6AwAAAAAAFIagVrfozLZWU1l5q7lseUvWLHOYBRqDyeZsbN5GqVnxu4lS42jCw/2dkZFBTyISPlDYK4TpmneBu0avb9n2f//5WTZGhrXZ1Tna6WN9fX7LsmUZ7XTeolRmtKfHZ5VmuKfPc+YSa6TFqqMnexSjE9LnRZH8R9+jDxfdGJk6Gmi7ilSsT5tU3nxIz2+X5kJn4LXZs0N5OTaXPxgMp0fQXCyE7rAQCYLd9nd73tStW9cgfznmMPu1N2620qF/n/VLYE13Y3VpnIhovK/Pb1q+fOrFyBK2/2K019tftnbNBf2hzO52ly1bs8YdHRt74Q003QEAAAAAAGaVIAg1uiJHu6msvNXmbmidr4tMlxpZC34nUSqAD/nOeiIjgwfERAIZ1zw3s63ii6Qzmzd/5ulnPIloJJb9MV47nbXZQwMDgeyPiZyAuFRqUEY5i1WTnDY7W6waz2qzy88P/WdndLGF7YGK0tBA21UkyG5viOl2+nGv4hN4bfZih3XK87zZ7w7p/NkP+y/sqqfAQnedrmVGvy7AbBCEUvPffMujW3dZA/fjTQ2kvmnznFzK6NH3KHDsAycRUXhwKECUuuGpNVsM0/k67H2Xd1OThzXjnStWuG94+GGPIAil07pwAAAAAAAAyMWuNhjbrVX1HZWbbuitv/Uzp6q23PyYs7F5G8L2+cte23hNxVVtu+tvvuudmrb2EcclTQe05qIdRGQv9LWB0rwJ3DV6fctnn33uJYvLZRNyjBfx9/T42N+zYEYlnZe337VSO31Ydp7hBT/s/FDXEUVALHDGKhhLSqz+rhPU98ofdTm/sQVmbEUdDTVWKsc4uN1Tt9MTsnY6wxar8rCbJz6ff/K8NO9dwwnjLxZCd1gIBMGu+dpXD+g+tqU5MSb7tZRF1XQJaeYodB/3+ixns24osqd9VHkG6Ay7SRns6/Of7ywRUTIWi9e1tTVv+cY3DpAgLKpxXQAAAAAAAHNJEIQavbV4l+OSpgOXbP2sv7btjufL1l65HeNiFiY2gsbdevu+S7Z+1r9s3eZOvbV4lyAINYW+NkiZFyNlNHp9y+ee+/nrRofDTEQkJpXjSJblaqdzzjukdnpMOi8P41nwk1qsmgrtWZudyTgfjaYXsWql8xODAceHv351Ot/mvDe2oo58bRtJ7Ts32U5nS1AZXjudtdnPnO3P63xVRWrB4rBfuVg1zlnEOhMwXgbmM0EoUf3tt35LzhI7EVHi9Ol+TVOTWyQildmkaJSrmy4hFRFFX5798TIjR9+j2Nio07l2Tcbr7H109GSPz15fN/UNuSzjg4MBtjTVVFJy3pn0jvr6ihseefh3v/1bzHSfbVpz0Q6NwVRT6OuAuRENBTrFRGLKkU1iMjGCR1UBMuF9cvGJR8Z7E9GJ3lxnsLgOABYqQa1uMdhL2m3uhnZLeXVzoa8HZo+lvLrZUl79GBE9Fuw7fXjsI69nfOCjDvx5vnAKHrjrzOar7/rpU782lZQUyV4zEBH1yRbpMbz2Ozvv6+ryluaxWNUohTyjXm+/8ryyzV4kja4JeL39zjVr3P6uE7TYwvZggzvha9uoJiJFO11+8yGjnV4mnWPntRrlv0+882xG+0wvSj0fhO4wHwlCiebRR94UL1/fQMe6FU/YqGtqXETKJ3PUTQ0knjs3JBxOjX2ZTSGvz3L2169S1dZrFR9jI7dEIrJK75X5YsF7rqeaiIjq29qaDUVFb/5q565NCN1nj8196Q5pRiAAV7Dv9OF4JDxCRBQdG+mNjQd7iTIDKwRTsJjhfRKIiCL+AW9kZLiX/TjkO+shIkrGYiOxcLAz9ffRTiLCHhoAmHOCWt1iKl2+w1G3oh3t9aVJCt+biWhnxD/gHTpxpCMy3N8himJvoa9tKSlo4K7R61tufOSRf2ULUpniuqnbkqzNPiFrpztynGez36OBQFhTVGQkmgx5+ItYU232UF+f3yidYz+PSqfT+LtO0JnFFravqKP+5fazRJTVTucE6FVVZURE4tBwIB2gM7G4sp3OGu9DfuV5zpMJtKJxdn9DQOgO84kg2DV/v+ctVXNzfeI8R1mjPHzK6zPXSiOelhUH9eVbnBMvvTHbV0ojXSdIIOKG7ozOajWKRKTiPdmSA3tfHz550ldcX899P6+84oqG2/5p75u/3LnrCixSBSiMrGZUztCRhfPh4f7OZCw6MhHwe4gQyAPAwmdwlLrlIVaumzAsnGc3KdkNSgTyADCT2NLT0tXrdyFkBzmDo9RdcVXbbiLaHew7fdj/QXfHRGC4g/B70KwrWOCu0etbvvDsM55oPBW0nOO02XntdDaCwO/19ruyzvNCHrZYdaS3t78k6zxvEStraIYHBwMscGdC3j7D8H+9m++3uCAEV9TR4PVXkfj+SQ0RkSD/oPTPR/T5/OnRL6ydnmt+c6/XR+7qzNCMt1jVZEyNyvCe9lF1dd4jKS4aQneYDwShRPOtB39LnKdqcknKxmRpip1WzfJyivadGxIPvz/rTXd/1wkiIqrOEboTTb63DnCeOspFPjLMzmnLV15xRcONDz/i+e1Duz+djMffy/frAsDcY+G8LIjazT7GAqiQ76xHFj55CnGdAACzSRbOK0L5eGR8NNh3ppOF8RMBvwdBPABMg11rLmp3NjbvwrgYyId87MzQicMvBM72dCQi4QOFvq7FqiCBu85s3vy5nz31K4vLZYsrO85pLLSJBAJhfVGqZV6U1U7nnQ/29fkt5csy2ulsHIOY/UlENHKyx2eVWvLsPGWdH+46QcP/9e6sB1pziYXtRDQ5+kVGWLlSaqcPKWetS23bDKzNPj6umLOfXqwqx0L28bDy/GxD6A6FJAh2zVe/8oLqY1uak93HvUREgiiSWF2dCpnzDOF10vucUO2KGMpdFH5p9me6+6Wmu21ljWK2/FREImLBu6DKb9kqW4rN3usjgUDYYLUa69vamrVm07+9/OCDd8cnJvBrF2ABYgFUdis02Hf68PhAX+fEqL8zFg52IoQHgMVMYzDZpPfBjBuTLIgP+c56oqFAZyIS9hBCeACQqA3GdnPp8vaytVduL/S1wMLlbGze5mxs3haPjI8OHHu7Y9x3di9GzsysOQ/cNXp9y82PPvIv2WNkeAE6azj6e7392e13XjudnR8fHAiwwJ1JcgJiFgDFOItYRdn54UU6Rmbg+o0kZN2CELy9PnK7MxfI8gIyk7TIsZuzWJXbZpfOH3/XSyuzxsZopjd+YsYgdIdCYM32ktSC1AxFFiOJIomxiTgRUXJsLKyWRmHlkozF4tqmVRTt8w0l5qDpPpxqurusdbWK2fLnIyZT762pG6OZTxHxsPd6v9fbXy69Z+vMFsNnnn7Gs/+zn7klNj7+h+l/BwAwH8nmTab/A5ItfYqOjXTGx4Me/IcAACx2LIiX35SM+Ae8of6POsf7+zzR0KgHS/AAlhZBEGoMxWU7nI1rd2BkDMwkjcFkK1+/ZScR7Rw5deK1Ue97HbHQWEehr2sxmNOgU2cybfrs/v0vhv3DQSIiUZb1slAl0Nfnty5PheUGNjtdWqjHa6cPnzzpc2S103kNSq20WHW0Z7LNzvACI410/szLrw4NLbJm+1hFSXDw+o0W+Wsia7Pz2ulJTps9K5TPwNrswWCYLOZUWJg9YkYuLt08CQbD6ZE1cwWhO8wlQSilRx75vWr9ZQ2s2Z5LwnumX716lTtJRCqz6byNcqG8OGgq/5hz/KXXZ+Ryc5FCdzJVlySJiEZ6eny59mlkCw0OBljgzkaF5YvdgL3lBz944sWvf/1TaLoDLF6yEJ6IUqFT4EyPJzzc74mFxg4QWp8AsASwJ4Ocjc3biFIt+FHv+x4E8ACLm0qra7W5G3axX/sAs4nd7I34Bx4aOnGkIzzk20v4s/YFm1Yz8WJoDIZ1X/jFLw5ZXC5bIpqjnT40EMj+WJKzXJPNb4/K5hkzIicgtktBUJTTZmft92ggEGav2erqXMNH3qXFFraHVtbR4GUrQkREQne3MvCTblbIm+9icXEqDDvOCQh5i1WLHanzZ870K89z2uyVFakxGmc/VJ6fCyx01+laCvLzw9IgCHbVV758gNZd1pAkIpWzeFohs66mJhVmn6dRrmtqIMvNWy78OqdhuOsEjRz9wElEFJe9t1o589dzYcE7u7maL41Or/3Cs894dGbz5ul8HgAsXAZHqbts7ZXb3a2377tk62f9y9Zt7jQvq9orqNX4PRwAlgyNwWRzNjZvq9py82P1N9/1TuWmG3qtVfUdaoOxnYiUT1ECwEJi11uLd1VuuqG37sY7X0XYDnONLVq9ZOtn/daq+g5BEGoKfU0L0ZwE7hq9vmXH88+/bnQ4zPLXB3t6fOzvDel2ujJw0Uttc7/sPMMLaFib3dfVpQiIeW12o9SuHPP2pgPf4SPvkneRjZEJrayjoes3EdVkjYyR/b3AblYEg+mbD+RyTT32IRZP3Tzx+fyK87xwnY0Ckp9nrfZphm0zCqE7zCZBKFF960EP1dRUpF9jv06m+e89G3cVOXVK8X7IGFY3kP2uW0jQ6y7seqch6PVZvL/6XcZruqz56/liN1eHOe/1U7G4XLabH33kXzQGw7rp/FwAsDhYyquby9dv2Vl/813v1LS1j8gCJwCAJYPdjKxtu+P5S7Z+1u+4pOmA3lq8CyEJwMIhCEKNeVnV3pq29t6qLTc/htExMB+Urb1ye/2tnznluKTpgEqray309Swksx5w6kymjfc884xHHraXr80xO53TZnfkaqdL5+Xt9OyxBvJAmddmN6cXsaYWFQ4uwrA9WFESHLp+U+aLOk4Yxtrs+bbTqypTTdZhv+LJBN4iVqqqmPo853/7OYXQHWaDINhVX/nSC8KWzfzN8ezf+2OpJ07y/UWQHJ98ukdbrGzLa6vKqfiuW0nQqGf919Vw1wka7vpA8TQQGxU2IN385I0F45E/ueTIoy2vM1sMn3/mmd/pTKZN5zsLAIuXxmCyscAJ4TsALGXp9vutnzm1bN3mToTvAPOXSqtrtVbVd9Tf+plT5eu37NQYTLbzfxbA3HI2Nm+ru/HOV0tWrfcgeM/PrAbuGr2+Zds//dPPLC6XrY/TNidB2ezUSe103nmBE/iy2b9+r1cREPPalTYpvBnlnE/EovHBI+9S7yIL20Mr62hwhXuIKCvwkkb7iDna6Rnnc7XTeYtSmd7Tk23VXG12k/G8M6pnHUJ3mEmCUKz+3u4/qFatqs/3U5JEJFRXlxHx3/N4dNJNQzFr34W2rJgMG1f75qLpPuY9ZzmV1XTnKZPGgeXbftfn2Za3uFy2e37+80MI3QGAiB++4z8OAGApspRXN7PwvWTVeo/WXLSDMHYGoOBUWl1ryar1nrob73y1bO2V28//GQCFZ69tvAbBe35mLXDX6PUt9zzzjKdcCld4WJs9ImubF+dYupeUAt8J2fmidDtdGcawdmWwry8dEGePOpAHyqG+QctiDNuHrt/Eb7NXV6Wao0O8dnpU2U6XFquKQ8PK8wlOO33lihyLWDnnq3MsVp1LLHQvX7aj0JcCC5gglNCDD/6OLt+wIj3GKdeNKRlVUerGFHvPi4+NhXN/hkQaCRU4OrmfQWUxROeq6T7UdYJ6f/VKXmd578/5nD939MiUy2aNDof5np///JBGr8cNMwBIY+F73Y13vlq56YZeo9P1EJqeALAU2Wsbr3G33r6vpq29FzciAQpDay7awYJ2e23jNYW+HoALIQ/esUuJb1YCdzZGxuJypR+FUet0isCXzU4fybOdzhar8trscc74kvQi1gHlItZE1vmhI+/SwNuLa0FqcGU9pcfIRKdup7NWrMD5GmJvr3KWMm9po8mUaqf3ejnnc7TZj5+YMjwrqJISG/2fH+5D6A4XRBDs9JUvv0BZY2QE6cZUxlMleYh5UyOeRCJSSU8B5UMkoqKmJremzEmmLS2Dqjlouk8ndCciGh9MvT+LNPmEU77Y8my17IaiyeEw3/PMMx6dybRxOl8LAJYGtgSKzaLEyBkAWIqyb0TqrcW7CK13gFmlNRftqNx0Q6+79fZ9CNphsbDXNl5Tf/Nd72C5qtKMB+4avb7llj2P7pOH7URE8WiqMS1vs1vzaKePydqPbLQAb1Eq4+85mQ58WZudLUqVt9lZsDNyssc3dORd6v31+UchLCTBVfU0eOPkZAXVKqmdPjiU1+x0QWqzc9vp0hz8DG6pnc49n1QuYp0vbfbzQegO05VqtmcuSM02OPmUiMqpnL8+NZG0NTUuIv4C6JwM2nDpXbeSSqfNd5T6BRvqOkE9v3wlfVM1X2z/Rq73eJ6EdEMxIP1+YXG5bLc8+ug+NN0BIBdnY/O22rY7nkfYBABLmcFR6q7acvNjrPWOwARgZqm0ulYWtGMRKixWbLmq0el6iPBnaiKa4cBdrdU23vPcMx6j3WHJ/pijpqaMiGikt5czO33qdnpwYFARECc5ATGbC8xbxJrkBMQ2KdgZ+cCrWWxh+1hlaXDgxqtJOMVrpyuDLFFqpwvHuxVtc1HFCfXYgsbu48p2ulbDWcTqkBaxnlUuYtXkN8e5oBC6Q74EoYR27349u9meE9ubMM2QOb0AOs+RLERE2jInGa9cdW4umu6DXSeo/z+7HUREqjzntTPsPd7f06N8D8shNDj5+4WjpqbsnufQdAeA85OHTRg3AwBLFWu9syeAMG4G4OLIZ7QjaIelouKqtt01be290r6QJW3GAndBEEpu+v5DTxe5XDYWoAdkQZCBtdOlwFfkdCyHT0220w1ZbXZeO3345ElFGCNwAmKtdH4gaxHr4JF3aeDt44tqjExkZT0N3nmLhYhI5LTNRd6sdbd76ra5NBM6o53OAkKeWDw+5Xle6BZno276pzViY84hdIfzEQS78Mgjb9IVl68kosnFw/JfC7lIvzaj3tRYpnxr6LGhofRIFm2x87yNcpXFGC27eyvNVeh+/MkDFAtPJImI+o9MPX+dJyq7gcpuwubLWl7uKHK5bLf9jx88gaY7AORDYzDZ2LgZtDwBYClzNjZvw1I8gAsjqNUtmNEOS5nGYLK5W2/ft2zd5s6lPN99ZgJ3QbDf8b//95sNbW3NREQOKRiRtw2ZJCfwXSa106O8djqnzc7GDrDz8mBKlALiqGx0jZ2ziHXcN0g9v1pczfbIynoau3Hz5Au8xqw0vkLoVrbZBSkgFGT/REXWZj9zRtlO57XZqyrLpjzPeZKBKitS5/2cxa3zDUJ3mIoglKge/KaHLmtpSL/G/n0/zXmyI5cQu1EmkpotNs6TrnyZg4h/41FOW+akuQrdx05/ROf+cNgVj0xkvM6eSuKNFOMxZC28zpdGp9duf+45j85svno6nwcASxtreSJ4B4ClTL4UD8E7QG6CINRYq+o76m++6x0E7QBElvLq5vqb73rHvKxqLy3BMTMXHbgLglBy6549HpNsDjELRoQc7fRBzqgAgRMQ66Xzvqx2OhF/zq9JmhnMW6zKxhqM+wbp+JMHzvu9LSSRytLg2I2bKePuBG92elY7PaNFG+MsVs3VTmdtds4iVu6iVMYrW6zKzk9znEbBIHSHbIJgV33lSy8I+YyRYbsUcv36kFEVFRmJiJLSr7/k2FhebXl24zFw7NiUjXJdmZNccxS6T4wEdd1PvkDJeFLxffP2deTCzp+Tfk/I50mAIpfLtnXPnn9F0x0ApksevNMS/A8FAAAiBO8A52E3Ol0Pua/b1lm29srthb4YgPmmfP2WnTVt7b1qg7G90Ncyly5ufrYg2D/5ox+9VblhQ/1Hhw8r539z2unO+lTbnDdrnZ2PBAJhtiDVwWmnM6z9Hg0EwhrpvCVrEas8jEnEYnEpbBcTE1FhGt/pvBZfVU+jbteoisgi/37ZMsbk6TP9bGlqmo4ToFdJbdrh4QC5yjLHxvDa6azNPuwPKMbM8EbXrGyUFrGGlYtVk8mkdmycNMGQ4kPzznd274v/42MrEt7el2bzp9FbHa2z+fUXEoOjpEWtM8y7oEPQaLS6ptVrxZGEVvX8bzOftolEXMK7Z0mMRFyqE2cnXyeBxHCkVN19OvXrioXp4YhLOHGWKBxxqbvPkEBEAqX+nxiOOFVHTpIYjggUS9BEIEhqInf45f8ggcgdevlP2ZfmHnjpLSIid/jgH9OvhQ6mXhtL/XVOjfcP0od/iLhKV60kjUGv/PjgYIAt0mY3ZvMiEpWvXeMWiUit0035e5rOZDL82bPPeh6/++5bo+Pjb17AtwAAS1jZ2iu3F1+6pt3X+Ye94SHfXiIaKfQ1AQDMNXtt4zX22sZXh04cfmHkZPcuURR7C31NAIWkNhjby9dt3osZ7QC5aQwmW23bHc8PnTj8gv+DYztoCfxZ+sIDd0Gw37pnj6dyw4Z6IiJBIzU2ZYkTC036urq8y9auzXgDUnGWZcrb6WzMTPqn4zSs2egav9fbX5p1nreIVW+xLTv+5AFaTGE7EZGm+yS5uk9W0EFFhsRCcDe98nb2xyqIFCGdMX3+d53ZH3PTq0emPv+a4mNuev3oVJfspjeOKV8jxWvzV+OGb1Ljhm8W+jJgHgiEiShMRIqpSAbpNQP/Y6NEme/BBhoelX9McV4gyj+InocmRoK6o08eoNWfb+eG7gy70cp76imXeDSa3h/Cwnu5IpfL9sVf/OLQjz/xiRsRugPAdLEZ7xH/wA7f4bceioXGOgp9TQAAheBsbN7mbGze9uFbr3wPNyFhKRLU6hZnY8tejI4BmB5nY/M2m7uh98zvX96RiIQX1+iRLBc0xoONkblUmtlORCTGJ9vp7DVnjnY6C8Tl561Z7XS5JGfsgC6Pmb5+abFqyDdI7//ikD4xEc3nWwQAgFkQ8g3S0ScPUPZMdx72FNPwSeUIspw/B9sfIhLpLJlteZPDYf7iL35xCONlAOBCGRylbnfr7ftKVq33LOVFUAAAFVe17a5pa+/Vmot2FPpaAOaI3eh0PYQ57QAXjrXdHZc0HaBFPLJx+oG7INhv/O53X5SH7URE5tJUO324Vzk7nfeYv01qp49wZq3z2un2HItY45zzbCFfLBSKhHyD1J1qtuf6zgAAYA5MJ3QnIpqQjSBjvxfki40xEzSa9O93JofD/MWfP+fRmUwbp/O1AADk7LWN19TffNc7RqfrIVrE/7EAAJCLxmCypW9CYsk0LGJqg7G9ctMNnRVXte0u9LUALAbOxuZtNW3tvYt1N8i0AndBEBy3Pfqox1aZmt0d+OijdNvculxqp3Nmg6cf85edz16syiNvNbKZ7rxFqVppdI2/56SiBRkNRfQI2wEA5peQb5C6njxAxQ2XuolyP6kkZ8jjySaeZDyeJCIakp56KnK5bLf9/d/tQ9MdAC5WxVVtuys33dC5WP9jAQAgH/baxmvc123rlG5CAiwmdsclTQdq2+54HrPaAWaWxmCy1d1456vmZVV7C30tMy3vwF0QhJKtjz766qVtbc3FtbVlRETBgQFF2zwRVbbNHTU1ZUSppXhEmYtMeYtV2fz2Cc5i1STnPJv3m72INeQbpA9f/68yhO0AAPMPC93jkYn0k0oTsjFjubAnofq6uhQLu3NJ/74iEpU3NVX/NzTdAWAGGBylbtl/LKDtDgBLEtt1sWzd5k6M3ILFQG8t3lXT1t7rbGzeVuhrAVjMytdv2bls3ebOxfSkVH6BuyDYt+7Z8wobI8Mahqr0I/qi4lOGeibb6enz6qkXqw6fUrbTWZtd/tXZ+XNHjihCFkGlTn8/Id8gdbAB+bwAACAASURBVP3keUrEExc0px4AAGZfKnR/nsR4XEVE5O/tTY8ZY+/3+SqXlnNPpy1f5HLZ2v/nP/yEFvhCWgCYH8rXb9lZuekGBE0AsKRZyqub3a23e/TW4l2FvhaACyEIQk3JqvWeqi03P6YxmGyFvh6ApcBSXt3svm5bp9pgbC/0tcyEfMJoy22PPuqxlJQo3mTYI/py5VI7PcprpyeU7fRiqZ3OPS+12eWNR0fWItbMtnwiSUQ00uOd6PrJ8xgjAwCwAEyMBCgZTyp+P2Lv97xRYrmw9nvgo8kl27mc+M1v3iQixe9BAAAXwuAodctmuwMALEkag8lWteXmx0pWrfcQnvyBBURvLd7lvm5bJ5aiAsw9tlB1MYyYOW+IUb5mzVcubWtrVqnVira53mIxEBENnlS204Uc7XTeCADeLHdzSWoRK2+xqobTYGTL9N79t9+oEbYDAMx/Gr2O1nzhE6Q26BTjyBh281X+5FQ+gukl22L696tshx7d8/jhXzx/z3S+LgBAPiquatuNoAkAljp7beM1i3kpHiwqdsclTQfQagcovPL1W3Yu9D9Hn/ex+76urh++98ord1tKSxXfpLO+PtVODyrb6Ww2eyQQCOttNmPqfGY7fcrz0giaovLUIlYVJ1xn837H+vr8ZumcTvq8qo2XDZ9+A7PbAQDmM7VGnVzzhTtUZlcJhfr7znte/iSUSbohmy9nfb2LRJHYzWMiojd++KMDRw4c2DGdrwMAMB322sZrLOVVvV7PL1vFRKKz0NcDAFAIbCneh2+98r3wkO+hQl8PQDa1wdhedfVNHQja569g3+nD8Uh4hIgoOjbSGxsP9mafiYYCnWIiMZLr66h1+hqNwVQjf01rstToiuw1REQGe3ENluPODwv9z9H5zLkN/upv/qb1tj17XiMi+ujIEW95c3PGv3xqvRSIy+rsrJ3u93r7l0lzdRmVZup2ut/r7WdLUxk2HkDOIZ0fHxwMsMA9/U2ZdOE1X7iDMFYGAGB+Uut1VLWp2Wd2lZQTEZVJ7/u8p5d4rOyGLOf3k1ySidToMc/evc++/dRTn57eVQMATJ/GYLLV33zXO17PL/8sFhrrKPT1AAAUSsVVbbuHThxu8X9wbAcR5QzFAOaI3bys6qHy9Vt2FvpCljIWpoeH+zuTsegIC87FeKxXFMXemfy5krEoxUJjGa+Fh7gPUttVWl2LoFbbdWZrCwvlMWpobmkMJpu79XbPh2+9smuh/Tk6v6BCFEd+/e1vt9Gjj/7WzGm6JyZSgXgkEAjri1ItcxaGqHU6xc+Rnq/b1+dn59hi1VzL7oZ7enxspi9rs/NG0WjNZoPZVULV114+dPrV/3AidAcAmD9Ysz3U36d4c2ZPL03InnbKhf1+cu7IEW/2zd2p/GbPnse7XnhhxzQvGwDgorhbb9/Xf+SPrYEzJ3cU+loAAArF2di8TW91eHzv/L59poM0gOkQ1OoWV/PGDkt5dXOhr2WpGDl14jXWTp8I+D2zEajPoJFkLOqhGFE4Ej7AQvnB7rdJEIQald7QojNbW8yuylZLeVULno6YPVLovu/Dt16pWUhPSeXdDBRFcfBXf/M3rTd997uHshvujtpU23y419tfntVOj0ejina6TdZOt2a103ltdleuRaxJ5SJWFsqrtargqs+3O7ufPICmOwDAPCBvtucaI8OedhKJSC/t/8iHSJPLu9U65Q3c7hdffB1hOwAUStnaK7er9QY72p0AsJRZyqubDY6SzoU6JgAWPq25aEfFVW17EZLOnpFTJ14LD/d3RsdGOuOR8c7F9GtdFMXeRCTcy4J4FsJrTJZWY3FZq7WqrhVjaWZexVVtu/uP/LFmoZRXpvUoPoniyKHvf/9WtcHw22UrV1Zbly/PaKcLamXbnBk+edLHZrgbcrTT2WLV4ZOTbXZGNUWbnYiov+uItywr7BfUapXZVUKrPt9OCN0BAApLrdfR6i/cQZSM5R2gE03eROX9HpBLIjr59JXBajOi2Q4A8wFrd577r39vJYTuALBEsTEBp19/sT0Zi3oKfT2wZNitVfV7y9Zeub3QF7KYxCPjo6Pe9z3j/X2eWDjYuRR/TYui2BsLjXXEQmMdgTMnSRCEGl2Ro91UVt5qcze04ubOzChbe+V2XZG9ZrD77Xaa53+Onl7gTqmm+4vf/nZr24MP/nrNHXdsyvhYQtk2L5ce8WftdFF+ntNOL5aClYkcbfaJQCCsKyoyEk0GMTxsVq/GqAuv/Hy78ThCd4CMZSNLXSIaGYn4By/qTrug1Zr0H992j3p5pYuIKElEon94VHAU29hfVQIRxWJx0mo1yeHhUSp22lREJEhfQ36enE6bVhRJRUQqEijhHwloiu1WjXReIIHiw8OjemexLTE0PKpxFtsE6SupSKTY8PCorthpE8PjEbXJZFAR0cTQ0KjO6bTFhoZGDU6njf3MAhGN/elwMhlPTCvIvhBqjTq56vPtKrOrhAQiBxGRoFJP6+dlvwcMnzrpK66tn/K9P9vwqd7+d19++d8RtgPAfGEpr25etm4zQncAWNLYMlXsuIC5gBEyM0cesEdDo57F1F6fKaIo9k4EhvdOBIb3+j84RmqDsd1gL2l11K1oR/v94thrG6/RGIzz/s/R0w7ciYhIFEd+9/d/3663Wn9zadt16Tcr1k4f6unxObPb6az9Lkvc2flzR494sxelsiajPKA3sUWsvb39rqzzvNnvRun8qNfbX7JmjXvl59tpMYbu8ZJiitZXUZSld0NDo7FL622iXjd5xnvaJ1RXuYRweIKMBj0RUUKUPqGvb1BVvqwkFeal/onHz5z2CZVVLnFkZEyw24uIJv+3EM+c7RcqK8rk1yCeOesTKitd4kC/XygtTY0Jkj5B/PBsv1DBzqdeFPsH/UJpiUMcSP11Rv+BZEnqdDThnMGbiW++eZj+4bFWEsV5+wsb5tb4//s/e9SPPPwnuqylIUEC0fHjI7RypY39VS2IJBBpRBKIPvggmLikwaYRiFjanOw+PqJatdKWPH58RFzdZDOJImmISEsqih3r9utXr7JO9Pb6TLU1LjWpKHHs2Ihm9Spb7NixEW3TapsgpCJ3NYkUP3ZsxNC0xhY6dsxnXb3KrSIiTV9fUl++nILHjo1Ym5psgpD6te8/+BrNSdiu19HyTWvTC1IZMZm6KZp6Qim/+etEmePF2Pt8LsdffPH1ruefv2c61wwAMNss5dXNNW3tvRipAABLnbv19n1ezy8JoTvMFrXB2F519U0daBlfuGDf6cNjH3k94SHfgaXYYL9YiUj4QOjcmQOhc2d2CWp1i6l0+Q6E7xeOlVd8h/+wY77+OfrCAnciEkVx4MVvf7vV9KMf/mfFhvX1REQsZOfOWpfa7+FAIKyTFqsW52qny9vs0giaImneu0YK1+VhPJv9Huzr85ulcxbpryrpvMlVQosxdNcMDtP4ZSvJ31RPRETCifeCqrqqjN9IElaTlSwWErq7z9ElbjcRUVwK3NWBoRBVuEoEEicDd6vRShYLUWBomCrKUoE7+wc+MhSm5Rl5O1F5aep/y9HBAC3PDNxpdChMy0tTf8++yDLpzOhwgMpLZzVwn1EI24FHFEcSf/udq9WPPPx7uuyyhpxnpTEn4rHjXmpamfdvrmJoXHpKSCRtdXXZ+c7LGcrLHSIRkaxRPnzwNQodfX86X+aCqDXq5MrPt6vGOQtSs4k0ubMj1wJtuckF3fzzr+zZ8/jRA/+2I/8rBgCYO2ykAkJ3AFjqELrDbDE6XQ9VXNW2u9DXsRCNnDrx2tjZUweiY/4D83i56YIjJhKdoXNndiF8vzjSPpB5++foi2s2iuLIz7/8lavef+WVw/KX1ZxA3Cy1EEe83v7sL8MLVhzSYlXe+ThnsapdOh8aHAxkf0y+iJWF7mpZ+3sxsP7m92TpPpn6gRTokc/nTx+wWIxERKRWK54cSPN6fYrzvJEPJlNq/rL3tE/xMd4cf5Mxdf74u17Fx6Y5k7mgELZDLqI4kPjb71wpvNP5fvrXSJ5Uq6TgXavLK2RWSSO1KM9QOk1qlPuePRiek7Bdr6OV2z+pMrlKSKWe3vgY9r49EQiE8zovve/1dXWl32eOv/ji6wjbAWC+Y6G7IAg1hb4WAIBCcrfevk9rLtpR6OuARcPuuKTpAML26Rk6cfgFr+eXf/bBr59yDHa/3ToRGN6LsH32sPD97Ju/qek59Ny1/Uf++Hg8Mj5a6OtaKNJ/jlarWwp9LdkuOuxMzXT/29bTf/pTOr1hQUlEFpRYl2e2zeXY+UBfXzog1kut9v/P3r1HtXWf+cJ/tm4IcZO4mtggYSchthOjOG8b20kaNZlpetpJTc7qmUmTaYKn086c05kJmb7vmpl3PA2Z1ZPL9BLcSzqnnTmR27fNSidnQuImdZwSy5fEdhO7YBscYgMSGIMAgRDogm77/UN7g6S9wYjb1t76ftY664zFz/BQByE9+7ufR+w8b6Kvb67hq5tbxLpwQ3mKO2+oKqebH1Ve073iSKLprqqtqSQiinsmBBcfiJtrn2Ir1+wLBARz9vkGXQpzbVXy+dTPz83ln5kJCs6LEZnjn5XQbIelYNlJdv/+PTQxmfjZy/SCUjgcJSKKjCRdLFvsy3HPnf6LF11EC1xISzPxm+MUdg7lZ1TXMqjzdHTLnzaSoaqciIhi3HPPTNLz/FIkX3Tlx5AtxXsvvth2EWNkAEAmNHpDSdXtd7URkVHqWgAApISmO6wGRq22bth5t6OsvmGv1LXIwczwQOfgicNPXnnzl6bJK12N3J0m6H2ss3gk7PAN9jY529ssLsehfTPDA53X/1uQrU33ZY+UScGy3ra/fmLPZ7/1rd/edP/9DXw6fdLlGt2wI3UuL59CTJacTufHxsydF0mz8yMHIiKja1iRBnEFdz55cauhqpy2feVP6ONfvhae9c4opvNeceQ98vzB7nz/1sK5Zl9KE45L3rLOATeZzamNcLHmIH+++5JrrjHPE0uzl5oS85QHro7S1ltSz2tELp6YTNedvyw5NNshEyw7Tvv376G///vfUnmZkSjx88ZYFrnwlP4pJiZ8tKHKxBJLTEFmafmC7dvNROIXK2e7+sqiA4KbhladWqOO3/xoo4pvticLjI3NPc8bljB/PRk/hoy5zoWM9meeOdj1BpLtSjN44vCTkeBM1t0qKBeMWm3UFRSnvAjVm8qtap3eSESkN5ZacBurtLBIFVYKz5NLk1dssiX/WaXVGfNLK61ERBp9vhELFaW3cdf9rS7HoY5sHBEA2U+l1dlqP/W5NsxrX1xocsw12fdRW8B9FQn27OON+KftI+dO2hm12lp0g6W59ObbGvHf9MKycUzj6jTcKZF0/83+/TYictx0//0NRESxaDS20PmJvj433zzR82n2RZooE319blPazHexpouWS0COnj/vKk9fxJo20kBXUkSWz90bGPztaV1g1HO9b1E2yn57ioiIplmR9LjFnJJOZ5I/xl2sYGdmglRQkEjApjflkyWn2fnzVVWJCyZidyZE+VE3o5NUWZk4V1WZ3fPb0WyH5WDZcXruORv91dffpK1bzSl3g3B3oCyVxmKpIiKKi13gWkScv9NoeHgyv7ra5PvNcYoOjBZm8jmWQ52no6rdt7kNaQtSxfB7Nhix0VWLYLk7Y5J/j/A+euut42i2K1MkONOBBU0rECEKhoJtyQ8FPcLJcESJVBijUhvVujyLRm+waA2FFl2R0VJYXWPFC/21VVhd21C+7Y628e6zNqlrAfnB8+TSBD1uR/pj/pFBwTmGYSyMRmvhL1jyjXlcoFx72dg4AXnQFhQ1mW0PviR1HdnM09P5uu9qnz2W9roQshMbi3X4BnubfIO9xrzi0qaKW+9oxu8gcdn2u2PVGu5ERMSy3sP799+nzc9/z7Jnzy0qjUadfqQqLW2eLC4yXiTT8+lN+eR0d5wbaRD2+YIabnFrkbnWWP9oFXW99Gok7PVpr/s9ykTZb08Ru7PeFCAitqvbRdtS0+msSEOcKS3l0ukDo4I0u1gDvWZTonE4MChMs4vcmUCbNibOT0z65hru2QzNdlgJlvXSD3+0lwqL5pLuRDS3HyGu0wqfIBf7dNwFrlmn06231C05LR+emPCFO66Ygl3rM7O9/tG9NDvpmXuu5ceDLYa/M8l94YJrQ9qF0sXM3bXEJvaEHH3mmYNdr7/etMzyAYDDxmIdbCxG8UiYIv7pucb8ePdZIkokx/hmfEHVJhuaT6vLWFd/b3jaa/cN9jZJXQtALmNZ1slGws7kC5bJjXn+4mRescmmNRRaDBXVVqTjV49Gbyipathtx10/sFQFG2paq++45wmp68hG0VBgyt1xqjU0MWpHml22vLO+idar77/Tqi0oaiqrb2jG7xyhbGq6r27DnYhYlp144xvf2P1fvvUth7GubgMR0URvr7tsy/XT6fx83uHzwqaLWPqdH0cweuG8qzLtPCPSIM7nzk85XaNlSefV+jyq2nXryPi5npqggpLu5ed6ij2lpTQt9kG+IT4zE6TC1HS6WDN+7rzbPZ9O5xerajUL/3fkcrnnZrjPLWKVwaJUNNthNSQn3belXZTixmvFuy+5VGkXxBYT55rMcSLKq629blo+0tVXFh0Yy6zuZVDn6eimR/eSoaqcAqPDUaLEc23ljsRzbSbz14nmR40ttscj2cW2146h2Q6wPuKRsCO9GU9ERpVWZ9XmF1rzSkzW4prNNjThl69yx52PBydGHdwMVQDIQvzFyaDH7Qh63OQb7CWiRCNeozdYdUVGa35ppdVYV3+vxKXKFu76gaUqrtlir9xx5+NS15FtZoYHOj09na14PaEs/LgZlVZnK73pthb8nkmVLU33tWl8sqz3N/v32wIej48odXb63BEunZ68WDV9NEBKOp07P5t0nh9HoBZpyPDjFJIX9C12ntGo4jc9upd0ZaYFx+DIUdlvT5FhfEowJ5mtSYy1YAZFBjqLpdO58yS2iDUSFZ7nE++BoHCxarYvSkWzHVYTy3rjP/zR3viJk9ddeMI33lmtbklNZnVRUWJZ9AJN6enfnKDowNi6jJG58dG9lC8ys51Xws9fVy9tfAyfjBdbwp3u1I9fbDt78GcPZVQ0AKw2bzwSdsz6Jlp9g71NV99/x3LlzV+a+o68+umh0+1Pe/t7jkldoNyYbQ++pNLqbFLXAQCZYWOxjoh/2u4fGWwe7z5ru/LmL5m+I69+evDE4Sc9PZ2vR0OBKalrlBNjXf29BRtqWqWuA7KWsXzbHQ4021N5+3uO9R159dMj505a0WxXrngk7BjvPmvrO/Lqp/FaO9XcIlWGsUhVw9oljVnW+8bf/M2eK+3tnSp+9nBSB51Pp3sHnIKGr1hDnD8/6RSeF1usWsKlI4Pj44IGcVTkfNltt5nV+jyq/MQt1/Iryxb91uSm8nyvqfBSXyKdzptLmyeaX0zqatUEl8stOC82R5pbrJpynid6Pj9x/qMe15K/ifWCZjusBZYdjz/7vI3OdSxprks8Eo4SEcWmZxZsMqd8ev4CY1f33M9UrKuvLLQOY2RUGnV8yyNfWLTZnowf7ZV8MXQpJp2uuef+5LS849lnDqLZDpC1vPFI2BH0uFuSm05owC9d7ac+10ZExuseBICsxl+QnLzS1ehsbzP2vvVynctxaB8a8EtTfcc9T6j1+Y1S1wFZx7hh590OpHvnjZ4/c7D3rZfrxrvP2rDTI3eg8S5OozeUVN1+l2Svpdd0tAfLsuOH//EfbWMfXx4kIgomJRSLF0mb8w306aSGTBF3XsOdF2kPpzRwdPwi1kXSlL6+XkGDWKXT0pZHvkBKa7pXtJ+iwktXEktRkx5nuNnJyVh+fnvyokdeTCSdzo+MWez8TFLjsLZ2yfOn1xWa7bCWWNYb27//rqU23YmIYgOJO1BYIlIVGJY8kiVw+DjFB9dnQWrlXQ3u/KpymurtE9++uIBA0sVQ/oLqUvF3Q115551Tl7AgFUBW0hrwpv721x4aPX/mIBpO4jR6Q0n5tjuw1AxAYViWdUb80/a5BvzhV24fOt3+9MzwwHXviMxVNXc9YJcyqQjZhWEYy4addzswwzqBb7T7BnubMKM9d6HxLlRYXduwYefdDpKg6b72s7RZ1ut4/vnGK+3tnV6Xa0npdBOXTg8sMZ3Oz2/3i5yPxYQN5XLufERk1E08Four9Xm05ZEvkF5pTfeLzrLCS32pDy6WTleJXKzgz1/6SJhOF0uzlxoTjbTBq8LRNZqlzWZeF2i2w3pg2bHY/v2fZM79/jJbVppRk1ltsXAjWRbfgRA8fILC67QgdcsjXyBNYX6YiCjqn5l7Pi3mnsOXih/3JbbbYyGOZ585eOE/fvWlTL4OAGQdbywUbPMN9jY529uMaL6LM9bV35tfVtUidR0AsHbYWKwj6HG3jJw7ae196+W6wROHnwxNjmXf3cASSkoqQo5j1Gqr+b69HWi2o9EO4vjGe3/7aw/hd0mi6W66cbt9vb/uuiyvZFl27Df/uN/mHRCZF87x9M2nI/nZvYs1Xyb6hGlKhmsQJzfQ+dEDYxcuCP4jE5slrOdH11z+2KXEpnt5+2lKabqbzSnp9JQ7B/j0e3I63bxIOl0szc4tYhVtrkdFZsVLAc12WE8s62X3799DQ9fGiYhIl9mFpzj3cxbsF14kY7v6yiJdV1alzMWo83S0eZExMnN3GC1x4SmP39Uxcv78oi8KTr/44zYk2wGUJ7n57nIc2odkzryNu+5/ilGrrVLXAQBrj2VZ56xvovXq++9Yeg+/cjsuRM4rrK5twAXI3Mao1Vaz7UGHRm8okboWKXn7e471Hn7ldjTaYTGxULDt6vvvWAZPHH4y13+PlNU37C2u2WJfz6+5Lg13IiJiWe+73/rW53rb21Nuk9vApc35xarJ4iLLNavS0ukpX0JkPErJIotYWS79Hk4adVPAJS2JiNT6PNqswKZ7RftpKv4oLekudnGjNJHAZQcGhRdKtBphI61mUyLVOiCSZhdrrm/amFEKdk2g2Q5SYNlx2r9/T/z4iU4KJ3424t2XMrryHE+6Q0dXW1s5e/gE0eD6LEitfuAu31JmtvN3MIld8FwqY1pa/vSLP277/c8wsx1A6SL+aft491lb71sv1w2fPXEg198kEBFVNey2S10DAKwvNhbr4C5EWlyOQ/uQVMQFyFyGZvv8MtTx7rM2NhbrkLoekIdZ30Srs73NMnr+zEGpa5FS5Y47H88rLm1er6+3fg13Ssx0P/JP+22Xj7x9TlCISMOXT6ePiKXTRc7zc4BHRdKRYrPi87nzPpFRNyqdTkOUaLrXKbDpXtl+KrXpzl2sYMXS6WIp1Ug00UAXW8S6WKrVPSo8L5Xx8Sk020EyLDseffY5GzmdQ8kPMyxL7PZtiT0KWt2SEuLx9zryo+u0ILXukS9QPBae+znWFhQuebY8S0QV3EVTRmxklQj+jie1Vqs59syzB9FsB8gtLMs6/SODzc72NsvQ6fanc7nxjmQnQE7zRvzT9qvvv2Ppb3/toVy/AwgXIHNPrjfbQ5NjLpfj0D4sQ4UV8PoGe5v6jrz66VzeF1Jzz2dfWK8l3OvacCciIpb1tre0PJCedBdLs5vS0uli55PT6fwcYJXIYlU+aZm8WLVg7rxOcD4eDkeJiALDw5NKbroXck13pqaGS6eLjP0RmZs/l2b3TAjm5ouev6U+0UCcmBSel8L4+BR9/W/QbAdpsaw3+oMf7o0fPyH6C4+NzCbS79PTQbGPExFFDp+gWPf6jJEp37PDrU9LthdvruNmyy+tgc7j70hKfk5ezKXXX38XY2QAcpo36HG38ONmcrXxvnHX/U9haSBAbouFgm25vhQPFyBzS64324dOtz999f13rBH/tF3qWkD+4pGwY+TcSWsuj5mpuesB+3rcKbX+DXeaT7p3vvzyUf6xAi5tPnxemGYXS6fzaXavy7mkRawl3FiC4JjIYtVIWHC+jEthBrlFrGp9HtV96UHFNd0r2k8nmu5c2pxdLJ3uTJoZzafTxRY4LrqIdelLEdcM32wPh3ELFkhvgaR7spgrMdYpTkSqAsNcojx6+OS6NNtVeTqq+9KDpOYWpIqJcyO6vCL7NRaTvOyaf15Pd/zZZw9eamt7LJPPCwDKFfFP23M58V62dadd6hoAQHr8Ury+I69+OhdHzVRZdzfjAqTy5XKz3dvfc6z3rZfrgh53CxEhKAiratY30ep693VrLl641egNJdydUsa1/DrSNT9Z1vv+9w/c53jm2YNEREVc2ly9SDp9OikJWZh2XkxycpJf4rdYCnOqV9goUvHnWZbUXNNJW1qcHcs+V0mi6d6f+INYOn3r1kQ6nVusmiImvDNhbrFqICg8L3Inw7pCsx2y0XWS7sl0FksVEZH6kqt8XZrtGnXc/MgXKG+JFxujSfs1itPmr1/P3F1KSRfmfvdjLEgFAFF84j3n5lEa6+rv1RYUNUldBwBkh3gk7Lj6/juWXLv7R6M3lBi3bGuVug5YO7nabA9Njrn62197aLz7rA0LUWEtsSzrHO8+a8vFtHthdW2D6cbt9rX8GpKnjS+98UbTiW9/+xf8n8XS6fzSPP/YmEg6XXi+Ii2dnoxPYSbj0+xR/4ygQRxLO6/O05Hlsf+qWWrzSS7K2s9Q4Uf9xC6WTl8szX5JZOGj2HmTKZFg/ahn/VMYaLZDNuOS7mxHZ+91z759gtSD7oK1LkmVpyPTnh1u/s6esltvNRPN77i4Hl3S/HWi1BFgi+FHhp3+/vf/oxMz2wFgcV7fYG9T7+FXbs+lhE5Vw64WWuNUDgDIC3/3z/DZEwekrmW9lNU37FVpdTap64DVl6vN9uGzJw5cff8daywUbJO6FsgdfNo912a7l9U37F3L8WSSN9yJiC7+n//802Nc0p2XnGbnl+bxqUeWyUK+lgAAIABJREFUhCZExhiIpdm13CJWzwXhYlWx8/xiVc+Fi3PnVXk6qn3kQdIaiyKLfFuyU9Z+hkq8s1w6PcM0uxj+fMoi1srEIlbNIqNr1gKa7SAHLOuN/d0/7KLfffDRQreCqN4+SbROyfbaRx4kjcgYmRi348K/xPnr/IXRKW5BtdhzeLqTzz578MLLL/9xBiUDQA5jY7GOXEro6E0V5vyyqmap6wCArOP1jww29x5+5fZcaZxU3vZJpNwVJheb7aHJMVffkVc/7R8ZbCaMjwEJsCzrHDl30jp0uv1pqWtZT2u5HykrGu5EiaT7sWeePbiBS5sHxNLpIuNIKrnzEW6MQcriU5E0e0naIlax88kpTAM34iD9vCpPR6ZPbhtRWtK9/L3fU2X7GSKVyOidUi6dfukjYTpdbLRPqTFxfvCqcBFrVGR0zVpBsx3khGXHY/u/uTty7txlpra2koiI4X6+1G+fJKb7+gH4lVLl6ci45zb39XZWJN9FpC0o1C92Nh3/3C02FuzKb35z/COMkQGAZcileZRV1t3NhJQ7AIhgY7GOXGmcFFbXNmDMlnLkYrOdT7XHI2GH1LUABD3ulr4jr346FwIs0VBgqu/Iq59eq9FNWdNwJ0o03X/34x+3ERExIss1dVw63X1BuFiVEWkQ8+n0MZHzaq1wJIKeO+/jUpgp53XCplDh5rry2i89SJqSwgUXCcpRUY+TKi4NJC40pKTTqxKPaTXC5jo/2sftnhScX+80ezI020GOWNYb+If9e+KXP75KRBSPRKL6IydJtU7N9pqH/4hKtt6SUROneHNd4mLmInsyxPDpd37nRtevfnXsIyxIBYAVSJ5HKXUta0mjN5Qg5Q4Aiwl63C29h1+5XelLVbkxWyB/xqqG3fZcabYj1Q7ZKh4JO5ztbRYl3ynl7e855mxvs6zlha6sargTEf3+Zz976Pizzx4US7Ob0tLpydi4MJ1euEA6nYgoFhGORCjgF/Zx84lTzouMUNAVF+er83RUsmfHmK6ydGnfoEwUX/MUVrafIXZgUJhOj0SF6fSaTYnliJ5JwZ0Jomn2W+rNq1Dm4tBsBzlj2fHpf9i/Z/b48c7Cj5xlmvVotmvU8Ru+9HnKqywjXXFRYpTXEue181juTiFfX69wD8QiAuNjPpfDceHMgQNfzOTvAQAsZNY30ar0sQpIuQPA9bCxWMfV99+xKnnBtN5UYUbKXfaMG3be7Sisrm2QupD1MHr+zEGk2iHLeUfOnbQqcS/I0On2p8e7z9pojS90ZV3DnSiRdHc6HB8SEY2IpNNVIiMIDFw63et0CtPpIueLuUWsootVueZ6Mn5ZYMjjETaUGTa68Ut/REpruhf1OKnyyrWKBQ8kp9kLC/OJSHxRKs81kFEDbkXQbAclYNlx33PPPxYJhybDuxoodHPNFLurgWiXlWiXldS7rUS3mH2a3VbS7r6dtLtvp7zdVlLV107pd99O6vraKcOe26lgz+1UyP3/2vraqeI9t1PhJ26LFu/ZSSV7dpL+FvNU9cOfp+K7G4bTx2Txz4cTF7sySkYlj/ni7zZazGRv79DRf/zHT7EsO57J1wEAWAw3VsGm1EYTUu4AsERe32Bvk8txaJ/UhawVpNzlLVea7dFQYKq//bWHfIO9TYRUO8iAf2Sw2eU4tE8JI2b4ETJBj7tlPb5eVjbciYjO//KXXzzx7LOib47SRxAQzafZ+WY8e53zOm4RKz/+QGyJn6+vX9AgZkUXsRr0qjwdFTTcOKi0pnvx1XFD1btnUh/ceksine6ZEF58EFusyqfZA0HhIta1gGY7KAgbjZ4fsf9kpy/s6wybN3jju63E7rYS7b6dNLutFDNXTmp3306xDUa3bs/tlLfndmLqNnj1e3aSqu4GL99sT/y/naTbfIO3eM9OYsoLhkru2kkld+2kgltvDOXXVJMqP+/6uxVYlsq4+etLTb+nPz+nc777bufpb39nL7EsXnQCwFrw+gZ7m5Q6YgYpdwBYqoh/2t57+JXbldA4SYeUu3wV12yx50KzfWZ4oNP17uvWWCjYJnUtAJmI+KftLschm5x/d6zHCJl0WdtwJyL66I03mvp++9vT6Y8buXR6YHxM0PDlm+vJKrjmUHBMmGZnRRarls0tYp0RNohFzhfUJWYXMxp1/IaHlZl0rzh0NCj4gFia3WBILE4UW6wqMpd/1aHZDkrEsuPebz1ji/T3Dy10JBaYT5RrS8uumyhPVsg/hy12h4qIuMiorcXwz8+j58/PPT9M9vYOOf7pmzYk2wFgrc36JlqVmO5Eyh0AMsHGYh2ud1+3KnHcVll9A54LZaa4Zou9csedj0tdx1obPnviwMi5k9a1Ws4IsNbYWKxDrnPd12uETLqsbrgTEXX96lcPn3z22YPTIul0sUWpvKm+PkE6nRFJp2u4RayepAaQ4Dw7n3/XFCbOey9cFI660Wk1qjwdVSuw6V5ydTS/6ujvUh8US7Obaxecs0/8XP7kRayrCc12UDKW9U5+/weN/mPHr/sLTle9wURExCyQKF/wS3A/0z6n8PlzMSFuNBdL88+pS3Htdx9cPvPt7zQi2Q4A60Wp6c6y+h1NUtcAAPLBsqxz5NxJmxwbJ4sprK5tUGl1NqnrgKXRFhQ1Kb3Zzo+Q4RajAsidd+TcSZu3v+eY1IUsxXqPkEmX9Q13okTS/fzPfvbr9Mf5RanJ+DR7mJsfnCwukk4vWWQRK38+ZRErlwSdqyFpGE08nEhvxmdng1UKbLoX9TgppeleakqkaC9dEqbZxRp9Ju781SHhItaVQrMdcgHLjo1+6xmb/8yZS0s6ziXKfV2ZzV+P+gOJ50+WqMBcW5nJ3+WfU8UucCZzvvtu52+ffHIPy7JjmXx+AICVYmOxDrnfFpsOoxQAYBm8imy6b6hpkroGuD61Pr/RbHvwJanrWEszwwOdLschG0bIgMJ4x7vPZv1+JClGyKSTRcOdiOhSW9tjJ5977mDyrHUtl6R0iyxWFWv28Iv7PBdE0uwis4j589OuAUGDWGx2cWFtojE1MzAwqsrTUdXDf0TaCgU33auqTEQk3lznR/skL1atqkyc12SWur0uNNshl7Csd2T/Nz/lP3WqmyUilWHpiXIiIj33PLXQPPV0c3cULXFe+1yZ3AVLb68wLe/t7Rs6hjEyACAhJTbdS8w3N0ldAwDIjuKa7pU77nycYRiL1HXAwhi12lpz1wN2qetYS56eztdHzp20sbEYehSgSL7B3qbhsycOSF2HGKlGyKSTTcOdiKjnjTeazv3bv80l3U1p6fTkZrxYOr2AW9wnel5kFrGBO6/mGk3XO68pLuIWsSbmIDN5Oqp4+PPKbroTzTfXk9VsTKRiJyaFi1WjIueXC812yEUsOz78zafumjl77rK+zrKkRDlPU5R4nopzP7dR3/SSRjzxz3kekXFai4kk3W1UYjZXut492nnmO1iQCgDSY2OxjsH33m6Suo7VYqyrvxdNJgBYBsU13fWllU1S1wALMm688742jd5QInUha2X47IkDk1e6GkniZh/AWvOPDDZn034kqUfIpJNVw52IqON//+8H33/uuZRbF9QiSU0+nT7lcgnS6WqtMKlZxC1iDY4LF6vGwrOCBnEBlxINeSZEFrHOzzZXcU13jSKb7h+kPpicZi8sTFx8WMtFqWi2Qy5jWe/A3/3DHv/Zc5eJ5hPl4eGRJS0w5fkHEnfwJOavG5aclmdpfsG02B0/YiZ6Pr564ptItgNA9oiFgm3Z9EZhpQxVmzAjFgCWw+v+/XuNSrnrB3stslf5tjva9KYKs9R1rBWX49A+zGuHXBLxT9uz4bV0NoyQSSe7hjsR0cdvvNF09sc/npuDFeOSmjNJafNCPp3ONeOT0+mxiDCdzo9NUHEp0eTzvClnvzv9PKMWNpTVXNNqhlvcqsrTUakSm+4fc033rbckfmF6RNLscZHFqrfUr/wXLJrtAEQsO+78u3/Y4/nP1+aWloQnJrgFpixpS0uLM/l0/I4Ksee1xYjd8ZNu5IMPLx998sk9SLYDQLaJ+Kft2XpLbKZMm29plLoGAJAnlmWdLschm9R1rAa9qcKM5anZp7hmi91YV3+v1HWshWgoMNV7+JXbI/5pu9S1AKw3qZvu2TJCJp0sG+5ERBd+/vOH3n/u+YNEREYunR4YGxOm00XGnZRzqUyxNLvYYtWyW281ExFFZ5a2iJVvWkUDicWDLCXGy5Q+/HliSgrD1/3mZGSu6U40N0onhSE/kZi91JPRGIpFodkOMI9lx6/96EXb5JHfHk//kI4fo6Va2rgZXpy7S8fXL5y/vpgQ9xzM0vyODSKigXePdh5NLEhFsh0AspJ/ZLDZ299z7Pons5veVGFW6/PRdAeAZeH2W0ieVFwNWJ6aXbQFRU2VO+58XOo61gK/HBXz2iGXSdF0D02OuXoPv3J7toyQSSfbhjtRIun+/nPPH5xPmy+cThdb3Eci57UFhXoiIo/IIlZWZEaylkuzT17oEi5iTRt1w+TpqPCB3QHlJd1diaZ7TCTNXltbJfJXlg/NdgBRE7/+9WOD3/2e6KZwNp64MDjTlZi/LvYcKSbqD8xdZMwrL8soLV/C7djwDQy4T2KMDADIwHj32cbQ5NjqBQQkUlBxAxruALBsEf+0ffT8GdHXlHJSevNteC7MEoxabd246/5WqetYCzPDA51YjgqQsJ5Nd09P5+tX33/Hms0/e7JuuBMlmu4f/uCHrxKJp80ruDR78uI+Hityvnhz3cINYrFFrHV1Cy9u5dL1ken5pYT62hqj8eHPEVNSFFn4u5Kfoo9dVOEaryYioksfCd+saoRz9jOGZjvAoibefKtp8sg7gqS7GH4PhUq3tJ/N+SXSS/9ZHjx6tPOD5577PMbIAIBMeIfOvCv7Bg2aTACwUr7B3ma5L1HV6A0luOMnKyh2Saq3v+fYyLmTNsqyMRYAUlqPUY2DJw4/KYfFxLJvuBMRdb388n879dzzB/kRBmMi6XRGJJ2u4c57zp8XnJ9bAsjOt9B1XMIz4BoQLGIVa1rxDS1+KeFcLXk60nzilhG1wpLuJQMjuirHB+IfjHKjfdyjGS10nINmO8CSjB/69WOuBZLuyTRFRflERLFw4mcz6pu/MLiYGDevXewuoGQjH354+X0k2wFAZthYrGPodPvTUtexEmgyAcAq8Lo7TzVJXcRK4Y4f6Zlu3G5X4pLU0fNnDmbjzGiAbOAfGWxeizul+BEys74JWdwxo4iGO1Ei6d5/5J1TC308LpJO50ceiOGbSoGkJYB8wpNvxrNJefY417QKJp3nG1oqkcWtpFHHC//k88SUFglmzMtZ0ccuquwbqRB8YNPGSiIimhRZrHo9aLYDZMTz5m+arv7rT/5PJn9nJunCoIYblbVUZdydRPxz48iHH14+9uTfYkEqAMhS0ONukXuyU28st0ldAwDImxIuQBbXbLZJXUMuyysubS6rb9grdR2rbfT8mYO+wd4mqesAyGa+wd6m1dyPJIcRMukU03AnIur6+c8fOv388wdVWmHaPL+8vJiIaNrlFKTTGT7NnqSIW8QaHPcIF6tyzfhkhVyafdYzITwvsri1YPt2M5OnI9XO+mGlJd2Lh8YNVY4Pidzu+TR7YWE+ERGpRBarLgbNdoBlcf/qV190ffd7B1ki0paWZjR/nV/8LLoIeRGxcDg6ePRo5/En//YuJNsBQM5GL/yuWeoaVsK0+RakOgFgxYIed4ucd1voTRVmRq22Sl1HLmLUamvNPZ99Qeo6Vhua7QBLN959tnE1QixyGSGTTlENdyKiK28caup949C7RGmz1vn5w1qdIG3ON9D9Sel0fhGrapFFrFP9/XOLWDXFiTQ736BKPq82JNKigaTzc3RaKnhsL2m335jBd5n9ij52UeWZLq3gA3GRxaoLQbMdYEXG3nyzaeCn/96m557/SCUcrbWoaOLn1dcvsnRaxFR//9Dpbz5lY1l2LNNaAQCySTwSdsh5aaDeVGFmGMYidR0AIH/XPjjWJHUNK6E3luMC5Pozbrzzvjapi1htaLYDZMzr7jzVFA0Fppbzl+U2Qiad4hruRESXX3/9sTPPP39wyuUSpNljEWE6fT7NPi5Mp8eiggax6dZbzUREUX9AZBGrsKGcz6VFY4HE4taU5n08MepGfZc1qN6mrKZ78chkYdWxs6kPGvKXNqoCzXaAVXHtly8/NPDTf0+84OWeb6bFLv4tIjoz/9yVX1Ymmpa/evRoZ8d3vrsXY2QAQCl8g73Ny32DkA10RSY0mQBgxeKRsMPT0/m61HUsV0HVJpvUNeQaJc5tR7MdYHnYWKxj4PhbGb8mleMImXSKbLgTEfW+cahp4Lftp4jE0+nevvnE5mJpdn4R65RT2KBi1Izgfz81N/vYe/Gi8NY7kXSptjTRvAq5BkZ1n72HlNZ0L/rYRSlN99raBefmz0GzHWBVDf3y5YeufGd+kWosMH+xkF/uLLb4WQy/yyJ5EfXohx9ePvNUCxakAoDSeN0dp2SZqCEiMlRW26SuAQCUwdvbLdsxW8a6+nulriGXaAuKmpQ2tx3NdoCViUfCjkx2gsh1hEw6xTbciYh6Xn31S2eefz7lduBybrlf1O8XpNP5xarJirl0Op/wTD2fSLNHfNNzo2vmZh9zkpv3LJcujUzPn9dVb0gsYuXmzms+ew+R0pvui0GzHWBNjLz5VpP77XeOpz/Oj8OKcYufk5/PFsM/X/a98cb7J/72G7uRbAcAJQp63K1ynV9cYr7JJnUNAKAMLMs65TxmS6XV2aSuIRcwDGPZuOt+2V6oFoNmO8DqCHrcLde7W0ruI2TSKbrhTpRIup/7/g/+Q/AB0TR7oZ6IyHPhguCNldhi1byyxCLCGdeAcBGr2OJWLkkacA2KjLpJWqz6gAKb7peX0HRHsx1gTY0c+vVjyUl3MfzzGUtEGu6OnYUMzY+R8aximQAA2cTr7jzdInURy6HRG0qwLBAAVsv01b4WqWtYrrxik03qGnJB2daddo3eUCJ1HasFzXaA1TV5pWvBee5KGCGTTvENdyKinlde+eMP05LuLJfOTF6sWrw5NZ1O7Hw7nl+smnw+nxutwI9iSFnEyjXQg0mLWDVFiSQpn2ZnRYbdBPqdidE1D9xD7LYtGXyX2W/Rpjua7QDrwv3mm02jbx8RJN3FFPF37KiF47Cm+/uHMEYGAHJBxD/dJtdZ7rqCEpvUNQCAMsg55Y457msvv6yqRUnje9BsB1gT3vR57tFQYMrlOLRPCSNk0uVEw52IqPfQoabz/+t/zW3K1peXFxMRTTudgrS5SiTNbjDz6XRhmj0ejggWsfJzkWcnJoSLWCPC84bt281ERPGkUTfxB+7OjaY7mu0A62r40K8f67lO0j0Fd4EywF1AvHb8+AUsSAWAHCLbWe55JSYk3AFg1cg15a6kRnA2YtRq68Zd9z8ldR2rZWZ4oNM32CvbvQUA2SweCTuGz544QJT4WXM5Dtki/mm7xGWtiZxpuBMRXfr5zx/64Pl/OUhEVDCXThc212Ncmj2QlE7nF6vOj6IRptOn++cXq/Jpdn5RavJptSExpiHIp9mTsGmfP/7A3RQ2Vy9pprJcpDTd0WwHkMTwm2829XzvhZ9n8ndCngnf0FFH5+/2/9N9hGQ7AOSQ0MSoXeoalsNQUY2GOwCsGpZlnd7+nmNS17EcGLG1dqoadtulrmG1zAwPdI6cO2kjhSVtAbKJf2Sweeh0+9Mj507alDRCJl1ONdyJEkn3s9/97i/4P/PN9WRFZnMlEVFw3OMjSm2Wk8hiVeOtiXR6zB8QLFaluPC8nhvTEA8k0uwpi1VFPn/4oc/kRxWYdK848l4YzXYA6Vx749BjPd/+7kGW5u/KWcxUf9/QB08/bUOzHQByjVxHKRRW1zZIXQMAKMuU62O71DUsh0ZvQMN9DeSXVbUo5XdNNBSYcv/+PcWNtQDIRkGPu4UU/rOWcw13IqLLr7X96Ydc0p031TefTufT7CqRucWaggI9EdFUUpp9jlq1YJp9uuuiYBErq1IJP39pWTERUbCrK+V86DN3U7C2KrDY9yU3JQNuXXFVDW7VApDQtTffbOr76U/bNMXcjgluJ0XYN51yZ821o0c7z3/3exgjAwA5yz92re36p7KPSquzSV0DAChHxD9tl+NeC12REQ33VaakUTLcHGkby7JOqWsBAGXIyYY7EVH/oUNNHz7/LwfLbrvNTEQU8c8I0unxWDROlNpA55cIRkXS7GwsHiciiiY1qvLrUhexpqTlufR7ZHr+vLp6g4mIiOEWqybH3adurh0LbVVW0r1yx52PF9dssUtdB0Auc/7i5Yd6f/rTNqL5nRQzg665fRWBkRHP2RYk2wEgt8VCQVkuT9XmF6LJBACrauLjC7K7AJlfWonnwlVWVm+V5X4TMUOn25uVPNoCANZfzjbciRJN94vcIlWVWjhrXcul2ScuCtPpjJoR/G+XV1ZaTEQ0M+ASLFblG+gp57kRDiFuEWvy1xZbrKqqramc/szdNLOpYmbx70xe0HQHkJ7zFy8/1P3t7wrGJYx/+OHl33/rfz6AZDsAgDybTBpDgUXqGgBAWaavOWXXaC2srkHDfRXlFZc2K2UZ7dDp9qeVurQRAKST0w13IqKe/+8XD7398Jf2xbnZ6WGfby5tXpyWTk8W59LskaQ0u55fxMo118Ua6KGkRaz8YlWx87zw8MjceYY7P35r3eSMwma6V+6483HTjdvbiMgodS0Auerqm282XTty5Dj/52GHo/P0N/6fPUi2AwAkyHGsDFKdALDa2FisQ253/Gj0hhLCe83VYqz+xKdapC5iNYyeP3OQmyUNALCqcr7hTkQ0MzRk72xtbSUimnaJpNN1OkE6nV8wOMOl05PFRNLp+dz5Wc+kbynn9du3JRaxeiZEFrfG42OfuYtmFDZepqy+Ye+GnXc7CC+EACRz9Y1Dj3V9+7sHp/v6h849/c8YIwMAkESOY2WQ6gSAtSDHO35UWh2eD1eB6cbtdu4ChqzNDA90+gZ7sVMOANYEGu4c78eXW488/KV9Kr65zs63uOPhcJSIKJCUTtemLRgUS6dPJy1W5dPsjIofXTP/N9SGxOiaQL9TsIg1LrKIlQoSi1jHNxpd/q2bM/k2s15hdW0Dmu4A0rr66zebur77PRvGyAAACMmtyaSEpggAZB853vGj1uVZpK5B7lRana2svmGv1HWsVDQUmHL//r1GIsL7HQBYE2i4J5kZGrKfe+bZZ9IfN5gT6fTwuEeQNucXDCYr2b49kU4PiCxW5RalJsurs1QREcX9/lD65+cXsaY8ZrHMjbrx/MEeQtMdANZAROoCAACyUXBi1CF1DZlSaXU2qWsAAGWJhYIOqWvIlEZvsEhdg9zd8Il77VLXsBoG33u7iWVZp9R1AIByoeGextfX9+I7D39pny8pna4rLs4nIiJusWpy+1vDpc2T0+xzVMJFrGpD4ry/q0uwiJUV+fwqbhFr+GK34Dxxs9/RdAcAAABYH9HAjEPqGgAAsoDX299zTOoiMqE3lWOkzArkl1W16E0VZqnrWKmh0+1Px0JB2d2hAQDyIphNDkT+oSH7h08/bbjvpZd+lDo7PSZImxdyi1Vj/oAgnU4iaXZ92iLW1DR74nx8ejpIRYX5RETqDRtMRESsVqthiCiW/Jf5dL3bPen5gz2mcHkpMbOzic815Z1mSoxFRERx7oswkxNTjKm0hA0GQqr8fD0RUbDcSHGdltihoVFm48bK5JrYgUE3U7Opih0bm2QqKkzJBbNDV+fOzz02NjbJVJSb2KtX3cymjVXR777wfMzlPJz+vwEAAACAXLEs6wxNjrnk1HTIKzbZgh63Q+o6AEBZ/O6rDmNd/b1S17FUap0eYa7lM1ZZd8t+3rm3v+cYlqQCwHpAw30Bvr7+F9955NHAH/zyFy/xj2kKErPWJy52uUpu3Zb6JoubtZ5MU5pIp093XXQVcmNm5mg1gv/tNaVlxUREswMDo3nbt5lTRtdEIlF12nlVbU0lEVHcM+FTVVWZpq23UIybPc90d0/Qtq1FLBHFWCZRIrElRETMpW43s/UWc+Jj3FfxeYLE98/5L1xdkbg4MDXhoxsqTSkfnBoP0g0Vif+bP39DeeLMlCdE//z0Phoesad/jwAAAABy5xvsc+hNFY9LXQcAgJRmfZMOInpK6jqWqrC6xjrefVbqMmSpuGZLq9x3gkRDganx7rONUtcBALkBI2UW4R8ash/76tf+lv9zUVo6PRk/az3qmw7yj+mrq01ERIxWuFiVjSTS6bPDI3OLWNXVGxY8z4uMzJ+nwkQKnlQii1X5r+McEBl1I7w4QNyoG7b7knB0jcjFBCo1FRMRUfdHwvM/+bcX0GwHAAAApZqdmuyQuoZMYIwCAKyFeCQsq+dCuTeMpcKo1dbKHXfK/iLz4HtvNxGWpALAOkHD/Tq8H3/8guNLj+5LfozRCdPpBbWJxaozA67R9I/FI8LFqnnc+bBHZBGryHn19kSinp1InE/9AnHB6BratjWRqOcWtzIp54WjbshsXvBiAnEXE2hmZu5iAlVVmUTP/uXX91Ff/4EFPxcAAACAzEWCM7JqMmGMAgCsEW9ockwYwMpueD7MUFm9tVXqGlZq+OyJA5jbDgDrCQ33JfAPDdlPfOWrc/PK4tzs9ODw8FzaXFNclE9EpFoknR5KPl9UlLKIVfR8v1OQTo9zaXOGnf8bDJ9O7xIuVmVF0uwMN+qG7V54EWsKPs0+MCi4mJBy/i+/jjEyAAAAoHjxSNghdQ2Z0Ojz0WACgDXhH70mqwuQKq0Od/xkQK3Pb5TTnH4xM8MDnf6RQdnPnwcAeUHDfYl8ly8fOPpIIunOp9lD4xOCtHlMJJ1exM1vn/VMCs6zIotY9XyanVvEmhJHjwnT7IxlkXR6PIO+wFFLAAAgAElEQVR0OhFRZH4Rq+C8yNz5ufNPfuNJNNsBAAAgV8wMD3RKXcNSFVbXNkhdAwAoU2hyXFYNd8hM9c67ZZ9ud3eeapK6BgDIPWi4Z8A/NGQ/+sij+7Rcmp1RLzw7fbq/X5BOZ1R8mn3+b6gNiUWs/otdgrR5XGx2ellisSqJpdl1wnQ6y6XZmcEBQTqdFUuz1yQWsZJHeDGBIlHBxQTaeouZGyMj+1/EAAAAAEsVDQUxBxYAcl7Y70PDXaG0BUVNelOFWeo6VmLodPvTbCyG/0YBYN2h4Z4h/9CQ/f19f/5XRPOLUpOVcGn2GDc7PRkrMjs9r86Skk5PbsbPLWKdnl/Eym5YJJ0eXiydnmiuM8mXB8TS7PwiVrFmP8/lmr+Y8OQ3mml42L7gWQAAAAAF8ruvOqSuAQBAamwsJquLj3nFJpvUNchFVcOuFqlrWImZ4YHOoMfdInUdAJCb0HBfhum+vh+deOTL+zQFidnpXpF0OqmEs9m1XNrc3yU8L5Y2V5UlzsdcidnpKUl6sXR6bSKdzniEi1UZkVE37FZuseqESJpd5GICbb0lZREr/fWTf4UFqQAAAADZj2EYi9Q1AIDyxCNhpIcVKL+sqkXu6XaMkgEAKaHhvkyBoSH7hWeefTb5sZSGOJdmT06n66qrTUREjMhiVZZriEeHR+bS5uoNG0xE8834lA64WJp9Lp2+8CLWlHQ6j7s4kIJbxEquAeF5tUpFf/H1feRy/UjsSwAAAAAo3axv0iF1DZlgNFqL1DUAgCLJKuEOS2Kssu6W9ZJRjJIBAKmh4b4C05evHDj56Jf3MSKz0zVcmj044BLMTo9HwoK0uZZbxBqZSKTT2ZTzwnS6alsinR4Xm7UeE46uIT7NzqXTxS4OpDDXViWfT/GDF5/DGBkAAAAAAAAITY4J7/gG2covq2rW6A0lUtexXBglAwDZAA33FQoMDdm7n33+GSKi0PDwXNpcv0ianTeblGZXFfGLWBdOp4ddwkWspBJZ3Mql09nuj0RG3YjMZucuDrDdl4TntZrUiwl/8T/2kWvgRZHyAAAAAHIGG404pa4BACAbhLwTTqlrgFUj+3Q7RskAQDZAw30VzPT3v/j+o1/eF/IsLZ1ewC1WDYud59LpyY+pt29LpNP9ibQ5k/IXRGatW8wpi1iZ5D9waXZ2ZmZu1M3cYlUxkWii/pmZIP3F/9iHZDsAAAAAEcuyTqlrAACAzOhN5Vapa8hmck+3D589cQCjZAAgG6DhvkqCQ0P2j1848L2FPu7vc4rMQhem2VXcItbQxW5B2jyu5tPp83+DX6zKdgnPiy1iZbg0Ow0MCEbdiC5irdlUSUREf////t9otgMAAAAAAIBcqXV6o9Q1ZDFZp9ujocCUf2SwReo6AACI0HBfVTO9vd8/86eP7UtuoBdxafaoyCx0ViTNrrNYUtLpKfH1GJdmn15qOl1ksSp3XqwZL3q+sDCfvvbfMUYGAAAAAAAABGLhEBanKoC2oKhRzun2odPtzYQlvgCQJdBwX2XBoSH72T/786+nP86o+DT7fHtdU1pWTETkv9glTLOLNcTLyhZMp7Mii1vZmppKIiKGW8SaQmTUzdxi1eRFrH/1xF8h2Q4AAAAAAABiQpPjGOGhAFUNu1qkrmG5vP09xyL+abvUdQAA8NBwXwP+/v4Xz6Yl3Vludnp0enouna6r3pCSTk9uxrNcQzw6Mr9Yld3Apdm1OmEzPrxAOp2IiGv2M2KrWF0ukVE33OiaJ/62mVyuH4l+kwAAAAAAAAAge9qCoia9qcIsdR3L5enpkO0oHABQJjTc10hoaMje+dW/mHvS13Kz02fF0ukiaXZ1bSKdHhufECxWpXBYmE7flkinMyKLWBmu2Z/yNfk0u8ioG4rF4/S1/76P+voOiH1vAAAAACAval2eReoaAAAgO8k53T56/sxBLEoFgGyDhvsa8l+5cuD3f/r4PiIiXXW1iYiI4ZrrKel3Ps0+PJ9mVxUV5RMRsVzaXNAxJyLWKZZOVwv/TQ2JRax06ZJgdA2ffk/xrz95AWNkAAAAAJRDozdYpK4BAACyj0qrs8k13R4NBaZ8g71ItwNA1kHDfY2FhobsHY/t+yr/53hEmE7P4xarRiaE6fQ4tyg1+TEVl2ZnuXR6Svo9Jkyzk9mcsog15Tyffp/hFrF+7S+RbAcAAAAAAIAlUWl1RqlrgOUrvem2FqlrWC53x6lWwqJUAMhCaLivg+Dg4L9d/PJj+5IfC/Q5Bel0Rs0vVp2nKkik0yPdwsWqpFItmGZnuz8SntdqhLPfuVE37MDgKH3tL/fRNSTbAQAAAAAAYGnySyutUtcAy8MwjMVYV3+v1HUsR2hyzBX0uFulrgMAQAwa7uskNDRkv/jlx/YVcGn2WMAfIkodFRPn0ukp89ctlpR0OpMSf4+nptOJiCypaXYm+Q/c6Bo2+XwVt4j1xz95Ac12AAAAAAAAUKpYOIQ0dJKiTZtbpK5hudydp1sI6XYAyFJouK+j0NCQ/aOv/WVivpjIrHUNlzYPXewWpNPjWh2XTp/vuKvKuHS6a2mLWJmaxCJWSlvcyn4VY2QAAAAAMiSrEQqzvkmH1DUAAEgtNDmO5ZrzjKU339YodRHLEZocc0X803ap6wAAWAga7usscKX3QNeXH9/Hcmn26PT0XNpcU73BlHw2ZRg7P/t9WiSdrhM21/k0O7ndc4tYqbAwsYg1aVEq+1WMkQEAAADIlEqrwwgFAACQrbzi0iaN3lAidR3LwaXbAQCyFhruEpgduma/9v0fthIRhUTS6XGRdDpbWyuaTiciYsMRwSJWlkuzM9wi1tQvwI2u+esnm9FsBwAAAAAAgOWS6wzwXFdx6x3NUtewHEi3A4AcoOEukeCVK609jz2+j7jmOps0Kobl0unRkZH5dHpRIp1OKuEoGh7jTFrEWph6nkn+/AaDHmNkAAAAAJZPrcuzSF0DAADAcqi0OpveVGGWuo7lQLodAOQADXcJhYeu2Uf+5dvPpD+u3b4tsVh1fMJHlDZahhtFk2Lb1sQvykAgRJS2dDUucv5ff/qvSLYDAAAALJ9Gb7BIXQMAgNQYtRrjtWSocENNk9Q1LAfS7QAgF2i4S2zW6XzR9fjj+2aT0+kcVq1SEaU10A0GPRER63QJzostYiVuEStduuQiIop9/4cH2fMXWlahdAAAAICcpTUUWqSuIRPxSBiLAgFg1TEqNRZIy4+xcsedj0tdxHIg3Q4AcoGGexaIDF2zj+z/5jeiY2NTyXH0eCyemLWe9BhjMVcREbEiaXY+/c7OiCxWpUSzPX74SNMqlw8AAACQc3RFRovUNWTIK3UBAKA8ecUmm9Q1QGa0BUWNUtewHEi3A4CcoOGeJaIjI7+42vQVW9zr9fOPqcoS6fRId5dL8Bd0wsWqxJ2ngavCRazHT55Gsx0AAABgdWBJIACA/O72AaKy+gZZLktFuh0A5AQN9yzCzs52DD2277PxsbEpIiJmwwZT8scZNinPHk4sViW3e36xKpdmZ7lFrAz3cPz7PzgYf/2Nh9ewdAAAAICcwTCMReoaMuHt7zkmdQ0AoExyu9sn18drMQxjKayubZC6jkxFQ4EppNsBQE7QcM8y8UDg5Ni+r9hi4+O+uce0OkGaXVVbU0lExI57fOkfowjXjKdEs509/HbT2lQLAAAAkHtUeXosCQQAIFne7ZPT47UMVZvkmW7vONUqdQ0AAJlAwz0LsbOzHeNf+ep/4ZPuFAknGugjSWn2wsJ8IiLiFquK+um//Qea7QAAAACrS1dQLKuGu9991SF1DQCgPIxaLavnwmgoMCV1DVIzbb5FlvPbgx43Gu4AICtouGcpNhB4f+bPvmKLj41NsbW1lURE5BGm2VlusWrKY1u3mun7PzjIvvbaH69DqQAAAAA5paBqk03qGgAApKYrKLFJXUMmZoYHc3ucjFpt1ZsqzFLXkanR82cOUo7fmQAA8oOGexZjZ2c7Zv7sKzaKRRNNdZVa+O9lMOiJiBin0z33mN3eRocPN61PlQAAAAC5RW4jFGZ9kw6pawAA5ckrMckq4R4Lh3K6aWuouKFJ6hqWY/qaE+l2AJAdNNyzHDs72xH7ctOnaWxsimIxQZqdLOYqIiIKBEJERLGf/vur9Kv/eGh9qwQAAADIDSqtziZ1DZlioxGn1DUAgPIU12y2SV1DJkKT4zmdcJfjOBlvf88xNhbL6X83AJAnNNzlIBT6ILbvz238H+Pdl1yCMzqtJn7gBwfZ/3ztv61naQAAAAC5JK/YZJO6hkyxLOuUugYAUBY5jieJRyI5m3CX478XEdGU62O71DUAACwHGu5yMTvbEd2//xHiF6kSEZv04fhvDr8bx4JUAAAAgDVVYr5JVglBb3/PMalrAADlkdv8diKiSHAmZ5PSchwnEw0FpiL+abvUdQAALIdG6gIgA4Hg++E//6pN889Pv5r8cPzADw6ymNkOy8QwjIXRaC38n1ea3IuGAs5YeNbJ/zkeCXcQltwAAIACMAxjKayubZC6jkwEJ0ZztsEEAGunaFOdrC4+Es29L8lJchwnM9Z11i51DQAAy4WGu9zMhjuiLf/8Zd1P/vU3FI/H4y+/8gaa7bAYlVZnU+vyLBq9waI1FFp0RUaLRp9vlKJhwKfswtNeZyQw4+Sb82jKAwCAHGgMhTapa8hUeNqbsw0mAFgzRrktj46GAlOUo+835DpOJuC+imWpACBbaLjLUTB4KrzvK/8Xs2XLf2V7ev5F6nIgO/CNdV2R0ZpfWmktrK6xavSGEqnrSpb0wlz0Bbq3v+cY34yf9U062GjEibmzAACQLQqra2WXEIyGAmi4A8Cq0hYUye65cGZ4MGefC+U4TmZmeKAT7wMBQM7QcJeraPQKmu25i2EYi8ZQaNMVGa1FN5htcru9fSFcQ55vxj9FlEijzAwPdvjdVx2zvkkH0vAAACAFhmEsZfUNe6WuI1NsLJazTSYAWBsl5pubpK4hU7k8XqvoBrNN6hoy5enpRLodAGQNDXcAGWAYxqIrMjUaKqttJeabbNmWXF9LGr2hxFhXfy/XjH+KKJF4mL7mcoS8445YKOggNOABAGCN6YpMskt0YmEqAKw2hmEschsnQ5S747XkuHuEiCjin26TugYAgJVAwx0gOxnV+nxbQcUNjcU1m21ynLm3lgqraxu4F45PECUaCtNX+9vC/ikHknwAALAWKm69o1nqGjLld191SF0DACiLvrSySeoaliNXx2vJ8WLx6PkzBwmBKgCQOTTcAbIEPyamsLq2UY63rEspKQFPockx12TfR22BsWt2NN8BAGA1qLQ6WV78nvVNOqSuAQCUpax+R5PUNSxHrr4vMFRW26SuIVP+sWtItwOA7KHhDiAtY15xaZPpxm1NcrzVLxvpTRXm6jsqniCiJ3Kp+V6+7Q5HNt3e6+3vOTbefdYmdR0AAKuhxHyT7NLt0VBgKh4JO6SuAwCUQ1tQ1CTHi485PF7LKLcgVzQUmIqFgmi4A4DsoeEOIAFtQVETkuxrL7n5PjM80Dl5pds+65uwE25RBACAJZLrstQp12WH1DUAgLKU1TfI7uIjUe6O11Lr821S15CpiY8voNkOAIqAhjvAOmHUamvRDZbm0ptva8ylpafZgpv7/gIRvTB6/szBmZFBO5J/AABwPUWbNrdIXcNyzAwPoGkBAKtGpdXZ5HpHbtjvU/SdrgvRG8ttUteQKYyTAQClQMMdYG0ZtQVFjWX1Dc1yfYGqRJU77ny8csedj4cmx1zuztMtEf+0XeqaAAAg+zAMY6nccefjUtexHNHAjEPqGgBAOSpv+2Sr1DUsVywUdEhdgxRMm2+R1cJUjJMBACVBwx1gDTAMY9GXVjZVWXc3I82evfSmCrPZ9uBL0VCg1d1xqjXocbcSxs0AAADHuGWbLBtMM8MDnSzLOqWuAwCUgRuHKcvw0MzwQCfl4Ot7hmEscpu3j3EyAKAkaLgDrCKGYSxFmza3yDUNl6s0ekPJxl33PxUNBZrReAcAAKLE+AQ5zm4nIpq80m2XugYAUAxjVcOuFqmLWK4p1+WcbOJqDIU2qWvIFMbJAICSoOEOsApUWp2txHxTs1zfmEMCGu8AAMC74RP32qWuYbnC05NoWgDAqsgvq2qWW1I6Wcg7npPPh/mllTapa8hUro7+AQBlQsMdYAVUWp2t9KbbWox19fdKXQusHjTeAQByW35ZVYtcG0wYJwMAq4VRq60bd93/lNR1LFc0FJhiY7GcXJhaevNtsprf7unpfJ3wfgsAFEQldQEAcsQwjKW4Zot982e+eBTNduXiG++W+xudecWlzVLXAwAAa0/uDSZPT6cs584DQPapathtl7qGlcjVmeCMWm2V2x6xmeGBnPy3AgDlQsIdIDPG4potrZjRnls0ekNJzT2ffSE0OdZ87YNjTfFI2CF1TQAAsDbk3mCK+KfRtACAFcsvq2qR66JUXq7OBNfoDVapa8hUNDDjkLoGAIDVhIQ7wBLll1W1WO5vdKLZnrv0pgrz5s988Wj5tjscDMNYpK4HAABWV8GGmlY5N5hGz585SLglHwBWSKXV2eR8pw9RYpxMLBTMyYa73Oa3YxQaACgREu4A16HS6mw3fOJeu1xnucLqM9bV31tYXdPBzXdvkboeAABYOW1BUVP1Hfc8IXUdKzEzMmiXugYAkD1j7ac+J/tGda6OkyEiKq7ZbJO6hkxMX3M5pK4BAGC1IeEOsACGYSymG7e3bf7MF4+i2Q7p+PnuG3be3aHS6mxS1wMAAMvHzW2X9ezz0OSYCyPPAGClNuy82yG3+d9icnWcDMMwFrm9dw15xx1S1wAAsNrQcAcQkVdc2my+b29HWX3DXqlrgexWWF3bsPkzXzxasKGmlYiMUtcDAAAZM5ptD8q+weTuPN0idQ0AIG/FNVvsch6rxQtNjrlydZyMKk8vu/ntufpvBQDKhoY7QBKGYSzl2+5w1Nzz2Rfk/sYb1lf1Hfc8sWnPH3YwarXsXuQCAOQwoxLSnNFQYArLUgFgJYprttiVsqtqsu+jnH0+1BvLbVLXkAlvf88xqWsAAFgLaLgDcPhUu7Gu/l6pawF50psqzFs++ye/zy+rapG6FgAAuC7jhp13O5SQ5nR3nGolLEsFgGXSFhQ1KaXZTkQUcF+V9YiwlcgvrZRV+MfvvuqQugYAgLWAhjsAkRGpdlhNG3fd/1T5tjscDMNYpK4FAABEKabZTkQU9LhztrkEACujLShqMtsefEnqOlaLp6fzdZZlnVLXIRW5hcdmfZMOqWsAAFgLaLhDTlPr8xst9zc65fbCBLKfsa7+XvN9ezvU+vxGqWsBAIAUimq2j54/c5CQbgeAZcgrLm1WUrOdiMh3tc8udQ1SkeNoSyz7BgClQsMdclbBhprWuvsfeg2pdlgrGr2hpO7+h17jFqoCAID0FNVsJyKavtrXInUNACA/xTVb7DX3fPYFqetYTbm8LJWISKM3yKrhjvntAKBkGqkLAFhvDMNYqm6/q01Jb7Yhu1Xfcc8T3v4e63j32UZCChEAQBKMWm012x6U/YLUZKPnzxzM5dEJALAsRtON2+1l9Q17pS5ktbk7T7dIXYOUdEVGWTXcMb8dAJQMCXfIKSqtzma+b28Hmu2w3ox19fdu2vOHHXK81RMAQO64GcWKarZHQ4EppNsBIBOMWm3dsPNuhxKb7aHJMVfEP22Xug4pyW1hKua3A4CSoeEOOSOvuLR582e+eFRJb7ZBXvSmCrPZ9qADc90BANaNsbhmi91se/Alpf3+d3ecakW6HQCWir/wqNTgkafnvF3qGqQmt71k8Ui4Q+oaAADWChrukAuMSpxRCPLEz3XXFhQ1SV0LAICSMWq1ddOeP+yo3HHn41LXstqiocBU0OPGfhAAWAqj6cbtbUq88MjDc6L8FqbODA90EkZtAoCCYYY7KJ3ilqOBMphtD740ev6MzTfY2yR1LQAASpNfVtWycdf9T0ldx1oZOt3eTGhUAMB1qLQ62w2fuNeuN1WYpa5lLQ1/cLyFcvw5UaXVWaSuIROBsWGk2wFA0dBwB8Vi1Grrxjvva1P6C0yQLz51iaY7AMDqUGl1tsrbPtmq5AvtM8MDnbk+pxgArkuxi1HThSbHXLO+iZxOtxMR6QqKZZVwn52aRMMdABQNDXdQJEattiptORooU+WOOx83VFRbR86dtFGOJ3MAAFbAWLChpqX6jnuekLqQtTZ64XfNUtcAANlLW1DUtHHX/a258j7I3Xm6ReoasoHeVC6rhnskOIOGOwAoGhruoDhqfX5jzV0P2HPlReZ6C02OuULeCedSz8tteY8UCqtrGzbsvNuBpjsAQObyikubqz/xqZZc+L0/fPbEgXgk7JC6DgDIPiqtzlZ6020tufTa29vfcwx3/CTkFZssUteQCfwuAwClQ8MdFEVbUNRktj34ktR1yJW3v+dYeNrrjARmnNFQwBkLzzqJVvaCaLz7bPIfjSqtzkpEpM0vtKq0WqPeVG5V6/TGXHpzIAZNdwCAzOTKbGJeNBSY8o8MtkhdBwBkF4ZhLEWbNrcocUH09Xh6OnDHD0dOo9S4hakAAIqGhjsoBprtSxcNBaamXJcdocnxjlnfpIONRpwsyzrX4Ut7+eb9bGTCQUQU9LiJKNGYZxjGwmi0lrxik01vKrcWVN5gzZVGChGa7gAAS5GLKU4iosH33m4i/G4AAE4uN9qJEnf8sLEYxpJQYpyq1DVkAgtTASAXoOEOioBm++JCk2Mu32CfIzgx6ogGZhzr1FzPGMuyTjYSdgY9bkfQ46bJK11EXCo+r9hkK6jaZFN6gwVNdwAAcbnaaCci8vR0vh4LBdukrgMApJfrjXaixHsb3PEzj1GpjVLXkIlIYMYpdQ0AAGsNDXeQPTTbxc0MD3ROXum2h/1TDpmnP7zxSNjBN+HHu8+SWp/fqDeW20ybb2lUYgIeTXcAgHnagqKmqoZdLUp8vl+KaCgwNXmlq0nqOgBAWiqtzla4oaYplxvtvGsfHGsivEaek1dsskldQyZmfZMOqWsAAFhraLiDrKHZnmquyT492ZatKfbVEAsF2/wjg23+kcFmhmEsuiJTo+nGbU1yml14PWi6A0AuYxjGYqja1Fyx/Y6mXFiGupiB4281En4PAOQqo7agqLGsvqFZSa9zV2L0/JmDWLiZSqXVySrhzkYjTqlrAABYa2i4g2yh2Z4QmhxzeXrO20MTo3YlN9kXwrKsc9Y30Tpy7mQr33yvuPWOZiUkIQuraxuKa7a0+gZ7m6SuBQBgHRi1BUWNJeabm3JxbIyY4bMnDqCxBJB71Pr8xoKKGxpLb76tMdcvOiZLjMnsxaLUNPmllbKa4Z6L71kBIPeg4Q6yhGZ7Yp6r72qfHTNd5/HN96vvv9PKqNXWohsszXJ/o8LfNoymOwAolFFbUNRYWF3bWFbfsFfqYrLJzPBAp39kEI0lgByh0ups+WVVjUodmbgahs68izt+ROiNpRapa1gqb3/PMalrAABYD2i4g+wwarV14677W6WuQwrRUGBqrOusPeC+2opkwOLYWKzDN9jb5Bvslf2tuJU77nw8EphxBj3uFqlrAQBYKUattuoKSmxFm+oakWQXFw0Fpty/f69R6joAYO0wDGPRGApt+aWVNrkHRNbD0On2p2W+l2rNyOkCTXja65S6BgCA9YCGO8gKo1ZbzbYHHbn2gjQaCky5O061Bj3uVkKqI1PeiH/aPnLupF2l1dlKzDc1yzFFuXHX/U+5HIecEf+0XepaAAAywajVVo3eYC2srm0sMd9ky7Xf4csxcPytRlxYB1Aco1qfb9Mby21FN5htcg2CSMHT0/k6gifiGIaxSF1DJiKBGafUNQAArAc03EFOjBvvvK8tl96oo9G+uuKRsGPySpfD29ttKdq0uYUf1yIXZtuDL/UefqUD6R4AyGYqrc6mzS+0GiqrbWiwZ27wxOEnMbcdQP74i435pZU2Q0W1FQ325ZkZHuicvNLVJHUd2YrRaC1S15CJsN+H9zEAkBPQcAe5MG7YebdDTrfLrQQa7WuLZVmnb7C3afpqX4vcGu9m24MOZ3ubhfDfBQBIz6jS6qza/EJrXonJiobSyo2eP3Nw1jeRk2PzAOSMb67riozW/NJKK8ZlrY5oKDDl7jzVRHjduyC1Ls8idQ2ZYGMx/FsCQE5Awx1kobhmS2uuvIkfPX/moG+wt5nwwnLNJTfey7butMvhzZFGbyjZsPNux8i5k1apawGA3MAwjIXRaC3a/EKrSqs1FlRtsumNpZZcuQi+XmaGBzqxIBsgqxlVWp1VrcuzaPQGi95Ubs0rNlly5T2KFAaOv9WIOzsXp9EbLFLXkIl4JIx/TwDICWi4Q9bLL6uSVQJ5ubz9Pcc8PR3NeFG5/liWdY53n7VNXL5gq7ztk1l/caewurahuGaLHY0ZAFgpRq22Miq1kYgor9hkIyLSGgotuqL/n737bWrruvf+v4QQFv+FMWDZBkGcRFedK0a1J7XTYwe1THsy54zHdKYznXPuWHkEJo/AyiMIeQSR71y/6UxmisdzdXKScStit7HrgQjnCiltMBKyLQQWEgIhISH274ZN4rj+g4Sktdfe79e9ntPgz5njsKXPXuv7dfRTqtfOemxhenHqhld2DsCsdl4sCvHoxHC9vam/ztbgaNzf7RFCCBUOZRhNJHj1PcZrGRKHygCYAoU7dM1qbxw5fHr4kuwc1bSV21i9f/PaKMsw5dsu5IOLUzc8+9r2jzrfesev57nD3cdPXciuLAX5ewOz6H7zZ2NbuSxf0vaoxdnr0fPvNjPaym2sPi7b+fuNPeH35O7V2xsdej9gYWb3b177gM+4u9Pcc8QrO8NurccWpmVnAIBaoXCHblmsVk/vv/17QHaOaopNXv8osxj1C75k68pmemUsfG080PHqG4FO90sVv+cAACAASURBVOB52Xme5/Dp4bFI8CpLVGEKFCMwoq3cxmokeNUr+ByACuD3JIxg6c6ty9lE3C87ByqPF4IAzKROdgDgORw9g28HjHoKL5dcjtz97JNfZBajzGrXr1Tyu29G5q/94Te55HJEdphnqbc3tfcMvh0QQjhkZwEAlGanbOelKQA88niXlU92DpXYHfv7ZWfYrezKEs87AKbBCXfokpGXpLIUVS3FXHb83l8/D+r1tHuLs2/w1f/876TsHACA3aNsB4Afo2wvj0q7VrYLeb7/AjANTrhDd2zNrT4jLkndym2szl/7w28ef5Dkw4Zavj/tvpXbWJUdBgCgLsp2APgxynZz2C4U+A4MwDQo3KErFqvVc/j08JjsHJW2HluYjvzpiqeYy47LzoLyFXPZ8cifrnhY+AMAKAdlOwD82P2b1z6gbC+PxWLpl52hFIXsOs8+AKZB4Q5dMeLc9tjk9Y8Wp254NE0Ly86CvdM0Lbw4dcMTm7z+kewsAAB17Lx8p2wHgEciwavvsSC1fJZ6W7/sDACAZ6Nwh240H+w11Nz2x6fY3nu8GBUGk1mMjjJiBgCwG+uxhenFqRteXr4DwA+jNguZtYDsLKgdbasQlp0BAGqFwh26UGdr8DpPnr0oO0el7FwZ50OksRVz2fFI8Ko3l1yOyM4CANCnpTu3Li9O3fAK9rcAgMgllyOR4FUvozbNh5fOAMyEwh164Dj01lBAdohKWY8tTIevjfdzZdwctGIxdO+vnzPXHQDwL56YTUzZDsD0UvOzE/f++jmjtSrE1tjikZ0BAPBsFO6Qrvlgr9/e0eWSnaMSOMVmWqnFqRuepTu3LssOAgCQb2dcArOJAeCR2OT1jx7OTHoF35Mqps5mc8jOAAB4tnrZAWBuRhols3Tn1uXHp9hgUjv//+8+fuqC5CgAAEnWYwvT8a/+MsLVeQB49AIy+pf/8TFCxtxS87MTsjMAQC1RuEMmw4ySoWzHjnR0zlfYWA8fPj18SXYWAEBtxSavf8SydAB4JDU/O5H4dsrHC0gAgNkwUgbSNHb2jBphlEwkePU9ynY8KZuI+yPBq+/JzgEAqI1ccjly97NPfkHZDgCP3L957YOHM5NeynYAgBlxwh1SWKxWjxFOAEeCV98rZNYCsnNAfwqZtUAkeFW4vOc+lp0FAFA9idnpK8nvvvEJ5hIDwKOxWtNf+liMWn32jgMsTQUAnaJwhxSdbs+Y7Ax7RdmOl6F0BwDjyiWXIw9uT/i2C/mg7CwAINtWbmM1HvpyjGXRtWNtsLM0FQB0isIdNWdrbvU5BtxDsnPsRfT6p+9TtmM3Cpm1QPT6p47es+9+KDsLAKAy7t+89kE2ER8TnGoHAGa146Uy8XtB2RkAoJYo3FFrjp7B037ZIfZi6c6ty5vpFeVP6KN2NtMrY0t3bnm6j5+6IDsLAKB8lEoA8INccjkSm7oxWsxlx2VnAQBATyjcUVOqL0pdunPrMgtSUY6dvzeU7gCgHsbHAMAPnhgfw00fAACegcIdNWOxWPp7PG+Pys5RrtT87ARlO/YiHZ0bbepyelqcfYOyswAAXi6XXI7Ep2/6GSMHAI8s3bl1ee3eXT83fQAAeD4Kd9RM65FX/PX2pnbZOcqxHluYfjgzOSI7B5SXWpy64T3y81+FVL7pAQBGR9EOAD+WmJ2+kpqbGaVoBwDg5SjcURMWi6Vf1VEaW7mN1fhXfxkRXJdEZaTu3/rTiMt7LqjqCygAMCqKdgD4sdT87MTKP7/2M1ILAIDdo3BHTTiOHlN2yWgkeNXLSQ5UklYshu7fvDbq8p77WHYWAMCjQmk18o8ARTsAPLJ059bltQfhMa1YDMnOAgCAaijcUXV1tgZvp3vwvOwc5Yhe//R9PmSiGgqZtcDSnVteVW9+AIDqtnIbqyv/+HqcQgkAHvn+9yIz2gEA2BMKd1Td/tfe9MvOUI6lO7cub6ZXlD2ZD/1jiSoA1N56bGE6MTs9VsisjQvGxQGAyCWXI4nZO4FsIj4m+L0IAMCeUbijqupsDV7HgHtIdo5SrccWptPRuVHZOWB4qfj0lz57xwHmuQNAFeWSy5Hk3b+Pbyw/CHCaHQAeScxOX0nfuxso5rLjsrMAAGAkFO6oqnbXa8qV1lu5jdX49Jc+wekO1IBWLIZit7/w955990PZWQDASCjZAeBf7Zxmz60sBRgbAwBAdVC4o2osFku/irPbY7e/8PPFHLW0mV4ZS83Pjqh4GwQA9GQ9tjC99iASpGQHgB+wswIAgNqicEfVtB55xS87Q6lS87MTzG2HDIlvp3wtzt4Qo2UAYPdyyeVIOno3mF1ZCm5trAc5rQkAj+yU7JnlB+OMjAEAoLYo3FEVFoulv/v4qQuyc5RiK7ex+nBmckR2DpiTpmlhRssAwIv9qGDPbYQ4qQkAP2CUFgAA+kDhjqqw7+/2yc5Qquhf/scnmNsOiRgtAwA/2MptrK7HoqFM/F4wn0mHirlsUPCcBoDvbeU2Vlcj/wxuLMWC+bXkOLd8oFfNPUe82URcdgwAqBkKd1SDo8fztlLLUlPzsxNctYQeJGZDo44B91eycwBArewU6/m1VLiwsR7eTCeD24V8SFCuA8CPPPkiMpd6OM4pdgAA9InCHRVna24dUWkO9VZuYzXx7ZRPdg5ACCG0YjEUm7z+kfPk2YuyswBApaTmZyeEECK7shTaLuRT+Uw6pBWLqe1CPig5GgDo1npsYXpjORbaXE2G8pnVIAU7npSJ3wtyMxYA9InCHRXX6R5U6nR7PPTlGNcvoSeZxah/K7fhU+nFFQA8LZdcjtz76+f9snMAgAp2ynVu+gAAoD4Kd1SUxWr1tDj7BmXn2K1ccjmSTcT9snMAT0ndv3lt1OU997HsIABQLntHl6uxs8fPcxYAfpCan53YGaGVz6RD24V8mJPrAAAYC4U7Kqr1UL9Sp9sf3J7wyc4APEshsxbIJZf99o4ul+wsAFCuHs/bo5E/XQlwkwyAGeSSy5FcaiUsxKNxH0IIsZlOBoUQghFaMDPHgHvo4cyk7BgAUDMU7qgkx/7X3xyRHWK3UvOzE3zwhZ7Fp2/6OeUOQGX19qZ2x9FjY8nvvlHm8wEA83qyMH9SMZ9L5ZIPvz+Fvl0opArZ9ZAQQmjbxRQn1AEAwJMo3FExqi1LZVEq9I5T7sAP7n72yS94SSpEY2eP//Dp4Uuyc5Si0z14Pn3v7kgxlx2XnQUwMn5PAuby+PaEUp8JAMAs6mQHgHG0u173yc6wW0t3bl3mejtUEJ++6ZedAYB+ZBPxsVxyOSI7R6mcJ86MCSEcsnMAAAA5LBZLv+wMAFArFO6oCIvF0u8YcA/JzrFba/fu+mVnAHbj8Sl35co1AFWTik3dUGpfihDfL1BVLjcAAKgMS72tX3YGAKgVCndURENrhzKzWTndDtVwyh3Ak4q57HhqfnZCdo5SHT49fInTbQAAVIa2VQjLzgAAeDYKd1REx6vHfLIz7Ban26EaTrkDeJqqe0g6f3IiIDsDAABGoNohMltji0d2BgCoFQp37JnFYulvcfYNys6xG5xuh6oSs3cCsjMA0A9N08L3b177QHaOUjkG3ENWe6Myt+IAAEBl1Nls7HIBYBoU7tgzlcbJcLodqsom4mOyMwDQl2wiPraV21iVnaNULFAFAKAyVLoFW2dr4NkPwDQo3LFnqoyT4XQ7FJdaunPrsuwQAHQldf/mNeUWkdo7ulzNB3v9snMAAKC6XGolLDvDbjXu72akDADToHDHnqg0TmZ9MRqQnQHYi7UHYU65A/iRQmYtoOICVefJsxctVitfvAEAAAAYDoU79kSVcTLrsYXp7UI+KDsHsBdasRhS6doogNpIzIaUO+UuhBCdbg8vEQEA2IPsylJIdobdcgy4h2RnAIBaoXDHnjR1O72yM+xGYnaaL/UwhOX/N8nfZQA/ohWLIRVHTjkG3EO25laf7BwAAKhqu5BPyc4AAPhXFO7Yk0734HnZGV5mK7exWsisBWTnACohv5Ycl50BgP6ko3OjKi5QPXx6mAWqAACUaSu3EZadoRR1tgav7AwAUAsU7iib1d6oxDiZ5W8mA7IzAJWiaVpYxXnNAKouFbv9hV92iFLV25vaWaAKAEB5ivnNsOwMpbBYrbxkB2AKFO4om91xwCs7w25sLD8IyM4AVNJq5B8B2RkA6M9memVsPbYwLTtHqVigCgBAebTtolIjZRqa23jeAzAFCneUrfWQyys7w8usxxamtWJRmUUywG4UMmuMlQHwTEtf/03JBao9g28HZGcAAEA1qn3XtTW19MvOAAC1QOGOcjlanH2DskO8TPK7mYDsDEAVpFQ8xQqg+rYL+aCKC1RbnH2D+9r2K/myAAAAmVTa4dLQ6uiXnQEAaoHCHWWx2hu9sjPsBgsmYVS8TALwPGv37vpV+vK9w/nWO37BAlUAAEqyHosqc8q9xdnLSBkApkDhjrKoML99PbYwrWlaWHYOoBp4mQTgeTRNC8dDX47JzlGqentTe1vvUeVyAwAgU34tFZadYbfq7U3tgpfrAEyAwh1ladzfrfs305wAhpFpmhbOJZcjsnMA0KdsIu5X8XdE9/FTF+psDV7ZOQAAUEVhYz0sO0Mp6mwNuu8SAGCvKNxRFseAe0h2hpfhBDCMLh29G5SdAYB+Pbg94ZOdoRzdb/6MU+4AAOxSPpNWZqSMEELYGlso3AEYHoU7SqbCyTPGycAMMssPeKkE4Lm2C/lgan52QnaOUrFAFQCA3dsu5MOyM5RiX3sHhTsAw6NwR8lUeCO99iASlJ0BqLZiLhuUnQGAviW+nfLJzlAO51vv+C0WS7/sHAAA6J1WLCp1wr2h1dEvOwMAVBuFO0qmwhvpbCLOyV+YQWo9tjAtOwQA/dI0LXz/5rUPZOcoVb29qd1x9BijZQAA2AWV9raoMJ4WAPaKwh0la+py6r5w3y7kg7IzALXAbQ4AL5NNxMdU+iK+o9M9eF6FMXYAAMiWS62EZWcohcVq1X2nAAB7QeGOkrU4+wZlZ3gRFefVAuXKr6WUukIKQIpUbOqGkjPRD701FJCdAQAAvcvE7wVlZyhFvb2Jwh2AoVG4oyQqvIlW7cMGsBdbG+tB2RkA6F8xlx1X8YW0vaPL1djZ45edAwAAPdvKbYRlZyhFQ6tD970CAOwFhTtKUmdr6Jed4WU208mg7AxArWiaFt7KbazKzgFA/xKzISVPufd43h5lgSoAAM+3ldtQ6tZr6yGXV3YGAKgmCneUpKG5TfdvorcLeaU+bAB7tR6L8ncewEtpxWIoNnn9I9k5SsUCVQAAXkwrFpX6PqD3MbUAsFcU7iiJveOArgv39djCtBAiJTsHUEuMUQKwW5nFqF/FWzGd7sHzVnvjiOwcAADo1ePvwspgMToAI6NwR0msDXaH7AwvsrEcU+rNPlAJqs1sBCBV6v7Na0qOlnGeODMmhND15xAAAGRR7bvwvrYOr+wMAFAtFO4oiWPAPSQ7w4sUNtbDsjMAtVbMb4ZlZwCgjkJmLaDaKTghvl+gquTLAgAAqm1zNalU4d7cc8QrOwMAVAuFOwyFhakwo+1CPig7AwC1LH39NyWL68Onhy+xQBUAgH9VyK4rVbi3OHt1Pa4WAPaCwh27psKMNW2rEJadAZBBxZnMAOTZLuSDS3duXZadoxydPzkRkJ0BAAC9Ue0QTr29qd1itVK6AzAkCncYiqZpYdkZABnWY1GlTrQAkC8dnRtV8WWdY8A9xAJVAAD+lWoj4xqa272yMwBANVC4Y9f0vtQkNT87ITsDIEt+LRWWnQGAclKx21/4ZYcoBwtUAQD4V2sPIkHZGUrR1O30ys4AANVA4Q7DKOZzKdkZAFlYGAygHJvplbFccjkiO0ep7B1druaDvX7ZOQAA0JP8WkqpW6/trte8sjMAQDVQuGPX6mwNuj5Jlks+VOrDBVBJW7mNsOwMANT04PaET3aGcjhPnr3I7FcAAH6wtbEelJ2hFPX2pnYVdsUBQKko3LFrjfu7+VIL6FQxvxmWnQGAmrYL+WBidvqK7Bzl6HR7xmRnAABALzRNC6u2n0Xvo2sBoBwU7jCMzXQyKDsDAAAqSs3NKLtA1dbc6pOdAwAAvViN/DMoO0Mp2l2vsQgdgOFQuAOAAWwX8oxUAlA2TdPC8dCXSp4WP3x6mAWqAAA8trEUC8rOUIoWZ9+g4DkOwGAo3LFrjgH3kOwML6JtFcKyMwASsTQYwJ5kE3ElF6jW25vaWaAKAMAj+cxqUHaGUtmaWznlDsBQKNxhGJqmhWVnAABAYanY1I1R2SHKwQJVAAAe0YrFkGpj4lqcfRTuAAyFwh0AAABCCCGKuex4an52QnaOcvQMvh2QnQEAAD1QcI67V3YGAKgkCncAMAhVSzIA+pL4dsonO0M5Wpx9g/va9it5Qh8AgEpSbY57vb2p3Wpv5JQ7AMOgcAcAAMD3NE0L37957QPZOcrhfOsdv2DxGgDA5FSc497cdYjCHYBhULhjVywWS7/sDC/CyV4AAConm4iPqTb/VYhHJ+Taeo+Oyc4BAIBMWrEYUm0R+v7X36RwB2AYFO7YFUu9rV92BgAAUDOp+zevKTmepfv4qQt1tgav7BwAAMiUjt4Nys5QCsbKADASCncAAAD8i0JmLaDqDbLuN3/GKXcAgKllV5aCsjOUirEyAIyCwh0AAADPlJgNKXnKnQWqAACzK2TWxmVnKBVjZQAYBYU7AAAAnkkrFkNLd25dlp2jHM633vHrfQcNAABVlFqPLUzLDlEKxsoAMAoKdwAAADxXOjo3quoCVcfRY4yWAQCYVvK7mYDsDKVirAwAI6BwBwAAwIukYre/8MsOUY5O9+B5FqgCAMwqn1kNys5QKsbKADACCncAAAC80GZ6ZUy1a+k7Dr01FJCdAQAAGbRiMZRLLkdk5yhFvb2p3dbc6pOdAwD2gsIdhuAYcA/JzgAAgJEtff03JZeQ2ju6XI2dPX7ZOQAAkCF59+/KLU9tcfZxyh2A0ijcsSvaViEsOwMAAJBnu5APqrpAtcfz9igLVAEAZpRNxJUr3Dvdg+d5bgNQGYU7dkXTtLDsDAAAQK61e3f9LFAFAEAd24V8UMVnt31/t092BgAoF4U7AAAAdkXTtHA89KWSxXWne/C81d7IFXUAgOms/ONrBU+5H/fJzgAA5aJwh2FYrFaP7AwAABhdNhH3q7aAbYfzxJkxIYRDdg4AAGops/xAucLd3tHl4kU5AFVRuMMwLHVWvkADAFADD25P+GRnKMfjBapKLn8FAKBcxVx2XMWxMm1HXvHJzgAA5aBwBwCDaHH2cssDQE1sF/LB1PzshOwc5Th8evgSi9gAAGaj5lgZlqcCUBOFO3ZN71+s97V1eGVnAGSqtze1y84AwDwS3075ZGcoV+dPTgRkZwAAoJZUHCsjhBBNPUe4mQZAORTuAAAAKJmmaeH7N699IDtHORwD7iHmwgIAzKSYy46ruIOl642TPsH+FQCKoXCHYdg7DjBOA6bFVUsAMmQT8TEVv7wLwQJVAID5JO/+XblT7vX2pvZ9bft9snMAQCko3LFr2ZWlkOwML2JtsPOlGaZlqbf1y84AwJRSsakbSl71tnd0uZoP9vpl5wAAoFY2lh8EZGcoR9f/PqnkZw0A5kXhjl3bLuRTsjO8iGPAPSQ7AyCLxWrlhRMAKYq57Lje97w8j/Pk2YsWq5UbcgAAU9CKxdB6bGFado5S2Tu6XLbmVp/sHACwWxTu2LXtQkHXhbsQjNWAeTU0t1EYAZAmMRtS9uRZp9szJjsDAAC1kvxuJiA7Qzl6Bk/7ZWcAgN2icMeuFbLruh4pIwRjNWBedbYGTrgDkEYrFkOxyesfyc5RDseAe4hTcwAAs8ivJZWb4y7Eo1PudbYGr+wcALAbFO7YNW27qPsT7vvaOryyMwAyNO7v5oQ7AKkyi1H/Vm5jVXaOchw+PcwCVQCAKWiaFk7MTl+RnaMc+1970y87AwDsBoU7dk0rFnV/wt3ecYDSEaZkd+zvl50BgOml7t+8puRomXp7UzsLVAEAZpG+dzcgO0M5HAPuIU65A1ABhTtKkksuR2RneJHm7kMU7jAle0eXS3YGAChk1gIqLmMTggWqAADzKOay43r/bv88nHIHoAIKd5Qkl1oJy87wIo9LR66Ew1Q45QFAT5a+/puSp9yFEKJn8O2A7AwAANRCYvZOQHaGcnDKHYAKKNxRkuzKku7HyljtjV7ZGYBasjW2cCITgG5sF/LBpTu3LsvOUY4WZ9/gvrb9yr4wAABgt3IrSwHZGcrFKXcAekfhjpJsbWTCsjO8TENzG+UjTGVfewd/5wHoSjo6N6rqAlXnW+/4BbflAAAGp2laWNUX5I4B95CtudUnOwcAPA+FO0pSyK7r/oR7c88Rr+wMQC01dTkp3AHoTSp2+wu/7BDlqLc3tbf1Hh2TnQMAgGpbX4wGZGcoV8/gab/sDADwPBTuKMl2Ia/7wt0x4B6SnQGopRZn36DsDADwtM30ypiqC9m6j5+6wHxYAIDRbRfywdT87ITsHOWwd3S5GAMHQK8o3FGqlApXxK32xhHZGYBaoBACoGcPbk/4ZGcoV/ebP+OUOwDA8FYj/wjIzlAuxsAB0CsKd5RsPRbV/Sl3u+OAV3YGoBb2tXV4ZWcAgOfZLuSDidnpK7JzlIMFqgAAMyhk1gKq3kirtze1N3b28KwGoDsU7ihZJn4vKDvDy3S88r844Q5TYGcBAL1Lzc0ovUDVYrH0y84BAEA1xadv+mVnKNfh08OXeFYD0BsKd5Qsn0nr/4R7R5eLhy7MgJ0FAPRO07RwPPSlkuNZ6u1N7Y6jx5TMDgDAbhUya+OqvhwXQgie1QD0hsIdJSvmskHZGXajobWDU+4wNOa3A1BFNhFXdoFqp3vwPL9vAQAGl1L15bgQPKsB6A+FO8qRUuFLc8erx3yyMwDV1NjZw0slAKpIxaZuKDtj9dBbQwHZGQAAqKZsIj6m8il3ntUA9ITCHWVJR+8GZWd4mRZn3yBjZWBkrYdcXtkZAGC3irnseGp+dkJ2jnLYO7pcjZ09ftk5AACoIqVPufOsBqAnFO4oS3ZlKSg7w24wVgZGZbFY+lucfYOycwBAKRLfTvlkZyhXj+ftUV7kAwCMTPVT7ixQBaAXFO4oy9bGelB2ht3o+t8nlb2+DrwIL5MAqEjTtPD9m9c+kJ2jHCxQBQCYgNKn3IUQovMnJwKyMwAAhTvKomlaWIU57vaOLpfFavXIzgFUGjsKAKhK5dNzne7B81Z7Iy88AQCGpfJzWgghHAPuoX1t+zl4B0AqCneUTYU57kII0Xqon4ctDIVxMgAUl7p/85qyz2bniTNjQgiH7BwAAFSJ8qfcnW+942e0DACZKNxRtszyg3HZGXZj/+tvjgi+GMNAGCcDQHWFzFpA8QWqyr4wAADgZVQ/5V5vb2pntAwAmSjcUbZiLhuUnWE36u1N7bbmVgpKGAbjZAAYQWI2pGxpzVI2AIDBKX/KndEyAGSicMdepFQ5ndYzeNovOwNQCRar1cM4GQBGoBWLoaU7ty7LzlEuTs4BAIwsm4j7Vdjb9iKMlgEgC4U79mTt3rwSY2XsHV2uOluDV3YOYK/YSQDASNLRuVFVr6w7BtxDLFAFABhZfPqmX3aGvWC0DABZKNyxJ/m1pBKFuxBCtLteo6iE6hyPdxIAgFGkYre/8MsOUS4WqAIAjKyQWQusxxamZefYC8eAe6ixs8cvOwcAc6Fwx55omhZW5QHc6R48z3UyqMzW3DpSb29ql50DACppM70ypspniafZO7pczQd7/bJzAABQLUtf/035g2uHTw9fslitHtk5AJgHhTv2bDXyT2VOubceecUvOwNQLnYRADAqlb/MO0+evciXeACAUW0X8sHE7PQV2Tn26vCpX44LbqUBqBEKd+xZbmUpIDvDbnUfP3WBU+5QkdXeOGLv6HLJzgEA1aD6l/lOt2dMdgYAAKolNTej7IvxHfaOLlfHq28EZOcAYA4U7tgzlcbKCMEpd6ip45Vjyn/IBYAXSc3NKL1A1dbc6pOdAwCAatA0LXz/5rUPZOfYq0734Pl9bfv5XgWg6ijcURHJ72YCsjPsFqfcoZo6W4PXMeAekp0DAKpJ07RwPPSlsifFD58eZoEqAMCwson4WC65HJGdY696z777IaPgAFQbhTsqIr+WVGaOuxCccoda9r/2pl92BgCohWwi7lf1y3y9vamdBaoAAANLxaZuGOJ0uMt7Lih4SQ4owWpvHFHxZgqFOypC07SwSrNXu4+fulBna/DKzgG8DKfbAZjNg9sTPtkZysUCVQCAkRVz2fHU/OyE7Bx7VW9vaj9w7KRShwYBk3I4T5wZ6z377ocdr76h1OJjCndUzHpsQakHFqeGoQL+ngIwm+1CPqjyl/mewbcDsjMAAFAtiW+nfLIzVIJjwD3U1ns0IDsHgOdrPtjrt3d0uYR4tIOhf3gkrMrhWQp3VEwhsxZQadmZY8A9ZLU3jsjOATyP1d44wul2AGak8pf5FmffoIrXXgEA2A2jLFAV4tHNd5aeA/pUZ2vwOk+evfjk/6ze3tT+yq9/++fmg7263/tE4Y6KWv5mMiA7QymcJ86w4Ay69fjvJwCYjupf5p1vveMXfL4AABhUNhH3r8cWpmXnqASX99zHjIMDdMdx6K2hwPP+l86TZy8ePHEmpOd/dyncUVEb8XtKFYT2ji5XY2cPp9CgO42dPd9fnQIAM8om4mMqL1Bt6z2q1GciAABKsfT13wzzPdrlPRfUc3EHmE1b79Gxl/UhLc6+QZf3XFCvN0sp3FFRmqaFVZu7evj08CWLxdIvOweww2Kx9Pd43tblQwMAaigVn77plx2iXCxoBwAY2XYhH4xNXv9Ido5KqLc3tT/ewcLtNEAyq71xpPv4qQu7+e/W25va9bpQIVocYgAAIABJREFUlcIdFZe8O6Pcia7On5wIyM4A7HAcPTZWb29ql50DAGQrZNYCqr3If1L3mz9T7jMRAAC7lVmM+lW9jfa0Fmff4METZ4JCZ6UdYCYWi6W/99/+PVDqP6fHhaoU7qi4Yi47rtpD1zHgHtLrNRSYi9XeONLpHjwvOwcA6EViNqTs85kFqgAAg0s9uD3hkx2iUlqcfYOMhAPk6fzJiUC5hw+fWqgq/cUZhTuqQsUr4M633vEzWgaSOcp5mwsARqYViyGVr6zz+QIAYGRGGi0jxKORcG29RwOycwBm09jZ43cMuIf2+nMeL1SVvpeBwh1VUcisBbZyG6uyc5Si3t7UzmgZyNTx6htlv80FACPLLEb9qn2u2FFvb2p3HD3GaTkAgGFlFqOj67GFadk5KoXSHagtq71x5PDp4UuV+nktzr7Bo+/+7iuZN00p3FE18dCXyn25dAy4hxo7e/yyc8B8GCUDAC+Uun/zmrKjWTrdg+f1NFMSAIBKi09/6ZOdoZK6j5+6wFg4oPrKndu+G71n3/3wwLGTQSFhxAyFO6omm4iPqXga7fDp4Uuyr57AXKr5gAEAoyhk1gIqn5479NZQQHYGAACqRSsWQ9Hrn74vO0cl9Z5990Nbc6tPdg7AwBw9P/238Wre9HcMuIf6h0fCVnvjSLX+jGehcEc1pVQ85S6EEIdP/XJc6GDJAsyh2g8YADCKpa//puxJM3tHl4tbdAAAI9tMr4yl5mcnZOeoJJf33MeU7kB1tPUeHWtx9g1W+8+ptze1Dwz/5g+1XKhK4Y6qUvWUu72jy9Xx6hsB2TlgfM0He2vygAEAI9gu5INLd25dlp2jXD2et0dZoAoAMLKHM5MjKnYAL0LpDlTevrb9o93HT12o5Z9Zy4WqFO6oNmVPuXe6B89zEg3VZLU3jjhPnr0oOwcAqCQdnRtV9Ys8C1QBACaQiv7lf3yyQ1QapTtQObbmVl/v2Xc/lPFn12qhKoU7qk7VU+5CPJrnXus5TzAHi9XqYW47AJRF2Zf5Qjx6oc9nCwCAkRVz2fHY5PWPZOeoNJf33MePR1IAKJPFavUcPj0s/d+jai9UpXBHLaRit7/wyw5Rrt5/+/cAS1RRYY7Dp37J3HYAKFM2EffnkssR2TnK5TxxpmbzIwEAkCGzGB1Vedn58zhPnr3Y1ns0IDsHoCKL1epxec8F9dKFVHOhKoU7amIzvTKm6hfjentTO0tUUUGOgyfOBO0dXS7ZQQBAZQ9uT/hkZyjX4wWqyi6ABQBgNxanbnhVve3+It3HT12gdAdK5ugZfDugl7J9R7UWqlK4o2ZiUzeU/WJp7+hyHTxxJigo3bFHtdrCDQBGt13IBxOz01dk5yjX4dPDl1igCgAwuNTCF3805Bi17uOnLnS8+gYH84DdcRw8cSao5y7EefLsxSM//1WoUhMuKNxRM8Vcdjw1PzshO0e5Wpx9g229R6XPmYK62nqPBmq9hRsAjCw1N6PsAlUhhOj8yYmA7AwAAFTTdiEfjF7/9H3ZOaqh0z14noN5wEvpvmzfYe/och1993dfNXb2+Pf6syjcUVOJ2ZCyp9yF4OoYykfZDgCVp2laWOUFqo4B9xALVAEARreZXhlbunPrsuwc1dDi7Bus5KlYwGhUvOV/+PTwpQPHTgb3chuVwh01pRWLIdW3lVO6o1TNB3vHKNsBoDqyibiye2KEYIEqAMAc0tE5Qy5RFeLRqViX91ywztbglZ0F0BOVDx46BtxDrl+eD5V7OIbCHTWXWYz6Vb7+LQSlO3avsbPH7zx59qLsHABgYCnV98Q0H+z1y84BAECVpeJf/WVE9S7geertTe2v/Pq3f7Y1t/pkZwH0QOWyfcfOQtV9bftL/q5B4Q4ZUtG//I9Pdoi9onTHy7T1Hg0cPj18SXYOADA61ffEOE+evchVdACA0WmaFo4Er3pl56gml/fcx/QEMDsjlO07tnIbq/m15Hip/xyFO6Qo5rLjidnpK7Jz7BWlO57HSA8YAFBB4tspn+wMe9Hp9ig7ix4AgN3SisVQJHj1Pdk5qqn7+KkLB0+cCQlGxsGEjNaFxG5/4dc0LVzqP0fhDmlSczOjRrhORumOpziM9oABABVomhZWeU+MY8A9xDV0AIAZFDJrAZWf2bvR4uwb7B8eCXODDSbiOHDsZNBIXUhidvrKZnqlrEMxFO6QRtO0cOz2F37ZOSqB0h2POQ6eOGOoBwwAqET1PTGHTw+zQBUAYAqZxejo0p1bl2XnqKZ6e1P70Xd/91U5858BxTgOnjgTdAy4h2QHqZSt3MZq8rtvfOX+8xTukGozvTKm8szVJ3FtzNwsVqvn4IkzwRZn36DsLABgYqn7N68p+6W23t7UzgJVAIBZpKNzvvXYwrTsHNXWe/bdDztefWNc0BXAgCwWS78Ru5CFL/44IoRIlfvPU7hDuoczk4bZVN7i7Bs8eOJM0GKx9MvOgtqx2htHXN5zhnvAAICKCpm1gMov81mgCgAwk8WpG14zlO6d7sHzR37+q1CdrcErOwtQKRar1eP65fmQ0bqQ+zevfbBdyAf38jMo3KEHqehf/scnO0SltDj7Bl2/PB/iy7I5NHb2+AeGf/OHentTu+wsAIBHErMhZU+5CyFEz+DbAdkZAACokdTi1A2vUQ7hvYi9o8v1yq9/++fGzh6/7CzAXu0cPDRaF5Kan53IJuL+vf4cCnfoQjGXHTfS/LadWW0sPzM0R8erb4wfPj18SXYQAMCPacViSOXPFS3OvkHmvQIATCQVCV41RekuhBCHTw9fOnjiTIib8VCVUQ8ebuU2Vh/OTI5U4mdRuEM30tG5UaNdJXN5z338eJkqs9oMpM7W4D3y81+FOt2D52VnAQA8Wzo6N6ryF3fnW+/4BZ8fAAAmoRWLITOV7js343nBDsUY+uDhXue2P4nCHXqSik9/6TPaA/bxMtUgI2aMobGzx//Kr3/7Z3tHl0t2FgDAC6Vit7/wyw5Rrnp7U3tb79Ex2TkAAKgVs5Xu9fam9t6z73544NhJ9sBB9yxWq+fgiTNBox48jF7/9P29zm1/EoU7dEUrFkP3b14z3BveFmffoMt7Lsjba3U93rwdMuqbXAAwos30ypjKt+e6j5+6wHI1AICZaMViyEg73nbDMeAecv3yfIjZ7tArW3Orz+U9FzTactQdS3duXd5Mr1T0oAuFO3SnkFkLxCavfyQ7R6XtvL3uePWNccEVcaXsa9s/asTN2wBgBktf/03pl93db/6MU+4AAFMp5rLjkeDV92TnqKV6e1P7zmx3XrZDRxxtvUcDLu+5j402r33HemxhOh2d81X651K4Q5cyi1HDzXPf0ekePN8/PBK22hsrsogB1fP4ylSo9+y7Hxr14QIARrddyAcTs9NXZOcoFwtUAQBmVMisBcxWugvx6Ln/yq9/++fmg71jgoN6kMhitXqO/PxXoe7jpy7IzlItueRyZHHqhrcaP5vCHbq1OHXDm0suR2TnqIZ6e1P7wPBv/tDx6hvjzGrTJUfzwd6xo+/+7iu9n2rPJZcj3/3f/9ORmp+dkJ0FAPQqNTej/AJVPi8AAMzGrKW7EEI4T5692D88ErY1t/pkZ4H5NHb2+I+++7uvjLy7biu3sXr/1p8qtiT1aRTu0LPU/Vt/GlH5C/LLdLoHz7OZXF9sza2+/uGRsPPk2Yuys+xGbOrGqKjSAwIAjELTtHA89KWyo1nq7U3tjqPHlM0PAEC5zFy619ub2l3ecx8zZga1snPL3wy76xa++OOIViyGqvXzKdyha2ZYmLIz252HqFx1tgbvgWMngyrNJkvMTl8p5rLjsnMAgAqyibhf5Ztzne7B83xOAACYkZlLdyF+GDPDDXlUkTK3/CshErz63nYhH6zmn0HhDt0zy8IUHqJyWKxWz4FjJ4Ov/Pq3f3YMuIdk59mtXHI5kvzuG5/sHACgkge3J3yyM+zFobeGArIzAAAgQyGzFrj72Se/MPIN+JfpdA+eP/of/zXf1ns0IJjvjgqx2htHjvz8VyFVbvnvVfT6p+8XMmuBav85FO5QQiGzFohNXv9Ido5a2HmIsiSluiwWS39b79HA0Xd/95VKRfuOx6URo2QAoATbhXxQ5Z0X9o4uV2Nnj192DgAAZNgu5IOR4FWvmUt3IYToPn7qQv/wSPjxZwI6A5TFYrH0Hzh2Mjgw/Js/GHlW+5OW7ty6vJleqcmYRgp3KCOzGB1dunPrsuwctbKzJIWHaGXV2Rq8Ha++MX70P/5rXtVt2/dvXvug2tefAMCoEt9O+WRn2Isez9uj3IQDAJiVViyGKN0fjaY9fHr4Ep0ByvBofMx//Ne8iocPy7V059bldHTOV6s/j8IdSklH53xmKt2ffIg2H+wd4wt2+WzNrb6d0TGd7sHzsvOUaz22MJ1NxP2ycwCAqjRNC9+/ee0D2TnKxQJVAIDZ7ZTuKu9mqRSKd5TA0djZ4+8fHgmbZXzMjlqX7UJQuENB6eicT+Xr4OWotze1O0+evbgzr81itXpkZ1KEo7Gzx3/k578Ku7znPlb97e1WbmM1/tVfRmTnAADVZRPxMZW/pHe6B89b7Y08DwAApqUVi6F7f/3csx5bmJadRQ92ivdX//O/k229RwMc1sOTbM2tvv7hkfDh08OX6u1N7bLz1JKMsl0ICnco6uHM5IhZH6zdx09dOPru7746cOxk0Nbc6pOdR4+s9saRjlffGH/1P/87efj08CWjzCNb+OKPI5qmhWXnAAADSMWnb/plh9gL54kz7HoBAJhdanHqhtdsB/Jepvv4qQtH/+O/5jtefWO8ztbglZ0H0jhsza2+nQOIZivahXg0ISAdnRuV8WdTuENVqcWpG16zlu5CCOEYcA+5vOc+7h8eSTUf7B0z+6l3i9XqaT7YO9Y/PJIaGP7NH1QeG/Ms0eufvs/cdgConEJmLaDyF/THC1SlfIEAAEBHUg9nJr1mGj27W53uwfOv/Pq3fz544kzo8WE9XtSbw/ejY1zecx8b5QBiqdZjC9OLUze8QoiUjD+/XsYfClRIanHqhvfgiTPBFmffoOwwsuyMmxFCXMwllyPJu38f31h+ENCKxZDsbNVWZ2vwNnb2jHS88r9GjPwQqeUmbQAwk8RsaNQx4P5Kdo5yHT49fGnuj/9fgNtPAACzS0fnfIWN9fDh08OXZGfRmxZn32CLs+/jrdzG2Mo/vh5fexAeM0NfYDYWi6W/9cgr/v2vvzlixtPsT3o8RmZUSCrbhaBwh/pSi1M3vG29R8e6j5+6IDuMbPaOLpfzZNePyvdsIj5ulJPRFoulv76pxdvi7Btpd73mNcND5PEVKJ/sHABgRFqxGIpNXv9I5cVRnT85EXg4M+mVnQMAANmyibg/ErwaPnx6eMwM3xVLVW9vau8+fupC9/FTF9ZjC9OJ2emxQmZtXEgsJbF3VnvjSMcrx0ZV31lXKbJmtj+Nwh1GkNr5l4nS/QdPlu9CCJGYnb6ysRQLFrLrIVUKeIvV6qm3N3ka93d723pf8Rr5FPuzPHEFCgBQJZnFqH8rt+FT9Yu5Y8A9lLw7M1LMZcdlZwEAQLZCZi0QCV4Nubzngqo+22th59S7EOLjpTu3LmeWH4zzWUIdFoul376/29fpPu4zW0/yInop24WgcIeBULq/WKd78PyTc81T87MT2ZWlUH4tFSrmN8OyS/g6W4PX2rCvv6HV4Wnc3+1pcfZ6zPwBaSu3sRr/6i8jgtMGAFBtqfs3r426vOc+lh2kXM4TZ8bu/fXzoOCZAQCA0IrFUPjaeL/Zx8/u1uMO5cJWbmN15R9fj1O+65bD1tw60u563cdp9n+lp7JdCAp3GEw6OufLriwFVf7SXCuOAffQ07+kc8nlSC61Es6uLIW2C/lUPpMOacViStsupvYy481isfRb6m39Qghha2zx1NlsDltTS39Dq6Pf7MX6s2zlNlYjwateZvICQG0UMmuB9djCqKpfyu0dXa7mg73+zGKUJaoAADzC+NkS7YycEZTveuKwNbeOtDj7Rp48QIkfi17/9H297b2jcIfhPL5CJpjbVjp7R5fL3tHl2s3b0p1y/l9+hmN/P1eayvd92c4SGwCoqaWv/zba4uz7s+wc5XKePHtx7tPfm2JpOgAAu5RKR+d8m6vJUO/Zdz+UHUYlT5bvQvwwoja/lhznYFh1Pbm7jpL95SLBq+8VMmsB2TmeRuEOQ2JuW/XtlPOycxgJZTsAyLNdyAeX7ty6rPIpuE63Z4wFqgAA/NhmemVs7tPfB+kHyvfEiNoPc8nlSPLu38dzqYfBYi4bFIy027M6W4O3sbNnpPWQy6vqjcta28ptrC588ccR2eORn4fCHYalFYuhyJ+ueHp++m/j/MKC3lG2A4B86ejc6P7X3xxR9cu4Y8A9tBr5h0+Pp3wAAJBpZ677gWMnx5l/vTf2ji6X82TXRSHERSGEWI8tTK89iARzqYfB7c1ciBPwL1dna/Dua+vwNvcc8fL3sXS55HLk/q0/jei5P6Fwh6FpmhZmbhv0jrIdAHQjFQ99OXb49PAl2UHKdfj08Fj42vi44LQZAABPSz2cmfRm4vf8Kj/r9abF2Tf4+JDjRSEelaGZpQehXPJhaDOdDG4X8iFh4s8lFqvVU29v8jS0OjycYN+79djC9OLUDa/Q+d8pCneYAXPboFuU7QCgL9lE3J9LLvtUHZtWb29qZ4EqAADPl03E/Xc/+yTY985/jKt6q03Pnhg/e14IcUmIH5fw+Uw6tF3Ih432HdhitXosdVbHvrYOr62ppb+py+mhXK+spTu3Lqejcz7ZOXaDwh2msZleGbv72SchHqrQC8p2ANCnB7cnfK/8+rcsUAUAwKC2C/lg+Np4f8erbwRYTFl9T5Xw38sllyO51Eo4u7IU2i7kU/lMOqQViyk9noq3WCz9lnpbv8VqdTQ0t3nqbA2Oxv3dHrtjf7+qBzVUEr3+6fub6ZUx2Tl2i8IdprLzUGVuG2RT5RoUAJjRdiEfTMxOX1H5C3jP4NuBxakbHtk5AADQsVTyu29GNpZio8633vFzMK/2dor45/UzW7mN1fVYNCSEEMV8LpVLPvzRYYLNdDK41wz72jq8T/5nW1NLf0Oro18IIertjQ5Oqcul9+Woz0PhDjNibhukSs3PTjycmRwRlO0AoFupuZnRdtdrXlW/fLc4+wb3te0fVekkEAAAMmymV8YiwavBnsG3A5Sr+lJvb2p/qox/+jAEnY6BqXxQsU52AECWbCLun/v09z/NJZcjsrPAPJbu3Lr8cGbSKxR8YACAmWiaFo6HvlS6rHa+9Y5fCOGQnQMAAL3TisXQ4tQNz/2b1z6QnQWAELHJ6x89vq2pZHdC4Q5T04rF0L2/fu6JTV7/SHYWGF8kePU9VRZ8AACEyCbiYyq/mK+3N7W39R5V+qUBAAC1tHMwbz22MC07C2BGW7mN1flrf/hNZjE6KjvLXlC4A0KkMovR0bufffILlb9UQ79yyeXI3Ke//2khsxaQnQUAUJJUbOqG0h/2u4+fulBna/DKzgEAgCo47Q7IkZqfnQhfG+8v5rLjsrPsFYU78Nh2IR/ktDsqLTU/O3Hvr597tGIx9PL/NgBAb4q57HhqfnZCdo696H7zZ5xyBwCgRDun3VX/HACoIHr90/eNNH6Xwh34se9Pu3OFDHtltAcGAJhV4tspn+wMe7GzQFV2DgAAVKMVi6GHM5Pe6PVP39/KbazKzgMYzXpsYXru09//dDO9YqgDIhTuwDNsF/LBnStkPFRRKqM+MADArDRNC6t+A8751jt+i8XSLzsHAAAq2kyvjEX+dMWTmJ2+IjsLYBT3b177YHHqhiEnAlC4Ay+QTcT9PFRRip1N2kZ8YACAmWUWo36VX8LX25vaHUeP8SIYAIAyaZoWTn73zQj734C92TmkmE3E/bKzVAuFO/ASTz5UGTOD51mPLUzf/eyTX6i+SRsA8Fyp+zevKf07vtM9eJ4FqgAA7M3j/W/93IgHSrOV21g18qn2J1G4A7u0M2YmErz6Hm+zsePJB8Z2IR+UnQcAUD2FzFpA9cVph94aCsjOAACAEWQTcX/42nj/0p1bl2VnAfQuNT87EfnTFY+RT7U/icIdKFEhsxbgbTaEECIxO33FTA8MAIAQidmQ0qfc7R1drsbOHr/sHAAAGEQqHZ3zzX36+5+q/lIeqIZccjkyf+0Pv3k4M+nVNC0sO0+tULgDZdp5m03xbj4742OS330zYqYHBgBACK1YDKl+kq3H8/YoC1QBAKgcrVgMPZyZ9DLfHXhkZxrAvb9+7inmsuOy89QahTuwNymKd/PIJZcjkeDV9xgfAwDmlo7Ojar8zGeBKgAA1bEz351RtDCzpTu3Lj8xDSAlO48MFO5AZXxfvEevf/o+D1Zj2Sna7/318/5CZi0gOw8AQLpU7PYXftkh9qLTPXjeam8ckZ0DAAAj2hlFGwlefU/ll/RAKVLzsxN3P/vkF+nonM/s0wAo3IHKSm2mV8Z2HqzrsYVp2YFQPop2AMDzbKZXxlR/zjtPnBkTQjhk5wAAwKgKmbUAN+JhdDtjdx/OTHqZBvAIhTtQJYXMWmBx6obn7mef/EL1Wa9msx5bmKZoBwC8zNLXfzPCAlWl/28AAEAB3IiHITF29/ko3IEq2y7kg+nonO+7//t/Oni46tvSnVuX7372yS8Wp254KNoBAC+zXcgHE7PTV2Tn2IvDp4cvsUAVAICa+NGNeLoBqIppAC9XLzsAYCI7D9exOluDt+Vgr2//62+O1Nub2mUHM7P12MJ08ruZwGZ6JSBMuswDAFC+1NzMaLvrNa/Kz/POn5wIPJyZ9MrOAQCAWTye8R6wNbf62l2v+xwD7iHZmYCXySWXI/Hpm35K9pejcAckeHzqPZiOzjlsza0jLc6+kU734HnZucxiK7exuvzNZGBj+UFAKxZDsvMAANSlaVo4Hvpy7PDp4Uuys5TLMeAeSt6dGSnmsuOyswAAYCaFzFrg4cxkYOWfX3vbXa+N0gtAj1LzsxPJuzNjfFbcPQp3QK5UIbMWSH73TSD53TeU71W0ldtYXfnH1+OZ5QfjPCQAAJWUTcT9ueSyz97R5ZKdpVzOE2fG7v3186DgthcAADW3XcgHk999E0zNzfQ39RwZ7XrjpE/l23MwhsTs9JXVyD/HmM9eOgp3QD+eWb6rfk1dplxyOZK8+/fxXOphkJIdAFBND25P+F759W//LDtHuewdXa7mg73+zGKUJaoAAEiiaVo4sxgdzSxG/bbm1pFO9+Boi7NvUHYumMfOYcW1e3f9mqaFZedRFYU7oE9Plu+iztbgbezsGWk95PLysH2x1PzsxNq9+fF8ZjXIuBgAQK1sF/LB1PzshMozWJ0nz16c+/T3jFsDAEC+VCGzFlicuhGwWK2e1kP9o+yAQzXlksuR5f83OcZ+u8qgcAcUsF3IBzOL0WBmMSqEEA6rvdFrdxzwUsA/Wnq69iAS5BQ7AEC2xLdTPseAe152jr3odHvGWKAKAIB+aMViKB2d8+3sgOPUOyqJsTHVQeEOqCdVzGXHM4vR8ccFvKizNXj3tXV47R0HPM3dhzwqz5B9kVxyOZJZehDKJR+GNtPJIA8EAICeaJoWvn/z2geqL1BdjfzDV8isBWRnAQAAP/LDqXeLpb+p58hoxyv/a8So3/9RPbnkciQxeyeQW1kKMDamOijcAQPYLuSD2UQ8mE3ERfK7b4QQwlFna/Dsa+vw2ppa+htaHf2qXXFPzc9O5NdS4cLGevhxuR4SXGsCAOhcNhEfU32B6uHTw2Pha+PjgucuAAC69MSs99E6W4O35WCvj5EzeJGd2ezri9EAhxerj8IdMKbUkyW8EEI8nJkU4nERb7FaHQ3NbZ46W4OjcX+3R4hHJ9pqGXA9tjC9lcumdkr1rdxGuJjfDGtbhTBvWAEACkvFp2/6Xd5zH8sOUq56e1M7C1QBAFDDdiEfTEfngunonLDaG0eauw6NUL5jR2J2+sp6bGG8kFnjMEUNWWQHAKA/dbYG75P/2dbY4qmz2Ryl/px8Jh3SisXvf6FTplfPgWMng3q6xZCan51gBrBabM2tvnp7U7/sHM/DdUeoZl/b/tFynp16kk3E/bIz6Am/JwEAKqF8Ny9Kdvko3AHAAI78/FdhPY0voHAHAAAAAH2oszV4Gzt7Rpj5blyU7PrCSBkAMAA+NAEAAAAAnmW7kA9mFqPBzGJ01GKx9De0dow0dTu9ne7B87KzoTw7M9mzK0tBSnb9oXAHAAAAAAAATEDTtPBmemVsM70ylvzum+9Pv7cecnlbnH2DsvPh+dZjC9OrkX+O51IPx7ViMSQ7D56Pwh0AAAAAAAAwoSdOvwshhMNqb/TaHQe8jfu7PXraE2ZG67GF6bUHkWAu9TBYzGWDglPsyqBwBwBUXH4tFZadAQAAAABQklQxlx3PLEbHM4tR8XBmUtTZGrz72jq89o4DnnbXa14WsFYPBbtxULgDACqusLEelp0BAAAAALA324V8MJuIB7OJuEh+942wWCz9dfvsnobmNk9zzxFvi7PXQwlfulxyOZJZehDaWIoFC9n10HYhH5SdCZVD4Q4A6nPIDgAAAAAAMD5N08LFXDaczWXHs4m4eDgzKYQQjjpbg2dfW4fX1tTS39Dq6GcczQ9S87MT+bVUeHM1GaJcNwcKdwBQXJ2twSM7AwAAAADAtFJPnoQXQvyoiLc27Ouvtzf12zsOeKwNdocRT8Wvxxamt3LZVCZ+L7hdKKQK2fWQtlUIa5oWlp0NtUfhDgAAAAAAAKDSUtuFfHC7kBeFzJp4qowXFqvVY6mzOixWq6Ohuc0jhBA7pbwQQuihmN/Kbayux6IhIR7tKtsZn7qZTgaFEGK7kA8JZq3jKRTuAICKy2fSIdkZAAAAAAD6pRWLIa1YFKIgRDaXHRdCfF/KC/FDMb9jp6C1axcSAAATP0lEQVR/+ufsa+vwlvPn5zPpkFYs/ktZzsgX7BWFOwAoztbYoruRMs/60AIAAAAAQLm+L+ifkk3Eg7VPAzxfnewAAIC9qbPZWJoKAAAAAACgAxTuAKC4OluD7gp3basQlp0BAAAAAACg1ijcAUBxjfu79TdShk3sAAAAAADAhCjcAQAAAAAAAACoAAp3AFCcY8A9JDvDk9ZjC9OyMwAAAAAAAMhA4Q4AqKitXDYlOwMAAAAAAIAMFO4AoLA6W4NXdoanFfM5CncAAAAAAGBKFO4AoDCL1eqQneFpueTDkOwMAAAAAAAAMlC4A4DCGprbPLIzAAAAAAAA4BEKdwBQmK2ppV92hqdtppNB2RkAAAAAAABkoHAHAIU1tDr6ZWcAAAAAAADAIxTuAKAwx4B7SHaGp20X8kHZGQAAAAAAAGSgcAcARVksln7ZGQAAAAAAAPADCncAUFTdPrvuFqam5mcnZGcAAAAAAACQhcIdABTV0Nymu8K9mM+lZGcAAAAAAACQhcIdABTV3HPEKzvD03LJhyHZGQAAAAAAAGShcAcARbU4e3V3wj2fSVO4AwAAAAAA06JwBwAFWSyW/np7U7vsHE/TikVGygAAAAAAANOicAcABelxYaoQQmwX8kHZGQAAAAAAAGShcAcABdkdB7yyMzwtl1yOyM4AAAAAAAAgE4U7ACio9ZDLKzvD03KplbDsDAAAAAAAADJRuAOAehwtzr5B2SGelonfC8rOAAAAAAAAIBOFOwAoxmpv9MrO8Cz5TDokOwMAAAAAAIBMFO4AoBg9zm8XQojtzRyFOwAAAAAAMDUKdwBQjB7ntwshhKZpYdkZAAAAAAAAZKJwBwCFWCyWfj3Ob0/Nz07IzgAAAAAAACAbhTsAKKS+qcUrO8OzsDAVAAAAAACAwh0AlNLi7BuRneFZWJgKAAAAAABA4Q4ASml3veaVneFZWJgKAAAAAABA4Q4AyrDaG0fq7U3tsnM8bSu3scrCVAAAAAAAAAp3AFBGc9chXY6TWY38Myg7AwAAAAAAgB5QuAOAIva//qYuC/eNpVhQdgYAAAAAAAA9oHAHAAXYmlt9ehwnI4QQhew689sBAAAAAAAEhTsAKKHd9bpPdobn2S7kg7IzAAAAAAAA6AGFOwDonMVi6XcMuIdk53iW1PzshOwMAAAAAAAAekHhDgA619RzZFR2hudZuzc/LjsD/v/27uYpDvOw4/izLIsWVsCiN5AEAktO1Ni1tZYmkRwr8SZOxkmmSsipycn41lvoXxDl1iP9C0xOSWZ6wOND3cx4upoktdKOU7BrN7ixBLIsDEgCJC2seBE9xJsoiiXrheXZXT6fGwNCv8OevvPwPAAAAEC1ENwBqtzuJ48NxN5wN8vFhULsDQAAAADVQnAHqGLV/FjqamlxYX1tzYOpAAAAAJ8Q3AGqWOeRE6djb7ibq++/4zoZAAAAgNsI7gBVKpVpHUh37O6NveNuirOXBHcAAACA2wju1IxUpnVgW9uOqn08EjZae+/nB2JvuJe10lIh9gYAAACAatIYewDcj1SmdaA3f+qVEEI498t/Gb21slyIPAkqKplu7s8+dvj52Dvu5sr42KshhPnYOwAAAACqiRPuVL3bY3sIIRz46ndGEolEX7xFUHl7j54cir3hXm5MXXCdDAAAAMAdBHeqWiKZzO0/8cJfhMfGdEt75zPPjYQQspFmQUVV+93tIYSwUrwuuAMAAADcQXCnaiWSyVxv/lShMd3Sfuf3tu89cKSt51BVnwCGh5TtPHLidOwR9zLz9m9/GlwnAwAAAPBXBHeq0r1ie9mep4+/1Lyz8/QmzoKKa97ZOVjtp9uLs5ecbgcAAAD4FII7Ved+YnvZ/hMv/DiVaR3YhFlQcYlEoq8z9+xg7B33UpqbnVwrLQnuAAAAAJ9CcKfaZO83tpf15k+9kkgmc5UcBZshe+iJoQf57Mcwd+73YjsAAADAXQjuVJNs19GTDxTby3rzpwqiO7UsmW7u33n4yPdi7/gsi9MXvZ0AAAAAcBeCO9Ui23X0ZGH73gNHHuYfN6Zb2kV3ali257kXh2OP+CxXxsdeXV9fn4i9AwAAAKBaCe5Ug0eK7WWN6Zb2/ce/PhJCyG7QLtgUHY8/OVztV8mEEMK1i+eGY28AAAAAqGaCO9FtRGwvS3fs7u06erIQRHdqRK1cJeOxVAAAAIDPJrgTVVvPoeGNiu1l2/ceOCK6UwsSiURfLVwlE0II02NnT8feAAAAAFDtBHeiaes5NLzn6eMvVeJ3i+7Ugs5nnhuphatkVkuLCyvF6063AwAAAHwGwZ0oKhnby8rR3UOqVKNMV8/QRv91R6VMj745FEKYj70DAAAAoNoJ7my6zYjtZdv3HjjSmz8lulNVkunm/r3HvvKj2Dvux2ppcWHpyvRQ7B0AAAAAtUBwZ1OlMq0DmxXbyxrTLe2iO9UikUzmauXe9hCcbgcAAAB4EMnYA9g6UpnWgd78qVdi/N8Njal0W/fBHxZnPvr41sryaIwNEELIdj/7jUJTa7Yz9pD7sVpaXLj87ls/CCGUYm8BAAAAqAVOuLMpYsb2sk9Our+SyrQOxNzBlpXtOnqykO7Y3Rt7yP1yuh0AAADgwTjhTsVVQ2y/XbbvcP9qafGxm9fmRmJvYevoOnrybK08khqC0+0AAAAAD8MJdyqqIdWUr6bYXrbn6eMv7XriWCGEkI29hfrX1nNouJZiewghfHT2jcHgdDsAAADAAxHcqZhEMpk78NXvVO0p8uxjh5/v/vI3Rz2mSiW19Rwa3uyHgh9VaW52cqV4fTj2DgAAAIBa40oZKiKRTOZ686cKjemW9thb7qWxOZP1mCqVUouxPYQQLvzqX7+/fmttIvYOAAAAgFojuLPhaiW2lzU0ptK33eteCO6s5tFlu46ePNvx+JMvxh7yoK6Mj726dPnjf4q9AwAAAKAWCe5sqEQi0df7te+erZXYfrtMZ3euqbX928WZj86G9fWPY++hZmW7jp4s1Nqd7SH88aHU6d/9uj+4ux0AAADgobjDnY2U7XzmuZFajO1l2/ceOHLoW3//39vadgzG3kLtSSSTue4vf3O0FmN7CCFMj745tL6+PhF7BwAAAECtcsKdjVKzp3o/TXvv499qSDV9benyx4XgtC/3oSHVlO99/u9eb2rNdsbe8jBuTF0Ymz/3vz+IvQMAAACglgnubIS6iu1l6Y5dfW09h15eujJTWru5dDb2HqrXtrYdg31f/+7PGhpT6dhbHtaHv3n9265SAgAAAHg0gjuPrOvoybP1FtvLGhpT6T+ddr86MypIcodsx+NP/rzr6MkfxR7yKD46+8ZPVorXfx57BwAAAECtE9x5ZA2NqROZzu5c7B2VlO7Y1bfj8b/9h6WrM4nVpeJoCKEUexNxJZLJXPez3yi0dR88HnvLo3CVDAAAAMDGEdx5ZDevzY00tbZ/v6m1vSv2lkpr6z6Yb9nd9cPi7NTE+urq72PvIY7mnZ2ne/OnftbYnMnG3vKoXCUDAAAAsHEEdzbEjakLP29qbf/2Vojujc2ZbMfBL/zANTNbTyKR6Nv1xLGRPU998aXYWzbCh796/R9XS4sjsXcAAAAA1ItE7AHUlbp8PPWzzLz9259ev3ju9Pr6+kTsLVRO887O0525Zwcb0y3tsbdshPnz42cuv/dWPvYOAAAAgHoiuLPRtmR0D+GP4f3ahx8MhhDmY29h4zSkmvJ7nvrSUD19pldLiwsTb4z0BZ9VAAAAgA0luFMJWza6r5YWF6ZH3xwqXZ0ZduK9tiUSib7W7oOn9zx9vC6uj7ndB6//4pn1tbXR2DsAAAAA6o3gTqVs2ehe5qqZmpVt3tk5uP/ECz+OPaQSJguvvbxSvD4cewcAAABAPRLcqaQtH91D+CS8X5oYcqK46mWbd3YO1tM97Xf65Nqjgdg7AAAAAOqV4E6lie6fmD8/fmZh8v1hp4urTt2H9hA8kgoAAACwGQR3NkVbz6HherwL+2GU5mYnr4y/Peye97gSyWSudV/f4Fb4XN6YujD28e9+nQ8eSQUAAACoKMGdTSO6/7Ur42Ov3pi6MOLU+6bJpjKt/e29nx/IPnb4+dhjNsNqaXFh4o2RviC2AwAAAFSc4M6mynT1DO099pUfxd5RbVZLiwtX339npDh7aWSttDQSe0+9Saab+zO79/Xv+PxT/fV8bcydVkuLC5OF1/LeDwAAAADYHII7my6VaR3ozZ96JfaOalWam52cO/f7kdL85YL4/vC2amQvE9sBAAAANp/gThTJdHN/z3MvDm/FEPogyiffl67OFFaK10eCa0HuJZvKtPY379iT36qR/XYfvP6LZ8R2AAAAgM0luBNNIpnM7T/+9ZF0x+7e2FtqxY2pC2MLk/83cvPaXOHWynIh9p7YGlJN+W1tHfn23s/1b9974EjsPdVisvDay94FAAAAANh8gjuxZbuOniyIpQ9n/vz4meL0xcJy8drorZul0fX19YnYmyoo25Bqym1r68hnOrvzW+XR0wcltgMAAADEI7hTFdp6Dg3vefr4S7F31LrS3OxkcebSaGnu8uhy8drorZXliVq8ViSRSPQlGlN929o68umOXbnMnn05fwnx2cR2AAAAgLgEd6qGx1Qr58bUhbHV0tJ8cfpi4dbKyvzK0o3REEKIeS1NOaonm7b1NaZb+lIt2/uaWrN9Tq4/OA+kAgAAAFQHwZ2qkkgmc735U4Wt/uDlZivNzU6W5q9OlL8uTl8sbNTvbkg1ZZt37MmVvxbUN5bYDgAAAFA9BHeqUXbXE8dGhFm4N7EdAAAAoLokYw+AT1FanJ0aXro6k2jrPpiPPQaq0Y2pC2MX/+OXuVDfD+UCAAAA1BQn3KlqDamm/L4vPj/swUz4s/nz42cuv/dWfwhhPvYWAAAAAP7MCXeq2vqttYlrH54bXl+/9YWWXV1/E3sPxDbz9m9/OvfBu/0hhFLsLQAAAAD8JSfcqRmpTOvA/hMvDHlQla1qsvDayyvF68OxdwAAAADw6QR3akoikejb+YWjwx5UZSvxOCoAAABAbXClDLVmfnF2arg4/dFCpnPfsw2NqXTsQVBJ8+fHz1z6z38/4XFUAAAAgOrnhDs1y2l36t1HZ9/4ydKV6dOxdwAAAABwfwR3al4y3dzf89yLw+52p16U5mYnL/3XmYFbK8uF2FsAAAAAuH+CO/Ui29ZzaGjP08dfij0EHsWV8bFX5/7w7kAIYT72FgAAAAAejOBOXWlINeX3PPWloe17DxyJvQUexGppceHD3/zbwFppaST2FgAAAAAejuBOXUplWgf2n3hhyDUz1AKn2gEAAADqg+BOPcs27+wc3H/ihR/HHgKfpjQ3Ozn1u18POtUOAAAAUB8Ed+peIpHoa+0+eNr97lSTqbd+9c/Fjz88HZxqBwAAAKgbgjtbRkOqKb/jc0+dzj52+PnYW9i65s+Pn7kyPjq4vrY2GnsLAAAAABtLcGfLEd6JwfUxAAAAAPVPcGfLEt7ZDKulxYWPzr4xuFK8Phx7CwAAAACVJbiz5QnvVMJqaXFhevTNoaUr00PBPe0AAAAAW4LgDp9IJJO51n19gx5X5VEI7QAAAABbl+AOd0gkEn0tnd2Du588NtCYbmmPvYfaUJqbnZz9n7eGbl67OhyEdgAAAIAtSXCHu8umMq39Ow8fGdy+98CR2GOoTqW52cnpsbOn3dEOAAAAgOAO9yGRTOZadu8bcOqdsvnz42fmzr03tFZaGom9BQAAAIDqILjDA0qmm/vbug8O7Dx85Huxt7C5VkuLC7PvvjW8OH1xaH19fSL2HgAAAACqi+AODy+byrT2b997oF98r29XxsdevTF1YcS1MQAAAADci+AOG0N8rzM3pi6Mzf3hveHl63MjTrMDAAAAcD8Ed6iAZLq5P7N7X39bz8F8umN3b+w93B+RHQAAAIBHIbhDhSWSyVxTpj3f2v1Yf/axw8/H3sOfrZYWF66+/87I0tWZwkrx+kgIYT72JgAAAABql+AOmyyZbu5PZ3flW/f15rfvPXAk9p6tZv78+JnrF8+PLBcXCutra6Ox9wAAAABQPwR3iKwh1ZTf1taRz3R257fv7ck1plvaY2+qF6W52cnizKXRxZmpgsAOAAAAQKUJ7lBlEslkrjHdkmtqzeaad+zJuYbm/pTjemnu8ujNa3OFWyvLo8EVMQAAAABsIsEdakAikehr2JbONWXacumOXblkUzq7VUP8jakLYzevzU2U5i6PrpYWJ9aWb07cWlkuxN4FAAAAAII71LBEItGXaEz1pZq35xpSqWw5xqezO/rSHbt7Y+97UKulxYUbUx+OhhBCcfpiIYQQlovXRtfX1uadWAcAAACg2gnuUN+yDammXAghJJu29TWmW/rK38h0dufv/OFHCfU3pi6MrZaWPjWIL12dGb21svyn75VPppe/dkIdAAAAAAAAAAAAAAAAAAAAAAAAAAAAAAAAAAAAAAAAAAAAAAAAAAAAAAAAAAAAAAAAAAAAAAAAAAAAAAAAAAAAAAAAAAAAAAAAAAAAAAAAAAAAAAAAAAAAAAAAAGrG/wP5dFsaqoIoSgAAAABJRU5ErkJggg==;imageBackground=#FFFFFF;" parent="1" vertex="1">
          <mxGeometry x="619.25" y="260" width="41.5" height="17.74" as="geometry" />
        </mxCell>
        <mxCell id="qUHYum_QUu2UJPCzKtRe-89" value="" style="group" parent="1" vertex="1" connectable="0">
          <mxGeometry x="130" y="-36" width="220" height="60" as="geometry" />
        </mxCell>
        <mxCell id="qUHYum_QUu2UJPCzKtRe-45" value="" style="group" parent="qUHYum_QUu2UJPCzKtRe-89" vertex="1" connectable="0">
          <mxGeometry x="50" width="170" height="60" as="geometry" />
        </mxCell>
        <mxCell id="qUHYum_QUu2UJPCzKtRe-46" value="&lt;b style=&quot;color: rgb(0 , 0 , 0) ; font-size: 12px ; font-style: normal ; letter-spacing: normal ; text-align: center ; text-indent: 0px ; text-transform: none ; word-spacing: 0px ; font-family: &amp;#34;helvetica&amp;#34; ; background-color: rgb(248 , 249 , 250)&quot;&gt;Gestor principal&lt;/b&gt;" style="rounded=0;whiteSpace=wrap;html=1;sketch=1;strokeColor=#006EAF;strokeWidth=2;" parent="qUHYum_QUu2UJPCzKtRe-45" vertex="1">
          <mxGeometry width="120" height="60" as="geometry" />
        </mxCell>
        <mxCell id="qUHYum_QUu2UJPCzKtRe-47" value="&lt;font style=&quot;font-size: 10px&quot;&gt;&lt;span style=&quot;font-family: &amp;#34;helvetica&amp;#34;&quot;&gt;Restful&lt;/span&gt;&lt;br style=&quot;font-family: &amp;#34;helvetica&amp;#34;&quot;&gt;&lt;span style=&quot;font-family: &amp;#34;helvetica&amp;#34;&quot;&gt;API&lt;/span&gt;&lt;/font&gt;" style="rounded=0;whiteSpace=wrap;html=1;sketch=1;strokeWidth=2;strokeColor=#3399FF;" parent="qUHYum_QUu2UJPCzKtRe-89" vertex="1">
          <mxGeometry width="50" height="60" as="geometry" />
        </mxCell>
        <mxCell id="qUHYum_QUu2UJPCzKtRe-90" value="Utilizador" style="html=1;verticalLabelPosition=bottom;align=center;labelBackgroundColor=#ffffff;verticalAlign=top;strokeWidth=2;shadow=0;dashed=0;shape=mxgraph.ios7.icons.user;strokeColor=#007FFF;" parent="1" vertex="1">
          <mxGeometry x="388.17999999999995" y="-270" width="50" height="50" as="geometry" />
        </mxCell>
        <mxCell id="qUHYum_QUu2UJPCzKtRe-107" value="" style="endArrow=classic;html=1;dashed=1;strokeColor=#006EAF;strokeWidth=2;startArrow=classic;startFill=1;entryX=1;entryY=1;entryDx=0;entryDy=0;exitX=0;exitY=0.5;exitDx=0;exitDy=0;" parent="1" source="qUHYum_QUu2UJPCzKtRe-81" target="qUHYum_QUu2UJPCzKtRe-26" edge="1">
          <mxGeometry relative="1" as="geometry">
            <mxPoint x="630.7500000000002" y="390" as="sourcePoint" />
            <mxPoint x="530" y="390" as="targetPoint" />
            <Array as="points" />
          </mxGeometry>
        </mxCell>
        <mxCell id="qUHYum_QUu2UJPCzKtRe-108" value="" style="shape=message;html=1;outlineConnect=0;strokeColor=#FF0000;" parent="qUHYum_QUu2UJPCzKtRe-107" vertex="1">
          <mxGeometry width="20" height="14" relative="1" as="geometry">
            <mxPoint x="-10.61" y="-7" as="offset" />
          </mxGeometry>
        </mxCell>
        <mxCell id="qUHYum_QUu2UJPCzKtRe-111" value="" style="endArrow=classic;html=1;dashed=1;strokeColor=#006EAF;strokeWidth=2;startArrow=classic;startFill=1;entryX=1;entryY=0;entryDx=0;entryDy=0;" parent="1" source="qUHYum_QUu2UJPCzKtRe-58" target="qUHYum_QUu2UJPCzKtRe-26" edge="1">
          <mxGeometry relative="1" as="geometry">
            <mxPoint x="639.3543469050333" y="211.7659598520586" as="sourcePoint" />
            <mxPoint x="505" y="420" as="targetPoint" />
            <Array as="points" />
          </mxGeometry>
        </mxCell>
        <mxCell id="qUHYum_QUu2UJPCzKtRe-112" value="" style="shape=message;html=1;outlineConnect=0;strokeColor=#FF0000;" parent="qUHYum_QUu2UJPCzKtRe-111" vertex="1">
          <mxGeometry width="20" height="14" relative="1" as="geometry">
            <mxPoint x="-10.61" y="-7" as="offset" />
          </mxGeometry>
        </mxCell>
        <mxCell id="qUHYum_QUu2UJPCzKtRe-114" value="" style="endArrow=classic;html=1;dashed=1;strokeColor=#006EAF;strokeWidth=2;startArrow=classic;startFill=1;exitX=0.5;exitY=0;exitDx=0;exitDy=0;" parent="1" source="qUHYum_QUu2UJPCzKtRe-47" target="qUHYum_QUu2UJPCzKtRe-144" edge="1">
          <mxGeometry relative="1" as="geometry">
            <mxPoint x="185" y="-30" as="sourcePoint" />
            <mxPoint x="310" y="-132" as="targetPoint" />
            <Array as="points">
              <mxPoint x="155" y="-131" />
            </Array>
          </mxGeometry>
        </mxCell>
        <mxCell id="qUHYum_QUu2UJPCzKtRe-115" value="" style="shape=message;html=1;outlineConnect=0;strokeColor=#FF0000;" parent="qUHYum_QUu2UJPCzKtRe-114" vertex="1">
          <mxGeometry width="20" height="14" relative="1" as="geometry">
            <mxPoint x="39.660000000000004" y="-7.98" as="offset" />
          </mxGeometry>
        </mxCell>
        <mxCell id="qUHYum_QUu2UJPCzKtRe-117" value="" style="endArrow=classic;html=1;dashed=1;strokeColor=#006EAF;strokeWidth=2;startArrow=classic;startFill=1;entryX=1;entryY=0.5;entryDx=0;entryDy=0;exitX=0.75;exitY=1;exitDx=0;exitDy=0;" parent="1" source="qUHYum_QUu2UJPCzKtRe-41" target="qUHYum_QUu2UJPCzKtRe-34" edge="1">
          <mxGeometry relative="1" as="geometry">
            <mxPoint x="542.75" y="140" as="sourcePoint" />
            <mxPoint x="402.5" y="230" as="targetPoint" />
            <Array as="points">
              <mxPoint x="490" y="190" />
            </Array>
          </mxGeometry>
        </mxCell>
        <mxCell id="qUHYum_QUu2UJPCzKtRe-118" value="" style="shape=message;html=1;outlineConnect=0;strokeColor=#FF0000;" parent="qUHYum_QUu2UJPCzKtRe-117" vertex="1">
          <mxGeometry width="20" height="14" relative="1" as="geometry">
            <mxPoint x="-81.41" y="-7" as="offset" />
          </mxGeometry>
        </mxCell>
        <mxCell id="qUHYum_QUu2UJPCzKtRe-123" value="" style="group" parent="1" vertex="1" connectable="0">
          <mxGeometry x="612" y="50" width="80" height="60" as="geometry" />
        </mxCell>
        <mxCell id="qUHYum_QUu2UJPCzKtRe-58" value="&lt;span style=&quot;font-size: 11px&quot;&gt;&lt;b&gt;&lt;font color=&quot;#007fff&quot;&gt;Micro-serviço&lt;/font&gt;&lt;/b&gt;&lt;/span&gt;" style="ellipse;whiteSpace=wrap;html=1;aspect=fixed;strokeWidth=2;strokeColor=#007FFF;" parent="qUHYum_QUu2UJPCzKtRe-123" vertex="1">
          <mxGeometry width="60" height="60" as="geometry" />
        </mxCell>
        <mxCell id="qUHYum_QUu2UJPCzKtRe-65" value="" style="shape=image;verticalLabelPosition=bottom;labelBackgroundColor=#ffffff;verticalAlign=top;aspect=fixed;imageAspect=0;image=data:image/png,iVBORw0KGgoAAAANSUhEUgAAASwAAABSCAYAAADuIulwAAAABHNCSVQICAgIfAhkiAAAHShJREFUeJztnXlYU1f6x997EwJEwq4ISAIUBEUWd1RUXFCrVnGpqPVndapjx7Yuta3tWJ9Oq7XbdERlrK1a0Wm1blVbR8WpChasC2oA0VpQNiFsgbAYAiS5vz9i4r03270hAWLP53nyPJx7zwbKl3Pe877vAUAgEAg7ASMXnLkQE+YGY9144G6u4fUaONWiBHFHBmczXo4U0mVtkNGR8RAIhH2jE6xXwmDfnrGwhE3jZRmQuvc+LLVk4Hg/+Mel6fABmzbJeZC+9jcYZ8l4CATC/uEAAPjyITFjBnzKtvGMQIj5vgBK6lrZrbTceRB/bx7sYzterA8EZkgAK26CdLZtEQiE/YMDAEwTQqKlHbwYzL5tjDfEWzreLJHlbREIhH2DAwBEekCgpR30djZvf0IgEAhrgHf1BBAIBIIpSLAQCITdgAQLgUDYDUiwEAiE3YAEC4FA2A1IsBAIhN2ABAuBQNgNSLAQCITdgAQLgUDYDUiwEAiE3YAEC4FA2A1IsBAIhN2ABAuBQNgNSLAQCITdgAQLgUDYDUiwEAiE3YAEC4FA2A1IsBAIhN2ABAuBQNgNSLAQCITdgAQLgUDYDdyungACgXi24HA4gSGhITMAAGQyWVV1VXUaQRAya/SNBMuGvBb/3PchPq5+AAAPy2sqAQCC/Xv21r4vrGqsyCxqvKYt5z+SnlKq1CWdP1NmDAzqtWbxMP+ZW9IKvqiRNZ+x1TiufMe4laP810ka26T7rz1aZqtxuBxctDwu6ONQH4GfuLjmwcGbks2d+fPnOfKiVr7x2jZtua6urv782fOHKyWSw7Yc18XFJW72vDlvenp6egAAFPxRUJhxMX1/c3NzpqV99g0PW7PklaXLwyP7h6sJQm/n1q5obb50/kJm6rf71re1tuVaOg4GALBtBKSvioSxlnSwPQ8yVv/G7nJTS66p78h4XcG7UyNObBHeZ33JrELgr8x83LP4n5lVR8/nlv3dFnOzhJ7uLlOr5iv+CwCgdnIluMl1NjMnyN8WtTs1lXMBAJbmB+3d/2uBTUSrZFWwLKCt1E1bLuMJG0TbH3baPZu7D+yr8Ojp6Ut/fvbE6VN7v9lt8eXGpsAwzP342VNSQ6KyYtFfpkmlUlZ/iESBomWfb/9yB8fBwYlpmxuZv139fMtnz1uy6uoSG1ZHbm+eGQjRVpyKzfAR8DwsaefUVM6dqBaHnBspeU/+tqh9cpTwE2vPzRL6ePD7ar/GFY2YLcfSihUAQIyfS4itxumpkvYwVbY1fD7f2dDzGS8mzuRwOCJbjDluwviPDIkVAMC8hQtWsenrr39bcfbLr7bvZiNWAABD40bEHv3viarevr5JbNoBWEGwVkXCWF8+8+vqnbkQY+lqDgBAJAD3EFdYYml7e8KpqZx7dmTFuydficrv6rk8i3DVbd3y0KldqYQXk+bZ5A/VrHlzZxp75+jEYyQ8GIa5f526RzJpxtQpht67CQTg7eGp+xjphPdV6jeH2IqWVWxYFYvgRHIepJ8shnRT9RIDIX5NZMe3cwXzYV9yHrzc0X7MkSEB8bVqyJDI4WRH+yKmvg94mBGdLhODWt4AWM4pgPI8vdczHO72P79ySMGkndmhHZ0H4ilKnKfmqtp1oqXGOERXzofMhCmT4n84eMiqfWIY5u4b4CfsaD8ff/FplpfPU1ssAACXy4UQUTCEBgaBA9dBr01pxSO4W3Af5IoW3TOVWo19lfrNoaQZc+4xtWtZzei+JtI6YsRmvE4aY83s87DtRDGs6UhfeNhYIELHGH4ZOkZjTJy+EUAuA+LiDsAubgdQNOqqTFSLQyZHCT9Jyy19ryPzQDzleg2UjvEgggHDAAgCrhAhxQDXGbd3cuBEje3nv8AW/ya9fHv5Yhjmbq3TNQCA6JiY18nl1haF3NHZic+mj7lJLx7sGxHen/zM28MTRgwaalCotAj9+oDQrw/cLfwDfn/wh+65Sq3GUg8eyFg4Zz4jE0q3XBJ3N36cBKsxgM4xxvLdAZu+EWDDDQD/SMqrE5OxtzplDn8Sxh1pGOyZqho3+JhyrWeqatykf1/va76VhrmDA7Y3v+Ym3jXZ41WrTEZFtICK0C0/2pVKmJgw8SOr9P2EeS/NX0Aun/v5zEU27XmOvKj5SxZR+hD69YExw0aaFCsy/UP6wpDIGGq/fGf3l/+y5AST9kiwGOLGgxjztayIVyDA4r0ATq66R05N5dyXR4fu6dR5PMMQADJZK6TfroVkWatpcwYZV75j3JGhkjesefjQqmhtTd299yD52aSpUyZYq38AgPAB/cK1X+M4Tvx49NiXbNq/u3HDAXKZ7+QM0f0iWM9D6NcHevf0oTxLTJpj1LZGBglWdyYgGojx1IObNUNcp3bRbBBP+PCF/ptt0e/Z02c2kcvhkf3DjdVliyhQtIx8Oiitqq1k057nyIuKGhxDOaEfEhXDeGVFZ2hUDHC5Ty1SKrUamz7zBbN/jJFgdXOw6BmUciRR1NtIVYSdo1KpSlofK3Q2q9a2NjxiQMRaa/SdOGfW/5HLp47/yMrfasFLCz8klzUngF4Wz8eB6wAivwDKs6SXFppdZSHB6u4ERAN4Pj3YsbUPFKJrOX/mbDq5nDhn9jxr9Dt6QnwsuUxfzZnjhdkzJ5PLgX06fNgIoYFBlLKzgO9tzv8MCZY94EX9NxwY1KtDJ5aI7svxI1S70rBRwwd1tE8PT4+pgGE8bbm+pk6iUqkYhyC5uLjEAQenOLka9a9iAd+ZD24CAeXZ8NhYk4cYSLAQiG5Ec3NzJuW0UKXieXl5dchuOSFh4iJyOTM945qxuoaYMu35leSym0AAfGdW3hBG8fbwppRfXJg011R9FPxsD7Q0UIrioupUNs17urtM9XNzDokL7z08xJ3rBwBwLLf2l7IaWWFpbZPVAm25HFwU0cdr5tyhouddOCqnX0se5565VbRX0dZucbCrMZwcOFGDA71e8OMTvf+QQUF+Wc1PSjUUW3scQwzw4viDWvO1F09pnd9cEpkZl6/HjR+r8zKet3DBqq92pFgcbD5jziyK4NFXceYYNHQIxdhOF5mO0MvLGx6UFunKgSFBgabqI8Hq7shlAI+ov+8EgFlnQle+Y9yxJZH74l2lwVxZGQ6gAIB63fvVYzWOt2onz0M7JKKMt4/lLLE0UwGGYe7rZw3bt1lYMBNX1GPacVZ7QDzEwKocr/GVM/fmrC2tlP5gSf9kFseF7N41on2JJt6wjvSGu03m2Eux5ib/uwOZhcuZ9nfylaj8aC/Mr6JZ3ThqZ55B+8n3S4fcGtmzPQgAQIC1Ono2iHXbIxfpfV7t+nB5E+HYaqjtq+fqd7F1LP3hu0NfkQVr/KTxsV/tSGHThQ6eIy+KL+ihC/AGFdHCNitD3/C+FGOTf2/rnfvQt4QqtdqkJqEtYTcHy/2JUs5xjpaYa/P90iG3ZItVv05Ui0M0YmUcXNGIrfbIi298M6BQ6C1gHYzK5eCimnfCKrb0uplo7EAgWnq5d3Fiw6FNc4ecZds/eRzJmyFNqQOKl5GDo8m4t1Y7pQ4oXla7PlzO5eBmg4e5OATOcLjbX9SY7z5CfU/I5XIDDdVZ4CgeKGrMdxc15rt7NhTqBSx7NhQ6a9/TP5Y4llZKJIc5GK7UljEux83RyTGKbT8AAHGjR1MyXfz848k01p3Q7FdcC10ZDGFoaxneL9yojRYJVjeH+C/V5Sc5u9Hk1uD8yiEFCxzFA+nPm5192q7i/Uq31Udm5DhHS5QOLmrye6emcu7DRQ6HmPyia+FycFHlW33vUX6JnVwBQkfreekDAGzwFk85v3JIAdP+6eP4yItdKC9CR2s+JOdaAI2AVL7V956578XFAQIpZReXQHodldr8atYUErVLo/la+uTcFFOCSmfNnv2uJf3Qg53Zbgc9PD307GfuAldDVS2GbsD39PTyMVIVbQm7M8SRdYBJn+7S1I4C4vsrD4weR787NeLERLWYko4lxzlaMvbrO/Ma5eWZAOWU+q/HP3cwObpuPt7ahAFoVltnVwz6JYFhkPX1VQN/82zI0YiVkytg874EInbx0wrSYs33kHda92iiWhzy+uSogylpuQuZjAEAULY6+A5ZFIn41wGb8IYmGuAJ2NUDQBxZp4u/9GwodL786oDLI/+d26E0LQSA7Pkrfp9O6ec1AgDggUxV8a++pUnc9mbdH/tt9ZEZxtp/cCD7fUvG3ZWy87OUb3fpttDjEsaPYhsMTQ925mC4ku120MfHhxKuxHcymBHHqgwbOXzElawsg++QYHVTsDObAdKpdov3C/xOKVX1Ru1Mm/tKZoLiafkCHlOYsNW4+KSkP1j40x3BqYcvCQ5pRWuCWhzC5eAic/asd6dGnIhpydEkn/OPBFi8F4gAWqoyr0DA/nYcsIvbgTj2tu5xcr9H83f9gr/HxGb2WpBsNHlbiy3eDUAWxScQsYsB/KMBtk7UiVas6q4wLrTX+5kF1R3yTE/LLX0vLbdUV37OfaDfao+8sQAAJYII2dpdt+M70r8hKiWSwziOH1Kr1RgAQO8+fkK2wdD0YGf6qo0Jfv7+weQy39n2gmUKtCXsbkiLAZITgDhNXUjlOEdLPj2TP8tYs8lRwk/INiSFi59y0s7soeaGK61tOryjMvAy+VlijP86c+0295VothpOrpqYR7pYkSDGrwIicrqujCsasS/mRu83NwYAAF2sCANipSMgGrB51B3P0Rdc1zMZhw1FFTWswlospaSw6IH2a0uCoenBzrtSdn7Gdg5RA6Mtsp2xwduTeuoYHBxsdEto14I1+zxs80iFceY+407Dh2XN0GC+xy6iLAewSzsAkhMANoYB/EHRDygRRMiGbr89wlQXK4e6U2J4vi7zymJymggAsPbw7Xi1o0CXC2pUiLfZ/6RaccTmfWlSrLTQhWSFsG4Uk7npCB1tWqyeQMQu1ti1nuAjL3YJ6+3GKMVyc3NzMZN6ckWrwnytjnP04OFj5DLbYGhysDMHw5W2zhVvLbx69jR6DGm3W0L+tzCwRQliJnXTKyA97AicvD8P0gNcwM18C+tD7Jqr/4tdlqPzsTKUOU7tKCB2VAZeZrLleONU0UdRSyN2AQB8eaP5bEr6bcY2IgCAPDy4Mho0W7xEoTqaUQCbp5CRiAAAgFcgEMMXAXbtOwDQGPmF3oIkpn5g2PhVBn9GRusW/Korp8wOXZ+wM9tsYK1SqSxmOESncCUr6723cHy9dlvIJhiaHuxc/KCo2AZT7HTscoU1+zxsYypWWlqUIF6cDsm2mpP5CTRoVk7kT4vhRZ/aUUBsq4/McEppCFp7mJl9pLS26XDQFzkeQV/keKSkP2AlVgAA6RXqP8zXooJN38iqPj3j6l/jw5YyaugpBIIWBG4Ket2x3AfBRqp2e8hZFdgEQ9ODnemrNXvFLgXrajXz3EVkxLWWtets2niuqsKqxvLufOUXAAARxVxEDNV/9blmIylYOzYOAFBsZty2JpzptrC7Qc+qwDQYmhzsjOM4cSUr65nIVGuXgtWitMw3RtbWdYKldhQQJYIIGf2jdOujptd1airn7ggvWVi7Plzu5sQZbag/a1PdxmP3Mw0dDcBnmYSV707xzzLkhGkIbATDbSeZAGq+xf8b5mcyRq27Qs+qwCQYmh7sTDbe2wOyujqpsXd2KVj2yLRLgs+0Wzbyh/dZMQffpcT6nXZffgGPKSS38WwodK5aLrjExpnTUs6Ji9LZ1CdCLbz4iCZyYX28Ta98nFwZGfXp4LQ2w/v0eI51J90AlUpVUl9Tp4tuYBIMPSNxJiU06cL5/xn1EzNHbW2t1XLKG6O9vZ1SLigoeGSsLhKsTqK6SVFl6v39R7V7EnZmhwYec55PPrHjtTdzzq4Y9Iut57d4mD+riztxb8s0lC50fAfcxUhVDRaIFQAA4UmdX0iPdutF7HYy9G2hufsDJ0yZNI5cZpv7iswdcV62pW2Z0tDE/AAfCVY3o7S26fDQnxzeJD+boBaHuPId46zRvyvfMS5a1HPVqH4BG7YmDby0NWngpax1o0re8C1hZE/SQfIy7whzBgsN3m2nhS48jKEJnQ/ITAtjNyb9wqVUcnn8pPGxRqrqBTuzzX1FR6FoaSaXG5osijSyGnbr1vAsc7uoOvkCPuS1CaQwm11JkdsX7stmncxN6C1IWh4ftmRRcHusqDHfHUAFT7M2PNlpPLbGrC2jB0dl+vJOKwmjsYBpe0CXI4uDOQM8DYZuVbTqpe2ZNGUyZfXFNhUynYcPH1Ju1mlXKo1VtRqXL2UY3VGgFVY35ZUj9ykxaIneNfrRxCYYGNRrTdE70fXFc1t+2OAtnqIRK+tB+FvmAM12K0m3Rf1ZoWdZMBYMPXna1ARymb46Y4uhC07ble2GqlpMbX0dpVxfV2c0kgAJVjeltLbpsMLFT/fnzKmpnMtkW8jl4KKid6Lrb06u22pUpJ5kOSDiXwdi6vsaFwAnlhH4bE8ItbBdMUmLLRvnGYOeZWFcwni9SAG9m50tyH1lCHKqGwDrbgvlLXK9Z0UPi4w6+drlMtmZC+6yNvbt3HmddzO1NRATARWxUKH7DzhrsHDJ/l8LjP4HfJruJZ/qLhA6GrARizU3T5MzHJCqEKc3aQKubQ1NgB6rOCbDXNTyBrDGrRsa8S81X7Gb0tzcnMnBcKWK0CS4MxQMPW7CeEqsoUW5rwzwqPRRBVkIZY2NHboxh0xDUxOlzHdyVpmqb5crrGlCYHWipSXG274E66d7slvk8uQQN5M2rIJ1kWJ6bipsxVGAtb9oQmisZA8CAMAKLpuvZAB1LdX+e/xm6Tm9SmxXe4agCWMV5tFsuKL9QM62YCgYeuKUSZRYw7SzaR3O8AoAkHHhIiXXi6zRemG51dJaSjk/J+++qfp2KVi7x8DLvnx2ouXMhZhL0+EDW83JFqTdq6H4z4zwbg8yVndubN/telvAtb+wCmnpLpQ4BDz1/bFwS4jVUVdThY8dao1UtRvo2RbowdC2CnbOvJx5ilyWVFsvWYWElvji/JlzF0zVt0vBAgCoWAQnXgmDfb35MNOdB2NNfRIDYav8L3C7q+fMlttF1ZTYR1GTccP5hhECiic3MfV9Vj5MWIFp30K9iy/KWIVyGh0nr7T2hMn65RbeX0Gb34XiljuWdaRP+WOsU9LL0KGnTiYHQ4eFh60lBztbkvvK1Lg4jut8A9uVSpBUm3QrZIS8RQ7ylhbKs4sXLprMiGqXNiwte8bCEgBY0sXTsClVXtHNPtIcnQ+RsQwH0dpkegCareD4N9gNRMpuYAh6qhp1WY5ltiXShRpVXtHNStVNPR8hidqlUQTgrqsvLWa9naXPj75a7QiVLdAlggWgEaIBg6IGAjwNhs6/k781ce4cSj7+/Xu/3WnNcXOzxWLtuAAA5VUS8O1lNG0VI+4WUuPt5Q3NleZ8xux2hfVn4VIFRsmBPq5f7wR6Hb3LIwKiWZ3iYTk/ma8EAHWuIbo/h1ihaYEzOg4pQ8UPheqbhupdeyQvIpctsZdhuT/rvlY7Cgj6atVeOX/mHMWQrg2GHjpymE5McBwnTJ20WQJ9O1pa8QhkHTgtlLfIobSCGoHzwd/fN5v+AwlWNyetsMGs4d1L4OxLf8YG4tIORvXO17j8ritISxgLnRa1mGIKgQPXy08aqnc8T0pxHFTfPmWomlGwqwcownid27+MVQcscOJxO3WXciUr6z3y9mzYqOGDOiPYuVIiOdz6WEFZZd/Mu22xT9bNO9Qte+tjhYyJyCLB6uacyZP8SC4bMrw/qGqgxnvVMT++xy5u18twaoz9N6spf93VVxhlOdYgLdYl7wMwverJvFu6mXxSiOWd1tzPyBD6TUNfX6/+H/OJsoO8Xe8sKKmTVSre7gN7KSYCW+W+WvfGGsqVZQ1NTZBzL591P9l5YqipozqLbtr4wYdM2iLB6ubUyJrPkIOhDRneG+WtmeQ6IC3RrDLMgJ3ZTLkcwhxpuaXvkZ1ZsbzTzFdZ/6HebUrPI0/nQlswJXMFcdRsmnlNvSPrAEg3DSnd+qj3/1pg01xY1orzZIqeIHE4FNG0Ve6rSonk8J1buZTDq9KKR3DhSoZBB1A68hY5/Hrjit5W8PbV7Ku/3/ud0ZYdCZYdUMYTUhxfDF14St/2EEff0qRgNgCW+7PeRRdt3B4mHfa0vJPtcJQyzoFlRscBAAC5TFOHtIpTOwqIt4/lvGxqnDmpeZRspNi178yKMHb1AGC0m4ZWZLulmmxkAfQV7bm/Df7e2mOY4trVq7uMvSOnorEF/9iwcRCoCMrRXkNTE5y7fBF+u3VDz7bVrmwHSU0VZOeJ4dzli3orK1ARLR9/uMnkfQVk7PqU8M/CyVI8Z7UH6PKyzBjQa2ZKOvWk8LUfC7benAxbdQ9aGgA+GQZE1AuACzXJ7NS1xYDl/AQELTXz1R7DSw/eacraHnSXcsuKIVLSHyz8x7DwRM/GJw6qLQ0AyQmaOwmHU7LyAnbtPxoPein14GfaJcFnpq4rA9CsGrfVD8zQXqcFAEAcWA5YXSkQ8a9TDxWkxRqBJhnaAQByvcZU7tt18RVz3xNbGuWtmQoXodKpuYILABD7+Lrw+6VDbr184NYscpZYLgcXcTkcN0Vbu4W+GYbR5sjy6OmpZ7vsaLAzE5Jmzul3+NTxe9pgbC2SmiqQ1LBzd6itrq5Z89baSwAAAYHCQF9fX90/LNeR53IlIzMr+Yt/xWufoRWWHUA3Qic810PPwUqT4YGaABBAs5oiTm/SCMfV/+jlkc9xjpaMSf5tjMLBlXGwU3BK0STKFrSlAYj9ywBWOmpu/klOAFjpqHlGE6ul+UF703JLGW1Z1h6+HZ/rNYbiQkCc3gTwlg/AlqGacbYMBdgYRjkVBNCcaA75NN1oGpaOQl9pLnAUD2xbjhc3vtmnteid6Pqid6Lr25bjxfuWjWZh6GOOMWHqSO4rpqhUqpIXX5jld/tq9tWO9uXt6yOMmxAfHzchPl70XHAgj+/srv3gHA43bvxYSgI1JFh2QNa9shSyQER5Yn6G6j3/9a2JV/F+jC3u2+ojMwZuvenHNnd8o7w103O3fAzZzUGH9oINGmpHATHvhu8OtvakmI8v+v6MD7+r9+JRrmacR/qLl0suYx70/OK+2e+roZXdRSZkUtIfLDT0B8JFXskTNea7a6MOYntIA431IZFU6FIBy+Vy/Z+lCQwJU+tjhYxN7itFi6KY0l7Rxvj6MoIgZB9/uGnEikV/mVb2sKSQa6PDUvKJKAASLJvxwc93389xjpaUCCJk2+ojMzriB0QQhCziOOev2jzwJ0txg0YjpUpdMnJnnmhpftBesnGcUsfBRX0Bjyl0P8AZTb6R58jFG3u08301rd6ojURLo7w10/vz3/mrfhcdMihcpPG0NwAdu1lmMlOmMWbuzIoYc9lvI321RecP9yG1g9M8107458UQJjckEwCyH1pjbpcIImQGRdEMCTuzQ1f9Ljpk7GcNACBTco3+bP655fMNHAxXcjBcuXH93xndhqNFpVKVpO7as7f1sULW+lghq6+pk9BP8Rj0UXwj69o1bftvdn61gk17AACpVHpm7WurQmdNmu6xZeNHGy+c+V+atLK6VDsvth9vD0/QfkCpbj6y/yAlHhIDANg2AtJXRYKFSbr/HHikwriuvMTCEoTegiQvgbNvb2foXdkCldKmFgnTewDZ4sp3jIvyd4ufM8h/IgDA8Vvlv5TWtxRYezwnnkPUkBDfGXMivSZqn2WVPM49fatoj7VtRWwQeguS+vl5xEzp5zUCACC3Vv1A/FCSl1dae6K7335kTyDBYog9ChYC8ayBtoQIBMJuwAEATpSglYM5mpVQ3NVzQCD+7OAAANeqwWBMF0LD9jzIUKqRYCEQXY0uA4czF2KG94LEWSL7ysppS/LqofhmLYhv18IzEemPQCAQCAQCgUAgEAgEAmGn/D+NAGdAfivZjgAAAABJRU5ErkJggg==;" parent="qUHYum_QUu2UJPCzKtRe-123" vertex="1">
          <mxGeometry x="30" y="46.329999999999984" width="50" height="13.67" as="geometry" />
        </mxCell>
        <mxCell id="qUHYum_QUu2UJPCzKtRe-125" value="" style="endArrow=classic;html=1;dashed=1;strokeColor=#006EAF;strokeWidth=2;startArrow=classic;startFill=1;entryX=1;entryY=0.5;entryDx=0;entryDy=0;exitX=0.25;exitY=1;exitDx=0;exitDy=0;" parent="1" source="qUHYum_QUu2UJPCzKtRe-41" target="qUHYum_QUu2UJPCzKtRe-50" edge="1">
          <mxGeometry relative="1" as="geometry">
            <mxPoint x="590" y="90" as="sourcePoint" />
            <mxPoint x="260" y="-90" as="targetPoint" />
            <Array as="points">
              <mxPoint x="500" y="90" />
              <mxPoint x="410" y="90" />
            </Array>
          </mxGeometry>
        </mxCell>
        <mxCell id="qUHYum_QUu2UJPCzKtRe-126" value="" style="shape=message;html=1;outlineConnect=0;strokeColor=#FF0000;" parent="qUHYum_QUu2UJPCzKtRe-125" vertex="1">
          <mxGeometry width="20" height="14" relative="1" as="geometry">
            <mxPoint x="-28.719999999999995" y="-7" as="offset" />
          </mxGeometry>
        </mxCell>
        <mxCell id="qUHYum_QUu2UJPCzKtRe-131" value="" style="endArrow=classic;html=1;dashed=1;strokeColor=#006EAF;strokeWidth=2;startArrow=classic;startFill=1;entryX=0.5;entryY=0;entryDx=0;entryDy=0;exitX=0.345;exitY=0;exitDx=0;exitDy=0;exitPerimeter=0;" parent="1" edge="1" source="qUHYum_QUu2UJPCzKtRe-42">
          <mxGeometry relative="1" as="geometry">
            <mxPoint x="617.75" y="-36" as="sourcePoint" />
            <mxPoint x="240" y="-36" as="targetPoint" />
            <Array as="points">
              <mxPoint x="610" y="-70" />
              <mxPoint x="600" y="-70" />
              <mxPoint x="240" y="-70" />
            </Array>
          </mxGeometry>
        </mxCell>
        <mxCell id="qUHYum_QUu2UJPCzKtRe-132" value="" style="shape=message;html=1;outlineConnect=0;strokeColor=#FF0000;" parent="qUHYum_QUu2UJPCzKtRe-131" vertex="1">
          <mxGeometry width="20" height="14" relative="1" as="geometry">
            <mxPoint x="-20.83" y="-10" as="offset" />
          </mxGeometry>
        </mxCell>
        <mxCell id="qUHYum_QUu2UJPCzKtRe-144" value="&lt;b&gt;Hub de Gestão&lt;/b&gt;" style="pointerEvents=1;shadow=0;dashed=0;html=1;strokeColor=none;aspect=fixed;labelPosition=center;verticalLabelPosition=middle;verticalAlign=middle;align=center;outlineConnect=0;shape=stencil(5VfbjoIwEP0aHm3ovTxu3N3/qFiVLFJSWNG/32Ily0XXyqohMeEBztCZM2c60AnwvNjIXAUolEWu4jLA7wFCO2kSuUgtjKxl40AaMSCEgzK5VQ6t1MI+L4yuCmWcsSiN/lJVsixPK5Nso0xSOmvlMEEogLyG8EcQvllDfeF5rLPM8kh0Vhyxz559pY1aG/2dLTuGxpzLOujA0Ji3elfnunccQsfo0Hnqh+w6SJPsogOIAcL/ddJW+RYvv3o+wpWXNnGqC3X1rW4JEAOEdUK1kJtIQwE4fJAniCCIRpR2mJ2/pzFqco4B7VaORIAhn3jSxPYmlWatZvZ+tkrlulN80ySFgTglZQ4DqKiUyoeLG4KWTqPtfib3STEzupR1u59rBpsO8drAzyHfUteDfMQBptMhb+kQ8hrKe+/5MT3GItvBrB9vOloxJsBNHca8vpHP4d7S1q/DqNe39DmbFFIg8Gso77vjRzUYDAFH/XARnIxWVNhzFb2l0JxPhnxbXb8WY2Q65DEBVLyG8t57/j7HbkgEwGOGhTOn5fu5ojwExOtXfu3g7e/pbz3x3OIXpkw7nSZp6sbfMw6OSwfz6xF1Q/gR+AE=);sketch=0;fillColor=#006EAF;" parent="1" vertex="1">
          <mxGeometry x="360" y="-170" width="106.35" height="75.5" as="geometry" />
        </mxCell>
        <mxCell id="-BWT7yJ8PO49vbCt_JW4-2" value="" style="endArrow=classic;html=1;dashed=1;strokeColor=#006EAF;strokeWidth=2;startArrow=classic;startFill=1;exitX=0.725;exitY=-0.033;exitDx=0;exitDy=0;exitPerimeter=0;" edge="1" parent="1" source="qUHYum_QUu2UJPCzKtRe-42" target="qUHYum_QUu2UJPCzKtRe-144">
          <mxGeometry relative="1" as="geometry">
            <mxPoint x="619.9999999999999" y="-26" as="sourcePoint" />
            <mxPoint x="249.99999999999994" y="-26" as="targetPoint" />
            <Array as="points">
              <mxPoint x="629" y="-80" />
              <mxPoint x="629" y="-132" />
            </Array>
          </mxGeometry>
        </mxCell>
        <mxCell id="-BWT7yJ8PO49vbCt_JW4-3" value="" style="shape=message;html=1;outlineConnect=0;strokeColor=#FF0000;" vertex="1" parent="-BWT7yJ8PO49vbCt_JW4-2">
          <mxGeometry width="20" height="14" relative="1" as="geometry">
            <mxPoint x="-46.989999999999995" y="-7.21" as="offset" />
          </mxGeometry>
        </mxCell>
      </root>
    </mxGraphModel>
  </diagram>
</mxfile>
